  0
SECTION
  2
HEADER
  9
$ACADVER
  1
AC1015
  9
$ACADMAINTVER
 70
     6
  9
$DWGCODEPAGE
  3
ANSI_1252
  9
$INSBASE
 10
0.0
 20
0.0
 30
0.0
  9
$EXTMIN
 10
0.0
 20
0.0
 30
0.0
  9
$EXTMAX
 10
5.5
 20
4.25
 30
0.0
  9
$LIMMIN
 10
0.0
 20
0.0
  9
$LIMMAX
 10
5.5
 20
4.25
  9
$ORTHOMODE
 70
     0
  9
$REGENMODE
 70
     1
  9
$FILLMODE
 70
     1
  9
$QTEXTMODE
 70
     0
  9
$MIRRTEXT
 70
     1
  9
$LTSCALE
 40
0.5
  9
$ATTMODE
 70
     1
  9
$TEXTSIZE
 40
0.0625
  9
$TRACEWID
 40
0.05
  9
$TEXTSTYLE
  7
Standard
  9
$CLAYER
  8
0
  9
$CELTYPE
  6
ByLayer
  9
$CECOLOR
 62
   256
  9
$CELTSCALE
 40
1.0
  9
$DISPSILH
 70
     0
  9
$DIMSCALE
 40
1.0
  9
$DIMASZ
 40
0.065
  9
$DIMEXO
 40
0.025
  9
$DIMDLI
 40
0.38
  9
$DIMRND
 40
0.0
  9
$DIMDLE
 40
0.0
  9
$DIMEXE
 40
0.0625
  9
$DIMTP
 40
0.0
  9
$DIMTM
 40
0.0
  9
$DIMTXT
 40
0.0625
  9
$DIMCEN
 40
0.09
  9
$DIMTSZ
 40
0.0
  9
$DIMTOL
 70
     0
  9
$DIMLIM
 70
     0
  9
$DIMTIH
 70
     1
  9
$DIMTOH
 70
     1
  9
$DIMSE1
 70
     0
  9
$DIMSE2
 70
     0
  9
$DIMTAD
 70
     1
  9
$DIMZIN
 70
     0
  9
$DIMBLK
  1

  9
$DIMASO
 70
     1
  9
$DIMSHO
 70
     1
  9
$DIMPOST
  1

  9
$DIMAPOST
  1

  9
$DIMALT
 70
     0
  9
$DIMALTD
 70
     2
  9
$DIMALTF
 40
25.4
  9
$DIMLFAC
 40
1.0
  9
$DIMTOFL
 70
     0
  9
$DIMTVP
 40
0.0
  9
$DIMTIX
 70
     0
  9
$DIMSOXD
 70
     0
  9
$DIMSAH
 70
     0
  9
$DIMBLK1
  1

  9
$DIMBLK2
  1

  9
$DIMSTYLE
  2
Standard
  9
$DIMCLRD
 70
     0
  9
$DIMCLRE
 70
     0
  9
$DIMCLRT
 70
     0
  9
$DIMTFAC
 40
1.0
  9
$DIMGAP
 40
0.03
  9
$DIMJUST
 70
     0
  9
$DIMSD1
 70
     0
  9
$DIMSD2
 70
     0
  9
$DIMTOLJ
 70
     1
  9
$DIMTZIN
 70
     0
  9
$DIMALTZ
 70
     0
  9
$DIMALTTZ
 70
     0
  9
$DIMUPT
 70
     0
  9
$DIMDEC
 70
     2
  9
$DIMTDEC
 70
     2
  9
$DIMALTU
 70
     2
  9
$DIMALTTD
 70
     2
  9
$DIMTXSTY
  7
Standard
  9
$DIMAUNIT
 70
     0
  9
$DIMADEC
 70
     2
  9
$DIMALTRND
 40
0.0
  9
$DIMAZIN
 70
     0
  9
$DIMDSEP
 70
    46
  9
$DIMATFIT
 70
     3
  9
$DIMFRAC
 70
     0
  9
$DIMLDRBLK
  1

  9
$DIMLUNIT
 70
     2
  9
$DIMLWD
 70
    -2
  9
$DIMLWE
 70
    -2
  9
$DIMTMOVE
 70
     0
  9
$LUNITS
 70
     2
  9
$LUPREC
 70
     2
  9
$SKETCHINC
 40
0.1
  9
$FILLETRAD
 40
0.5
  9
$AUNITS
 70
     0
  9
$AUPREC
 70
     2
  9
$MENU
  1
.
  9
$ELEVATION
 40
0.0
  9
$PELEVATION
 40
0.0
  9
$THICKNESS
 40
0.0
  9
$LIMCHECK
 70
     0
  9
$CHAMFERA
 40
0.5
  9
$CHAMFERB
 40
0.5
  9
$CHAMFERC
 40
1.0
  9
$CHAMFERD
 40
0.0
  9
$SKPOLY
 70
     0
  9
$TDCREATE
 40
2455694.536962824
  9
$TDUCREATE
 40
2455694.703629491
  9
$TDUPDATE
 40
2455694.536962836
  9
$TDUUPDATE
 40
2455694.703629502
  9
$TDINDWG
 40
0.0000000116
  9
$TDUSRTIMER
 40
0.0000000116
  9
$USRTIMER
 70
     1
  9
$ANGBASE
 50
0.0
  9
$ANGDIR
 70
     0
  9
$PDMODE
 70
     0
  9
$PDSIZE
 40
-1.0
  9
$PLINEWID
 40
0.0
  9
$SPLFRAME
 70
     0
  9
$SPLINETYPE
 70
     6
  9
$SPLINESEGS
 70
     8
  9
$HANDSEED
  5
185
  9
$SURFTAB1
 70
     6
  9
$SURFTAB2
 70
     6
  9
$SURFTYPE
 70
     6
  9
$SURFU
 70
     6
  9
$SURFV
 70
     6
  9
$UCSBASE
  2

  9
$UCSNAME
  2

  9
$UCSORG
 10
0.0
 20
0.0
 30
0.0
  9
$UCSXDIR
 10
1.0
 20
0.0
 30
0.0
  9
$UCSYDIR
 10
0.0
 20
1.0
 30
0.0
  9
$UCSORTHOREF
  2

  9
$UCSORTHOVIEW
 70
     0
  9
$UCSORGTOP
 10
0.0
 20
0.0
 30
0.0
  9
$UCSORGBOTTOM
 10
0.0
 20
0.0
 30
0.0
  9
$UCSORGLEFT
 10
0.0
 20
0.0
 30
0.0
  9
$UCSORGRIGHT
 10
0.0
 20
0.0
 30
0.0
  9
$UCSORGFRONT
 10
0.0
 20
0.0
 30
0.0
  9
$UCSORGBACK
 10
0.0
 20
0.0
 30
0.0
  9
$PUCSBASE
  2

  9
$PUCSNAME
  2

  9
$PUCSORG
 10
0.0
 20
0.0
 30
0.0
  9
$PUCSXDIR
 10
1.0
 20
0.0
 30
0.0
  9
$PUCSYDIR
 10
0.0
 20
1.0
 30
0.0
  9
$PUCSORTHOREF
  2

  9
$PUCSORTHOVIEW
 70
     0
  9
$PUCSORGTOP
 10
0.0
 20
0.0
 30
0.0
  9
$PUCSORGBOTTOM
 10
0.0
 20
0.0
 30
0.0
  9
$PUCSORGLEFT
 10
0.0
 20
0.0
 30
0.0
  9
$PUCSORGRIGHT
 10
0.0
 20
0.0
 30
0.0
  9
$PUCSORGFRONT
 10
0.0
 20
0.0
 30
0.0
  9
$PUCSORGBACK
 10
0.0
 20
0.0
 30
0.0
  9
$USERI1
 70
     0
  9
$USERI2
 70
     0
  9
$USERI3
 70
     0
  9
$USERI4
 70
     0
  9
$USERI5
 70
     0
  9
$USERR1
 40
0.0
  9
$USERR2
 40
0.0
  9
$USERR3
 40
0.0
  9
$USERR4
 40
0.0
  9
$USERR5
 40
0.0
  9
$WORLDVIEW
 70
     1
  9
$SHADEDGE
 70
     3
  9
$SHADEDIF
 70
    70
  9
$TILEMODE
 70
     1
  9
$MAXACTVP
 70
    64
  9
$PINSBASE
 10
0.0
 20
0.0
 30
0.0
  9
$PLIMCHECK
 70
     0
  9
$PEXTMIN
 10
1.0000000000E+20
 20
1.0000000000E+20
 30
1.0000000000E+20
  9
$PEXTMAX
 10
-1.0000000000E+20
 20
-1.0000000000E+20
 30
-1.0000000000E+20
  9
$PLIMMIN
 10
0.0
 20
0.0
  9
$PLIMMAX
 10
12.0
 20
9.0
  9
$UNITMODE
 70
     0
  9
$VISRETAIN
 70
     1
  9
$PLINEGEN
 70
     0
  9
$PSLTSCALE
 70
     1
  9
$TREEDEPTH
 70
  3020
  9
$CMLSTYLE
  2
Standard
  9
$CMLJUST
 70
     0
  9
$CMLSCALE
 40
1.0
  9
$PROXYGRAPHICS
 70
     1
  9
$MEASUREMENT
 70
     0
  9
$CELWEIGHT
370
    -1
  9
$ENDCAPS
280
     0
  9
$JOINSTYLE
280
     0
  9
$LWDISPLAY
290
     1
  9
$INSUNITS
 70
     1
  9
$HYPERLINKBASE
  1

  9
$STYLESHEET
  1

  9
$XEDIT
290
     1
  9
$CEPSNTYPE
380
     0
  9
$PSTYLEMODE
290
     1
  9
$FINGERPRINTGUID
  2
{D9CF04DA-5B13-41DC-90D5-C882C7AED452}
  9
$VERSIONGUID
  2
{FAEB1C32-E019-11D5-929B-00C0DF256EC4}
  9
$EXTNAMES
290
     1
  9
$PSVPSCALE
 40
0.0
  9
$OLESTARTUP
290
     0
  0
ENDSEC
  0
SECTION
  2
CLASSES
  0
CLASS
  1
ACDBDICTIONARYWDFLT
  2
AcDbDictionaryWithDefault
  3
ObjectDBX Classes
 90
        0
280
     0
281
     0
  0
CLASS
  1
VISUALSTYLE
  2
AcDbVisualStyle
  3
ObjectDBX Classes
 90
     4095
280
     0
281
     0
  0
CLASS
  1
MATERIAL
  2
AcDbMaterial
  3
ObjectDBX Classes
 90
     1153
280
     0
281
     0
  0
CLASS
  1
SCALE
  2
AcDbScale
  3
ObjectDBX Classes
 90
     1153
280
     0
281
     0
  0
CLASS
  1
DICTIONARYVAR
  2
AcDbDictionaryVar
  3
ObjectDBX Classes
 90
        0
280
     0
281
     0
  0
CLASS
  1
ACDBPLACEHOLDER
  2
AcDbPlaceHolder
  3
ObjectDBX Classes
 90
        0
280
     0
281
     0
  0
CLASS
  1
LAYOUT
  2
AcDbLayout
  3
ObjectDBX Classes
 90
        0
280
     0
281
     0
  0
ENDSEC
  0
SECTION
  2
TABLES
  0
TABLE
  2
VPORT
  5
8
330
0
100
AcDbSymbolTable
 70
     1
  0
VPORT
  5
29
330
8
100
AcDbSymbolTableRecord
100
AcDbViewportTableRecord
  2
*Active
 70
     0
 10
0.0
 20
0.0
 11
1.0
 21
1.0
 12
2.75
 22
2.125
 13
0.0
 23
0.0
 14
0.5
 24
0.5
 15
0.5
 25
0.5
 16
0.0
 26
0.0
 36
1.0
 17
0.0
 27
0.0
 37
0.0
 40
4.25
 41
1.2941176471
 42
50.0
 43
0.0
 44
0.0
 50
0.0
 51
0.0
 71
     0
 72
  2000
 73
     1
 74
     3
 75
     0
 76
     0
 77
     0
 78
     0
281
     0
 65
     1
110
0.0
120
0.0
130
0.0
111
1.0
121
0.0
131
0.0
112
0.0
122
1.0
132
0.0
 79
     0
146
0.0
  0
ENDTAB
  0
TABLE
  2
LTYPE
  5
5
330
0
100
AcDbSymbolTable
 70
     6
  0
LTYPE
  5
14
330
5
100
AcDbSymbolTableRecord
100
AcDbLinetypeTableRecord
  2
ByBlock
 70
     0
  3

 72
    65
 73
     0
 40
0.0
  0
LTYPE
  5
15
330
5
100
AcDbSymbolTableRecord
100
AcDbLinetypeTableRecord
  2
ByLayer
 70
     0
  3

 72
    65
 73
     0
 40
0.0
  0
LTYPE
  5
16
330
5
100
AcDbSymbolTableRecord
100
AcDbLinetypeTableRecord
  2
Continuous
 70
     0
  3
Solid line
 72
    65
 73
     0
 40
0.0
  0
LTYPE
  5
3F
330
5
100
AcDbSymbolTableRecord
100
AcDbLinetypeTableRecord
  2
HIDDEN
 70
     0
  3
Hidden __ __ __ __ __ __ __ __ __ __ __ __ __ __
 72
    65
 73
     2
 40
0.075
 49
0.05
 74
     0
 49
-0.025
 74
     0
  0
LTYPE
  5
40
330
5
100
AcDbSymbolTableRecord
100
AcDbLinetypeTableRecord
  2
PHANTOM
 70
     0
  3
Phantom ______  __  __  ______  __  __  ______
 72
    65
 73
     6
 40
0.5
 49
0.25
 74
     0
 49
-0.05
 74
     0
 49
0.05
 74
     0
 49
-0.05
 74
     0
 49
0.05
 74
     0
 49
-0.05
 74
     0
  0
LTYPE
  5
41
330
5
100
AcDbSymbolTableRecord
100
AcDbLinetypeTableRecord
  2
CENTER
 70
     0
  3
Center ____ _ ____ _ ____ _ ____ _ ____ _ ____
 72
    65
 73
     4
 40
0.4
 49
0.25
 74
     0
 49
-0.05
 74
     0
 49
0.05
 74
     0
 49
-0.05
 74
     0
  0
LTYPE
  5
42
330
5
100
AcDbSymbolTableRecord
100
AcDbLinetypeTableRecord
  2
CENTERX2
 70
     0
  3
Center (2x) ________  __  ________  __  _____
 72
    65
 73
     4
 40
0.8
 49
0.5
 74
     0
 49
-0.1
 74
     0
 49
0.1
 74
     0
 49
-0.1
 74
     0
  0
LTYPE
  5
43
330
5
100
AcDbSymbolTableRecord
100
AcDbLinetypeTableRecord
  2
DOT2
 70
     0
  3
Dot (.5x) ........................................
 72
    65
 73
     2
 40
0.025
 49
0.0
 74
     0
 49
-0.025
 74
     0
  0
ENDTAB
  0
TABLE
  2
LAYER
  5
2
330
0
100
AcDbSymbolTable
 70
     1
  0
LAYER
  5
10
330
2
100
AcDbSymbolTableRecord
100
AcDbLayerTableRecord
  2
0
 70
     0
 62
     7
  6
Continuous
370
    -3
390
F
  0
ENDTAB
  0
TABLE
  2
STYLE
  5
3
330
0
100
AcDbSymbolTable
 70
     2
  0
STYLE
  5
11
330
3
100
AcDbSymbolTableRecord
100
AcDbTextStyleTableRecord
  2
Standard
 70
     0
 40
0.0
 41
1.0
 50
0.0
 71
     0
 42
0.2
  3
txt
  4

  0
STYLE
  5
55
330
3
100
AcDbSymbolTableRecord
100
AcDbTextStyleTableRecord
  2
SLDTEXTSTYLE0
 70
     0
 40
0.0
 41
0.75
 50
0.0
 71
     0
 42
0.2
  3
TXT
  4

  0
ENDTAB
  0
TABLE
  2
VIEW
  5
6
330
0
100
AcDbSymbolTable
 70
     0
  0
ENDTAB
  0
TABLE
  2
UCS
  5
7
330
0
100
AcDbSymbolTable
 70
     0
  0
ENDTAB
  0
TABLE
  2
APPID
  5
9
330
0
100
AcDbSymbolTable
 70
     1
  0
APPID
  5
12
330
9
100
AcDbSymbolTableRecord
100
AcDbRegAppTableRecord
  2
ACAD
 70
     0
  0
ENDTAB
  0
TABLE
  2
DIMSTYLE
  5
A
330
0
100
AcDbSymbolTable
 70
     6
100
AcDbDimStyleTable
  0
DIMSTYLE
105
27
330
A
100
AcDbSymbolTableRecord
100
AcDbDimStyleTableRecord
  2
Standard
 70
     0
340
11
  0
DIMSTYLE
105
B0
102
{ACAD_REACTORS
330
AF
330
C2
330
F8
102
}
330
A
100
AcDbSymbolTableRecord
100
AcDbDimStyleTableRecord
  2
SLDDIMSTYLE0
 70
     0
 41
0.065
 44
0.0
 45
0.000000001
 78
    12
140
0.0625
147
0.015625
148
0.000000001
170
     1
173
     1
271
     2
272
     2
284
    12
340
55
  0
DIMSTYLE
105
D5
102
{ACAD_REACTORS
330
D4
102
}
330
A
100
AcDbSymbolTableRecord
100
AcDbDimStyleTableRecord
  2
SLDDIMSTYLE1
 70
     0
 41
0.065
 44
0.0
 45
0.000000001
 78
    12
140
0.0625
147
0.015625
148
0.000000001
170
     1
173
     1
271
     2
272
     2
279
     1
284
    12
340
55
  0
DIMSTYLE
105
E7
102
{ACAD_REACTORS
330
E6
102
}
330
A
100
AcDbSymbolTableRecord
100
AcDbDimStyleTableRecord
  2
SLDDIMSTYLE2
 70
     0
 41
0.065
 44
0.0
 45
0.000000001
 78
    12
140
0.0625
147
0.015625
148
0.000000001
170
     1
172
     1
173
     1
271
     3
272
     3
284
    12
340
55
  0
DIMSTYLE
105
10B
102
{ACAD_REACTORS
330
10A
330
11E
102
}
330
A
100
AcDbSymbolTableRecord
100
AcDbDimStyleTableRecord
  2
SLDDIMSTYLE3
 70
     0
 41
0.065
 44
0.0
 45
0.000000001
 78
    12
140
0.0625
147
0.015625
148
0.000000001
170
     1
173
     1
271
     2
272
     2
284
    12
340
55
  0
DIMSTYLE
105
132
102
{ACAD_REACTORS
330
131
102
}
330
A
100
AcDbSymbolTableRecord
100
AcDbDimStyleTableRecord
  2
SLDDIMSTYLE4
 70
     0
 41
0.065
 44
0.0
 45
0.000000001
 78
    12
140
0.0625
147
0.015625
148
0.000000001
170
     1
173
     1
271
     2
272
     2
284
    12
340
55
  0
ENDTAB
  0
TABLE
  2
BLOCK_RECORD
  5
1
330
0
100
AcDbSymbolTable
 70
    13
  0
BLOCK_RECORD
  5
1F
330
1
100
AcDbSymbolTableRecord
100
AcDbBlockTableRecord
  2
*Model_Space
340
22
  0
BLOCK_RECORD
  5
1B
330
1
100
AcDbSymbolTableRecord
100
AcDbBlockTableRecord
  2
*Paper_Space
340
1E
  0
BLOCK_RECORD
  5
23
330
1
100
AcDbSymbolTableRecord
100
AcDbBlockTableRecord
  2
*Paper_Space0
340
26
  0
BLOCK_RECORD
  5
52
330
1
100
AcDbSymbolTableRecord
100
AcDbBlockTableRecord
  2
SW_NOTE_0
340
0
102
{BLKREFS
331
7F
102
}
  0
BLOCK_RECORD
  5
80
330
1
100
AcDbSymbolTableRecord
100
AcDbBlockTableRecord
  2
SW_NOTE_1
340
0
102
{BLKREFS
331
85
102
}
  0
BLOCK_RECORD
  5
86
330
1
100
AcDbSymbolTableRecord
100
AcDbBlockTableRecord
  2
SW_NOTE_2
340
0
102
{BLKREFS
331
8B
102
}
  0
BLOCK_RECORD
  5
8C
330
1
100
AcDbSymbolTableRecord
100
AcDbBlockTableRecord
  2
SW_NOTE_3
340
0
102
{BLKREFS
331
91
102
}
  0
BLOCK_RECORD
  5
B1
330
1
100
AcDbSymbolTableRecord
100
AcDbBlockTableRecord
  2
*D5
340
0
  0
BLOCK_RECORD
  5
C3
330
1
100
AcDbSymbolTableRecord
100
AcDbBlockTableRecord
  2
*D6
340
0
  0
BLOCK_RECORD
  5
D6
330
1
100
AcDbSymbolTableRecord
100
AcDbBlockTableRecord
  2
*D7
340
0
  0
BLOCK_RECORD
  5
E8
330
1
100
AcDbSymbolTableRecord
100
AcDbBlockTableRecord
  2
*D8
340
0
  0
BLOCK_RECORD
  5
F9
330
1
100
AcDbSymbolTableRecord
100
AcDbBlockTableRecord
  2
*D9
340
0
  0
BLOCK_RECORD
  5
10C
330
1
100
AcDbSymbolTableRecord
100
AcDbBlockTableRecord
  2
*D10
340
0
  0
BLOCK_RECORD
  5
11F
330
1
100
AcDbSymbolTableRecord
100
AcDbBlockTableRecord
  2
*D11
340
0
  0
BLOCK_RECORD
  5
133
330
1
100
AcDbSymbolTableRecord
100
AcDbBlockTableRecord
  2
*D12
340
0
  0
ENDTAB
  0
ENDSEC
  0
SECTION
  2
BLOCKS
  0
BLOCK
  5
20
330
1F
100
AcDbEntity
  8
0
100
AcDbBlockBegin
  2
*Model_Space
 70
     0
 10
0.0
 20
0.0
 30
0.0
  3
*Model_Space
  1

  0
ENDBLK
  5
21
330
1F
100
AcDbEntity
  8
0
100
AcDbBlockEnd
  0
BLOCK
  5
1C
330
1B
100
AcDbEntity
 67
     1
  8
0
100
AcDbBlockBegin
  2
*Paper_Space
 70
     0
 10
0.0
 20
0.0
 30
0.0
  3
*Paper_Space
  1

  0
ENDBLK
  5
1D
330
1B
100
AcDbEntity
 67
     1
  8
0
100
AcDbBlockEnd
  0
BLOCK
  5
24
330
23
100
AcDbEntity
  8
0
100
AcDbBlockBegin
  2
*Paper_Space0
 70
     0
 10
0.0
 20
0.0
 30
0.0
  3
*Paper_Space0
  1

  0
ENDBLK
  5
25
330
23
100
AcDbEntity
  8
0
100
AcDbBlockEnd
  0
BLOCK
  5
53
330
52
100
AcDbEntity
  8
0
100
AcDbBlockBegin
  2
SW_NOTE_0
 70
     0
 10
0.0
 20
0.0
 30
0.0
  3
SW_NOTE_0
  1

  0
MTEXT
  5
78
330
52
100
AcDbEntity
  8
0
  6
Continuous
 62
     0
 48
0.5
370
     0
100
AcDbMText
 10
0.0
 20
0.0805667337
 30
0.0
 40
0.0625
 41
0.0
 71
     1
 72
     1
  1
MATERIAL - .060 [1.5mm] THK. ALUMINUM
  7
SLDTEXTSTYLE0
 73
     1
 44
1.0
  0
MTEXT
  5
79
330
52
100
AcDbEntity
  8
0
  6
Continuous
 62
     0
 48
0.5
370
     0
100
AcDbMText
 10
0.0
 20
-0.0838033408
 30
0.0
 40
0.0625
 41
0.0
 71
     1
 72
     1
  1
FINISH - NATURAL
  7
SLDTEXTSTYLE0
 73
     1
 44
1.0
  0
MTEXT
  5
7A
330
52
100
AcDbEntity
  8
0
  6
Continuous
 62
     0
 48
0.5
370
     0
100
AcDbMText
 10
0.0
 20
-0.2481734153
 30
0.0
 40
0.0625
 41
0.0
 71
     1
 72
     1
  1
SUPPLIED WITH M3 x 6mm LG. SELF-THREADING SCREWS
  7
SLDTEXTSTYLE0
 73
     1
 44
1.0
  0
MTEXT
  5
7B
330
52
100
AcDbEntity
  8
0
  6
Continuous
 62
     0
 48
0.5
370
     0
100
AcDbMText
 10
0.0
 20
-0.3303584526
 30
0.0
 40
0.0625
 41
0.0
 71
     1
 72
     1
  1
    (PAN HD., PHILLIPS DRIVE, STEEL, ZINC PLATED) FOR
  7
SLDTEXTSTYLE0
 73
     1
 44
1.0
  0
MTEXT
  5
7C
330
52
100
AcDbEntity
  8
0
  6
Continuous
 62
     0
 48
0.5
370
     0
100
AcDbMText
 10
0.0
 20
-0.4125434898
 30
0.0
 40
0.0625
 41
0.0
 71
     1
 72
     1
  1
     MOUNTING.
  7
SLDTEXTSTYLE0
 73
     1
 44
1.0
  0
MTEXT
  5
7D
330
52
100
AcDbEntity
  8
0
  6
Continuous
 62
     0
 48
0.5
370
     0
100
AcDbMText
 10
0.0
 20
-0.5769135643
 30
0.0
 40
0.0625
 41
0.0
 71
     1
 72
     1
  1
PANEL FITS THE FOLLOWING ENCLOSURES:
  7
SLDTEXTSTYLE0
 73
     1
 44
1.0
  0
MTEXT
  5
7E
330
52
100
AcDbEntity
  8
0
  6
Continuous
 62
     0
 48
0.5
370
     0
100
AcDbMText
 10
0.0
 20
-0.6590986016
 30
0.0
 40
0.0625
 41
0.0
 71
     1
 72
     1
  1
  PN-1330, PN-1330-DG & PN-1330-C
  7
SLDTEXTSTYLE0
 73
     1
 44
1.0
  0
ENDBLK
  5
54
330
52
100
AcDbEntity
  8
0
100
AcDbBlockEnd
  0
BLOCK
  5
81
330
80
100
AcDbEntity
  8
0
100
AcDbBlockBegin
  2
SW_NOTE_1
 70
     0
 10
0.0
 20
0.0
 30
0.0
  3
SW_NOTE_1
  1

  0
MTEXT
  5
83
330
80
100
AcDbEntity
  8
0
  6
Continuous
 62
     0
 48
0.5
370
     0
100
AcDbMText
 10
0.0
 20
0.0805667337
 30
0.0
 40
0.0625
 41
0.0
 71
     1
 72
     1
  1
PART
  7
SLDTEXTSTYLE0
 73
     1
 44
1.0
  0
MTEXT
  5
84
330
80
100
AcDbEntity
  8
0
  6
Continuous
 62
     0
 48
0.5
370
     0
100
AcDbMText
 10
-0.0237413191
 20
-0.0016183035
 30
0.0
 40
0.0625
 41
0.0
 71
     1
 72
     1
  1
NAME
  7
SLDTEXTSTYLE0
 73
     1
 44
1.0
  0
ENDBLK
  5
82
330
80
100
AcDbEntity
  8
0
100
AcDbBlockEnd
  0
BLOCK
  5
87
330
86
100
AcDbEntity
  8
0
100
AcDbBlockBegin
  2
SW_NOTE_2
 70
     0
 10
0.0
 20
0.0
 30
0.0
  3
SW_NOTE_2
  1

  0
MTEXT
  5
89
330
86
100
AcDbEntity
  8
0
  6
Continuous
 62
     0
 48
0.5
370
     0
100
AcDbMText
 10
0.0
 20
0.0805667337
 30
0.0
 40
0.0625
 41
0.0
 71
     1
 72
     1
  1
PART
  7
SLDTEXTSTYLE0
 73
     1
 44
1.0
  0
MTEXT
  5
8A
330
86
100
AcDbEntity
  8
0
  6
Continuous
 62
     0
 48
0.5
370
     0
100
AcDbMText
 10
0.0288628416
 20
-0.0016183035
 30
0.0
 40
0.0625
 41
0.0
 71
     1
 72
     1
  1
No.
  7
SLDTEXTSTYLE0
 73
     1
 44
1.0
  0
ENDBLK
  5
88
330
86
100
AcDbEntity
  8
0
100
AcDbBlockEnd
  0
BLOCK
  5
8D
330
8C
100
AcDbEntity
  8
0
100
AcDbBlockBegin
  2
SW_NOTE_3
 70
     0
 10
0.0
 20
0.0
 30
0.0
  3
SW_NOTE_3
  1

  0
MTEXT
  5
8F
330
8C
100
AcDbEntity
  8
0
  6
Continuous
 62
     0
 48
0.5
370
     0
100
AcDbMText
 10
0.0
 20
0.0805667337
 30
0.0
 40
0.0625
 41
0.0
 71
     1
 72
     1
  1
REV.
  7
SLDTEXTSTYLE0
 73
     1
 44
1.0
  0
MTEXT
  5
90
330
8C
100
AcDbEntity
  8
0
  6
Continuous
 62
     0
 48
0.5
370
     0
100
AcDbMText
 10
-0.0134548612
 20
-0.0016183035
 30
0.0
 40
0.0625
 41
0.0
 71
     1
 72
     1
  1
DATE
  7
SLDTEXTSTYLE0
 73
     1
 44
1.0
  0
ENDBLK
  5
8E
330
8C
100
AcDbEntity
  8
0
100
AcDbBlockEnd
  0
BLOCK
  5
B2
330
B1
100
AcDbEntity
  8
0
100
AcDbBlockBegin
  2
*D5
 70
     1
 10
0.0
 20
0.0
 30
0.0
  3
*D5
  1

  0
SOLID
  5
B4
330
B1
100
AcDbEntity
  8
0
  6
Continuous
 62
     7
 48
0.5
370
     0
100
AcDbTrace
 10
1.4966976692
 20
3.5954495537
 30
0.0
 11
1.5616976692
 21
3.5854495537
 31
0.0
 12
1.5616976692
 22
3.6054495537
 32
0.0
 13
1.5616976692
 23
3.6054495537
 33
0.0
  0
SOLID
  5
B5
330
B1
100
AcDbEntity
  8
0
  6
Continuous
 62
     7
 48
0.5
370
     0
100
AcDbTrace
 10
3.2053590865
 20
3.5954495537
 30
0.0
 11
3.1403590865
 21
3.6054495537
 31
0.0
 12
3.1403590865
 22
3.5854495537
 32
0.0
 13
3.1403590865
 23
3.5854495537
 33
0.0
  0
LINE
  5
B6
330
B1
100
AcDbEntity
  8
0
  6
Continuous
 62
     7
 48
0.5
370
     0
100
AcDbLine
 10
2.244840671
 20
3.5880093409
 30
0.0
 11
2.244840671
 21
3.5036869296
 31
0.0
  0
LINE
  5
B7
330
B1
100
AcDbEntity
  8
0
  6
Continuous
 62
     7
 48
0.5
370
     0
100
AcDbLine
 10
2.244840671
 20
3.5036869296
 30
0.0
 11
2.2575283779
 21
3.5036869296
 31
0.0
  0
LINE
  5
B8
330
B1
100
AcDbEntity
  8
0
  6
Continuous
 62
     7
 48
0.5
370
     0
100
AcDbLine
 10
2.244840671
 20
3.5880093409
 30
0.0
 11
2.2575283779
 21
3.5880093409
 31
0.0
  0
LINE
  5
B9
330
B1
100
AcDbEntity
  8
0
  6
Continuous
 62
     7
 48
0.5
370
     0
100
AcDbLine
 10
2.4572160847
 20
3.5880093409
 30
0.0
 11
2.4572160847
 21
3.5036869296
 31
0.0
  0
LINE
  5
BA
330
B1
100
AcDbEntity
  8
0
  6
Continuous
 62
     7
 48
0.5
370
     0
100
AcDbLine
 10
2.4572160847
 20
3.5036869296
 30
0.0
 11
2.4445283779
 21
3.5036869296
 31
0.0
  0
LINE
  5
BB
330
B1
100
AcDbEntity
  8
0
  6
Continuous
 62
     7
 48
0.5
370
     0
100
AcDbLine
 10
2.4572160847
 20
3.5880093409
 30
0.0
 11
2.4445283779
 21
3.5880093409
 31
0.0
  0
LINE
  5
BC
330
B1
100
AcDbEntity
  8
0
  6
Continuous
 62
     7
 48
0.5
370
     0
100
AcDbLine
 10
1.4966976692
 20
3.081079475
 30
0.0
 11
1.4966976692
 21
3.6579495537
 31
0.0
  0
LINE
  5
BD
330
B1
100
AcDbEntity
  8
0
  6
Continuous
 62
     7
 48
0.5
370
     0
100
AcDbLine
 10
3.2053590865
 20
3.081079475
 30
0.0
 11
3.2053590865
 21
3.6579495537
 31
0.0
  0
LINE
  5
BE
330
B1
100
AcDbEntity
  8
0
  6
Continuous
 62
     7
 48
0.5
370
     0
100
AcDbLine
 10
1.4966976692
 20
3.5954495537
 30
0.0
 11
2.1755386025
 21
3.5954495537
 31
0.0
  0
LINE
  5
BF
330
B1
100
AcDbEntity
  8
0
  6
Continuous
 62
     7
 48
0.5
370
     0
100
AcDbLine
 10
3.2053590865
 20
3.5954495537
 30
0.0
 11
2.5265181533
 21
3.5954495537
 31
0.0
  0
MTEXT
  5
C0
330
B1
100
AcDbEntity
  8
0
  6
Continuous
 62
     7
 48
0.5
370
     0
100
AcDbMText
 10
2.2702160847
 20
3.676016284
 30
0.0
 40
0.0625
 41
0.0
 71
     1
 72
     1
  1
1.71
  7
SLDTEXTSTYLE0
 73
     1
 44
1.0
  0
MTEXT
  5
C1
330
B1
100
AcDbEntity
  8
0
  6
Continuous
 62
     7
 48
0.5
370
     0
100
AcDbMText
 10
2.2702160847
 20
3.5768134471
 30
0.0
 40
0.0625
 41
0.0
 71
     1
 72
     1
  1
43.4
  7
SLDTEXTSTYLE0
 73
     1
 44
1.0
  0
ENDBLK
  5
B3
330
B1
100
AcDbEntity
  8
0
100
AcDbBlockEnd
  0
BLOCK
  5
C4
330
C3
100
AcDbEntity
  8
0
100
AcDbBlockBegin
  2
*D6
 70
     1
 10
0.0
 20
0.0
 30
0.0
  3
*D6
  1

  0
SOLID
  5
C6
330
C3
100
AcDbEntity
  8
0
  6
Continuous
 62
     7
 48
0.5
370
     0
100
AcDbTrace
 10
2.0262252283
 20
1.5718275065
 30
0.0
 11
2.0912252283
 21
1.5618275065
 31
0.0
 12
2.0912252283
 22
1.5818275065
 32
0.0
 13
2.0912252283
 23
1.5818275065
 33
0.0
  0
SOLID
  5
C7
330
C3
100
AcDbEntity
  8
0
  6
Continuous
 62
     7
 48
0.5
370
     0
100
AcDbTrace
 10
2.6758315275
 20
1.5718275065
 30
0.0
 11
2.6108315275
 21
1.5818275065
 31
0.0
 12
2.6108315275
 22
1.5618275065
 32
0.0
 13
2.6108315275
 23
1.5618275065
 33
0.0
  0
LINE
  5
C8
330
C3
100
AcDbEntity
  8
0
  6
Continuous
 62
     7
 48
0.5
370
     0
100
AcDbLine
 10
2.244840671
 20
1.5643872937
 30
0.0
 11
2.244840671
 21
1.4800648823
 31
0.0
  0
LINE
  5
C9
330
C3
100
AcDbEntity
  8
0
  6
Continuous
 62
     7
 48
0.5
370
     0
100
AcDbLine
 10
2.244840671
 20
1.4800648823
 30
0.0
 11
2.2575283779
 21
1.4800648823
 31
0.0
  0
LINE
  5
CA
330
C3
100
AcDbEntity
  8
0
  6
Continuous
 62
     7
 48
0.5
370
     0
100
AcDbLine
 10
2.244840671
 20
1.5643872937
 30
0.0
 11
2.2575283779
 21
1.5643872937
 31
0.0
  0
LINE
  5
CB
330
C3
100
AcDbEntity
  8
0
  6
Continuous
 62
     7
 48
0.5
370
     0
100
AcDbLine
 10
2.4572160847
 20
1.5643872937
 30
0.0
 11
2.4572160847
 21
1.4800648823
 31
0.0
  0
LINE
  5
CC
330
C3
100
AcDbEntity
  8
0
  6
Continuous
 62
     7
 48
0.5
370
     0
100
AcDbLine
 10
2.4572160847
 20
1.4800648823
 30
0.0
 11
2.4445283779
 21
1.4800648823
 31
0.0
  0
LINE
  5
CD
330
C3
100
AcDbEntity
  8
0
  6
Continuous
 62
     7
 48
0.5
370
     0
100
AcDbLine
 10
2.4572160847
 20
1.5643872937
 30
0.0
 11
2.4445283779
 21
1.5643872937
 31
0.0
  0
LINE
  5
CE
330
C3
100
AcDbEntity
  8
0
  6
Continuous
 62
     7
 48
0.5
370
     0
100
AcDbLine
 10
2.0262252283
 20
2.5586385301
 30
0.0
 11
2.0262252283
 21
1.5093275065
 31
0.0
  0
LINE
  5
CF
330
C3
100
AcDbEntity
  8
0
  6
Continuous
 62
     7
 48
0.5
370
     0
100
AcDbLine
 10
2.6758315275
 20
2.5586385301
 30
0.0
 11
2.6758315275
 21
1.5093275065
 31
0.0
  0
LINE
  5
D0
330
C3
100
AcDbEntity
  8
0
  6
Continuous
 62
     7
 48
0.5
370
     0
100
AcDbLine
 10
2.0262252283
 20
1.5718275065
 30
0.0
 11
2.1755386025
 21
1.5718275065
 31
0.0
  0
LINE
  5
D1
330
C3
100
AcDbEntity
  8
0
  6
Continuous
 62
     7
 48
0.5
370
     0
100
AcDbLine
 10
2.6758315275
 20
1.5718275065
 30
0.0
 11
2.5265181533
 21
1.5718275065
 31
0.0
  0
MTEXT
  5
D2
330
C3
100
AcDbEntity
  8
0
  6
Continuous
 62
     7
 48
0.5
370
     0
100
AcDbMText
 10
2.2933147845
 20
1.6523942368
 30
0.0
 40
0.0625
 41
0.0
 71
     1
 72
     1
  1
.65
  7
SLDTEXTSTYLE0
 73
     1
 44
1.0
  0
MTEXT
  5
D3
330
C3
100
AcDbEntity
  8
0
  6
Continuous
 62
     7
 48
0.5
370
     0
100
AcDbMText
 10
2.2702160847
 20
1.5531913999
 30
0.0
 40
0.0625
 41
0.0
 71
     1
 72
     1
  1
16.5
  7
SLDTEXTSTYLE0
 73
     1
 44
1.0
  0
ENDBLK
  5
C5
330
C3
100
AcDbEntity
  8
0
100
AcDbBlockEnd
  0
BLOCK
  5
D7
330
D6
100
AcDbEntity
  8
0
100
AcDbBlockBegin
  2
*D7
 70
     1
 10
0.0
 20
0.0
 30
0.0
  3
*D7
  1

  0
SOLID
  5
D9
330
D6
100
AcDbEntity
  8
0
  6
Continuous
 62
     7
 48
0.5
370
     0
100
AcDbTrace
 10
1.7584246269
 20
2.0305530772
 30
0.0
 11
1.7054064123
 21
1.9916420386
 31
0.0
 12
1.7195539251
 22
1.9775052823
 32
0.0
 13
1.7195539251
 23
1.9775052823
 33
0.0
  0
LINE
  5
DA
330
D6
100
AcDbEntity
  8
0
  6
Continuous
 62
     7
 48
0.5
370
     0
100
AcDbLine
 10
0.8717767932
 20
1.5320256949
 30
0.0
 11
0.8717767932
 21
1.4477032836
 31
0.0
  0
LINE
  5
DB
330
D6
100
AcDbEntity
  8
0
  6
Continuous
 62
     7
 48
0.5
370
     0
100
AcDbLine
 10
0.8717767932
 20
1.4477032836
 30
0.0
 11
0.8844645
 21
1.4477032836
 31
0.0
  0
LINE
  5
DC
330
D6
100
AcDbEntity
  8
0
  6
Continuous
 62
     7
 48
0.5
370
     0
100
AcDbLine
 10
0.8717767932
 20
1.5320256949
 30
0.0
 11
0.8844645
 21
1.5320256949
 31
0.0
  0
LINE
  5
DD
330
D6
100
AcDbEntity
  8
0
  6
Continuous
 62
     7
 48
0.5
370
     0
100
AcDbLine
 10
0.9686808121
 20
1.5320256949
 30
0.0
 11
0.9686808121
 21
1.4477032836
 31
0.0
  0
LINE
  5
DE
330
D6
100
AcDbEntity
  8
0
  6
Continuous
 62
     7
 48
0.5
370
     0
100
AcDbLine
 10
0.9686808121
 20
1.4477032836
 30
0.0
 11
0.9559931052
 21
1.4477032836
 31
0.0
  0
LINE
  5
DF
330
D6
100
AcDbEntity
  8
0
  6
Continuous
 62
     7
 48
0.5
370
     0
100
AcDbLine
 10
0.9686808121
 20
1.5320256949
 30
0.0
 11
0.9559931052
 21
1.5320256949
 31
0.0
  0
LINE
  5
E0
330
D6
100
AcDbEntity
  8
0
  6
Continuous
 62
     7
 48
0.5
370
     0
100
AcDbLine
 10
1.7584246269
 20
2.0305530772
 30
0.0
 11
1.2677108357
 21
1.5394659077
 31
0.0
  0
LINE
  5
E1
330
D6
100
AcDbEntity
  8
0
  6
Continuous
 62
     7
 48
0.5
370
     0
100
AcDbLine
 10
1.2677108357
 20
1.5394659077
 30
0.0
 11
1.2052108357
 21
1.5394659077
 31
0.0
  0
MTEXT
  5
E2
330
D6
100
AcDbEntity
  8
0
  6
Continuous
 62
     7
 48
0.5
370
     0
100
AcDbMText
 10
0.8372282116
 20
1.620032638
 30
0.0
 40
0.0625
 41
0.0
 71
     1
 72
     1
  1
R
  7
SLDTEXTSTYLE0
 73
     1
 44
1.0
  0
MTEXT
  5
E3
330
D6
100
AcDbEntity
  8
0
  6
Continuous
 62
     7
 48
0.5
370
     0
100
AcDbMText
 10
0.8878022069
 20
1.620032638
 30
0.0
 40
0.0625
 41
0.0
 71
     1
 72
     1
  1
.28
  7
SLDTEXTSTYLE0
 73
     1
 44
1.0
  0
MTEXT
  5
E4
330
D6
100
AcDbEntity
  8
0
  6
Continuous
 62
     7
 48
0.5
370
     0
100
AcDbMText
 10
1.0032293936
 20
1.620032638
 30
0.0
 40
0.0625
 41
0.0
 71
     1
 72
     1
  1
 (4x)
  7
SLDTEXTSTYLE0
 73
     1
 44
1.0
  0
MTEXT
  5
E5
330
D6
100
AcDbEntity
  8
0
  6
Continuous
 62
     7
 48
0.5
370
     0
100
AcDbMText
 10
0.8971522069
 20
1.5208298011
 30
0.0
 40
0.0625
 41
0.0
 71
     1
 72
     1
  1
7
  7
SLDTEXTSTYLE0
 73
     1
 44
1.0
  0
ENDBLK
  5
D8
330
D6
100
AcDbEntity
  8
0
100
AcDbBlockEnd
  0
BLOCK
  5
E9
330
E8
100
AcDbEntity
  8
0
100
AcDbBlockBegin
  2
*D8
 70
     1
 10
0.0
 20
0.0
 30
0.0
  3
*D8
  1

  0
SOLID
  5
EB
330
E8
100
AcDbEntity
  8
0
  6
Continuous
 62
     7
 48
0.5
370
     0
100
AcDbTrace
 10
1.9622570434
 20
2.6092306346
 30
0.0
 11
1.9056221412
 21
2.6426594823
 31
0.0
 12
1.8981931189
 22
2.6240904321
 32
0.0
 13
1.8981931189
 23
2.6240904321
 33
0.0
  0
LINE
  5
EC
330
E8
100
AcDbEntity
  8
0
  6
Continuous
 62
     7
 48
0.5
370
     0
100
AcDbLine
 10
0.9233695566
 20
2.8184916148
 30
0.0
 11
0.9233695566
 21
2.7341692034
 31
0.0
  0
LINE
  5
ED
330
E8
100
AcDbEntity
  8
0
  6
Continuous
 62
     7
 48
0.5
370
     0
100
AcDbLine
 10
0.9233695566
 20
2.7341692034
 30
0.0
 11
0.9360572634
 21
2.7341692034
 31
0.0
  0
LINE
  5
EE
330
E8
100
AcDbEntity
  8
0
  6
Continuous
 62
     7
 48
0.5
370
     0
100
AcDbLine
 10
0.9233695566
 20
2.8184916148
 30
0.0
 11
0.9360572634
 21
2.8184916148
 31
0.0
  0
LINE
  5
EF
330
E8
100
AcDbEntity
  8
0
  6
Continuous
 62
     7
 48
0.5
370
     0
100
AcDbLine
 10
1.1357449703
 20
2.8184916148
 30
0.0
 11
1.1357449703
 21
2.7341692034
 31
0.0
  0
LINE
  5
F0
330
E8
100
AcDbEntity
  8
0
  6
Continuous
 62
     7
 48
0.5
370
     0
100
AcDbLine
 10
1.1357449703
 20
2.7341692034
 30
0.0
 11
1.1230572634
 21
2.7341692034
 31
0.0
  0
LINE
  5
F1
330
E8
100
AcDbEntity
  8
0
  6
Continuous
 62
     7
 48
0.5
370
     0
100
AcDbLine
 10
1.1357449703
 20
2.8184916148
 30
0.0
 11
1.1230572634
 21
2.8184916148
 31
0.0
  0
LINE
  5
F2
330
E8
100
AcDbEntity
  8
0
  6
Continuous
 62
     7
 48
0.5
370
     0
100
AcDbLine
 10
1.9622570434
 20
2.6092306346
 30
0.0
 11
1.4206063178
 21
2.8259318275
 31
0.0
  0
LINE
  5
F3
330
E8
100
AcDbEntity
  8
0
  6
Continuous
 62
     7
 48
0.5
370
     0
100
AcDbLine
 10
1.4206063178
 20
2.8259318275
 30
0.0
 11
1.3581063178
 21
2.8259318275
 31
0.0
  0
MTEXT
  5
F4
330
E8
100
AcDbEntity
  8
0
  6
Continuous
 62
     7
 48
0.5
370
     0
100
AcDbMText
 10
0.9041036937
 20
2.906498559
 30
0.0
 40
0.0625
 41
0.0
 71
     1
 72
     1
  1
%%c
  7
SLDTEXTSTYLE0
 73
     1
 44
1.0
  0
MTEXT
  5
F5
330
E8
100
AcDbEntity
  8
0
  6
Continuous
 62
     7
 48
0.5
370
     0
100
AcDbMText
 10
0.9933862469
 20
2.9064985578
 30
0.0
 40
0.0625
 41
0.0
 71
     1
 72
     1
  1
.138
  7
SLDTEXTSTYLE0
 73
     1
 44
1.0
  0
MTEXT
  5
F6
330
E8
100
AcDbEntity
  8
0
  6
Continuous
 62
     7
 48
0.5
370
     0
100
AcDbMText
 10
1.161120384
 20
2.9064985578
 30
0.0
 40
0.0625
 41
0.0
 71
     1
 72
     1
  1
 (2x)
  7
SLDTEXTSTYLE0
 73
     1
 44
1.0
  0
MTEXT
  5
F7
330
E8
100
AcDbEntity
  8
0
  6
Continuous
 62
     7
 48
0.5
370
     0
100
AcDbMText
 10
0.9487449703
 20
2.807295721
 30
0.0
 40
0.0625
 41
0.0
 71
     1
 72
     1
  1
3.50
  7
SLDTEXTSTYLE0
 73
     1
 44
1.0
  0
ENDBLK
  5
EA
330
E8
100
AcDbEntity
  8
0
100
AcDbBlockEnd
  0
BLOCK
  5
FA
330
F9
100
AcDbEntity
  8
0
100
AcDbBlockBegin
  2
*D9
 70
     1
 10
0.0
 20
0.0
 30
0.0
  3
*D9
  1

  0
SOLID
  5
FC
330
F9
100
AcDbEntity
  8
0
  6
Continuous
 62
     7
 48
0.5
370
     0
100
AcDbTrace
 10
3.4549222071
 20
3.39859916
 30
0.0
 11
3.4449222071
 21
3.33359916
 31
0.0
 12
3.4649222071
 22
3.33359916
 32
0.0
 13
3.4649222071
 23
3.33359916
 33
0.0
  0
SOLID
  5
FD
330
F9
100
AcDbEntity
  8
0
  6
Continuous
 62
     7
 48
0.5
370
     0
100
AcDbTrace
 10
3.4549222071
 20
1.7686779002
 30
0.0
 11
3.4649222071
 21
1.8336779002
 31
0.0
 12
3.4449222071
 22
1.8336779002
 32
0.0
 13
3.4449222071
 23
1.8336779002
 33
0.0
  0
LINE
  5
FE
330
F9
100
AcDbEntity
  8
0
  6
Continuous
 62
     7
 48
0.5
370
     0
100
AcDbLine
 10
3.3487345002
 20
2.5761983173
 30
0.0
 11
3.3487345002
 21
2.491875906
 31
0.0
  0
LINE
  5
FF
330
F9
100
AcDbEntity
  8
0
  6
Continuous
 62
     7
 48
0.5
370
     0
100
AcDbLine
 10
3.3487345002
 20
2.491875906
 30
0.0
 11
3.3614222071
 21
2.491875906
 31
0.0
  0
LINE
  5
100
330
F9
100
AcDbEntity
  8
0
  6
Continuous
 62
     7
 48
0.5
370
     0
100
AcDbLine
 10
3.3487345002
 20
2.5761983173
 30
0.0
 11
3.3614222071
 21
2.5761983173
 31
0.0
  0
LINE
  5
101
330
F9
100
AcDbEntity
  8
0
  6
Continuous
 62
     7
 48
0.5
370
     0
100
AcDbLine
 10
3.5611099139
 20
2.5761983173
 30
0.0
 11
3.5611099139
 21
2.491875906
 31
0.0
  0
LINE
  5
102
330
F9
100
AcDbEntity
  8
0
  6
Continuous
 62
     7
 48
0.5
370
     0
100
AcDbLine
 10
3.5611099139
 20
2.491875906
 30
0.0
 11
3.5484222071
 21
2.491875906
 31
0.0
  0
LINE
  5
103
330
F9
100
AcDbEntity
  8
0
  6
Continuous
 62
     7
 48
0.5
370
     0
100
AcDbLine
 10
3.5611099139
 20
2.5761983173
 30
0.0
 11
3.5484222071
 21
2.5761983173
 31
0.0
  0
LINE
  5
104
330
F9
100
AcDbEntity
  8
0
  6
Continuous
 62
     7
 48
0.5
370
     0
100
AcDbLine
 10
2.8878394015
 20
3.39859916
 30
0.0
 11
3.5174222071
 21
3.39859916
 31
0.0
  0
LINE
  5
105
330
F9
100
AcDbEntity
  8
0
  6
Continuous
 62
     7
 48
0.5
370
     0
100
AcDbLine
 10
2.8878394015
 20
1.7686779002
 30
0.0
 11
3.5174222071
 21
1.7686779002
 31
0.0
  0
LINE
  5
106
330
F9
100
AcDbEntity
  8
0
  6
Continuous
 62
     7
 48
0.5
370
     0
100
AcDbLine
 10
3.4549222071
 20
3.39859916
 30
0.0
 11
3.4549222071
 21
2.682841367
 31
0.0
  0
LINE
  5
107
330
F9
100
AcDbEntity
  8
0
  6
Continuous
 62
     7
 48
0.5
370
     0
100
AcDbLine
 10
3.4549222071
 20
1.7686779002
 30
0.0
 11
3.4549222071
 21
2.4844356932
 31
0.0
  0
MTEXT
  5
108
330
F9
100
AcDbEntity
  8
0
  6
Continuous
 62
     7
 48
0.5
370
     0
100
AcDbMText
 10
3.3741099139
 20
2.6642052604
 30
0.0
 40
0.0625
 41
0.0
 71
     1
 72
     1
  1
1.63
  7
SLDTEXTSTYLE0
 73
     1
 44
1.0
  0
MTEXT
  5
109
330
F9
100
AcDbEntity
  8
0
  6
Continuous
 62
     7
 48
0.5
370
     0
100
AcDbMText
 10
3.3741099139
 20
2.5650024235
 30
0.0
 40
0.0625
 41
0.0
 71
     1
 72
     1
  1
41.4
  7
SLDTEXTSTYLE0
 73
     1
 44
1.0
  0
ENDBLK
  5
FB
330
F9
100
AcDbEntity
  8
0
100
AcDbBlockEnd
  0
BLOCK
  5
10D
330
10C
100
AcDbEntity
  8
0
100
AcDbBlockBegin
  2
*D10
 70
     1
 10
0.0
 20
0.0
 30
0.0
  3
*D10
  1

  0
SOLID
  5
10F
330
10C
100
AcDbEntity
  8
0
  6
Continuous
 62
     7
 48
0.5
370
     0
100
AcDbTrace
 10
1.8392173543
 20
1.4081634001
 30
0.0
 11
1.9042173543
 21
1.3981634001
 31
0.0
 12
1.9042173543
 22
1.4181634001
 32
0.0
 13
1.9042173543
 23
1.4181634001
 33
0.0
  0
SOLID
  5
110
330
10C
100
AcDbEntity
  8
0
  6
Continuous
 62
     7
 48
0.5
370
     0
100
AcDbTrace
 10
1.4966976692
 20
1.4081634001
 30
0.0
 11
1.4316976692
 21
1.4181634001
 31
0.0
 12
1.4316976692
 22
1.3981634001
 32
0.0
 13
1.4316976692
 23
1.3981634001
 33
0.0
  0
LINE
  5
111
330
10C
100
AcDbEntity
  8
0
  6
Continuous
 62
     7
 48
0.5
370
     0
100
AcDbLine
 10
1.5848685047
 20
1.4503246057
 30
0.0
 11
1.5848685047
 21
1.3660021944
 31
0.0
  0
LINE
  5
112
330
10C
100
AcDbEntity
  8
0
  6
Continuous
 62
     7
 48
0.5
370
     0
100
AcDbLine
 10
1.5848685047
 20
1.3660021944
 30
0.0
 11
1.5975562115
 21
1.3660021944
 31
0.0
  0
LINE
  5
113
330
10C
100
AcDbEntity
  8
0
  6
Continuous
 62
     7
 48
0.5
370
     0
100
AcDbLine
 10
1.5848685047
 20
1.4503246057
 30
0.0
 11
1.5975562115
 21
1.4503246057
 31
0.0
  0
LINE
  5
114
330
10C
100
AcDbEntity
  8
0
  6
Continuous
 62
     7
 48
0.5
370
     0
100
AcDbLine
 10
1.7510465188
 20
1.4503246057
 30
0.0
 11
1.7510465188
 21
1.3660021944
 31
0.0
  0
LINE
  5
115
330
10C
100
AcDbEntity
  8
0
  6
Continuous
 62
     7
 48
0.5
370
     0
100
AcDbLine
 10
1.7510465188
 20
1.3660021944
 30
0.0
 11
1.738358812
 21
1.3660021944
 31
0.0
  0
LINE
  5
116
330
10C
100
AcDbEntity
  8
0
  6
Continuous
 62
     7
 48
0.5
370
     0
100
AcDbLine
 10
1.7510465188
 20
1.4503246057
 30
0.0
 11
1.738358812
 21
1.4503246057
 31
0.0
  0
LINE
  5
117
330
10C
100
AcDbEntity
  8
0
  6
Continuous
 62
     7
 48
0.5
370
     0
100
AcDbLine
 10
1.8392173543
 20
1.7436779002
 30
0.0
 11
1.8392173543
 21
1.3456634001
 31
0.0
  0
LINE
  5
118
330
10C
100
AcDbEntity
  8
0
  6
Continuous
 62
     7
 48
0.5
370
     0
100
AcDbLine
 10
1.4966976692
 20
2.0861975852
 30
0.0
 11
1.4966976692
 21
1.3456634001
 31
0.0
  0
LINE
  5
119
330
10C
100
AcDbEntity
  8
0
  6
Continuous
 62
     7
 48
0.5
370
     0
100
AcDbLine
 10
1.8392173543
 20
1.4081634001
 30
0.0
 11
1.9642173543
 21
1.4081634001
 31
0.0
  0
LINE
  5
11A
330
10C
100
AcDbEntity
  8
0
  6
Continuous
 62
     7
 48
0.5
370
     0
100
AcDbLine
 10
1.4966976692
 20
1.4081634001
 30
0.0
 11
1.3716976692
 21
1.4081634001
 31
0.0
  0
MTEXT
  5
11B
330
10C
100
AcDbEntity
  8
0
  6
Continuous
 62
     7
 48
0.5
370
     0
100
AcDbMText
 10
1.6102439184
 20
1.5383315488
 30
0.0
 40
0.0625
 41
0.0
 71
     1
 72
     1
  1
.34
  7
SLDTEXTSTYLE0
 73
     1
 44
1.0
  0
MTEXT
  5
11C
330
10C
100
AcDbEntity
  8
0
  6
Continuous
 62
     7
 48
0.5
370
     0
100
AcDbMText
 10
1.5971681205
 20
1.339925875
 30
0.0
 40
0.0625
 41
0.0
 71
     1
 72
     1
  1
TYP.
  7
SLDTEXTSTYLE0
 73
     1
 44
1.0
  0
MTEXT
  5
11D
330
10C
100
AcDbEntity
  8
0
  6
Continuous
 62
     7
 48
0.5
370
     0
100
AcDbMText
 10
1.6102439184
 20
1.4391287119
 30
0.0
 40
0.0625
 41
0.0
 71
     1
 72
     1
  1
8.7
  7
SLDTEXTSTYLE0
 73
     1
 44
1.0
  0
ENDBLK
  5
10E
330
10C
100
AcDbEntity
  8
0
100
AcDbBlockEnd
  0
BLOCK
  5
120
330
11F
100
AcDbEntity
  8
0
100
AcDbBlockBegin
  2
*D11
 70
     1
 10
0.0
 20
0.0
 30
0.0
  3
*D11
  1

  0
SOLID
  5
122
330
11F
100
AcDbEntity
  8
0
  6
Continuous
 62
     7
 48
0.5
370
     0
100
AcDbTrace
 10
1.2577827272
 20
2.1111975852
 30
0.0
 11
1.2677827272
 21
2.1761975852
 31
0.0
 12
1.2477827272
 22
2.1761975852
 32
0.0
 13
1.2477827272
 23
2.1761975852
 33
0.0
  0
SOLID
  5
123
330
11F
100
AcDbEntity
  8
0
  6
Continuous
 62
     7
 48
0.5
370
     0
100
AcDbTrace
 10
1.2577827272
 20
1.7686779002
 30
0.0
 11
1.2477827272
 21
1.7036779002
 31
0.0
 12
1.2677827272
 22
1.7036779002
 32
0.0
 13
1.2677827272
 23
1.7036779002
 33
0.0
  0
LINE
  5
124
330
11F
100
AcDbEntity
  8
0
  6
Continuous
 62
     7
 48
0.5
370
     0
100
AcDbLine
 10
1.084553531
 20
1.9324975299
 30
0.0
 11
1.084553531
 21
1.8481751186
 31
0.0
  0
LINE
  5
125
330
11F
100
AcDbEntity
  8
0
  6
Continuous
 62
     7
 48
0.5
370
     0
100
AcDbLine
 10
1.084553531
 20
1.8481751186
 30
0.0
 11
1.0972412378
 21
1.8481751186
 31
0.0
  0
LINE
  5
126
330
11F
100
AcDbEntity
  8
0
  6
Continuous
 62
     7
 48
0.5
370
     0
100
AcDbLine
 10
1.084553531
 20
1.9324975299
 30
0.0
 11
1.0972412378
 21
1.9324975299
 31
0.0
  0
LINE
  5
127
330
11F
100
AcDbEntity
  8
0
  6
Continuous
 62
     7
 48
0.5
370
     0
100
AcDbLine
 10
1.2507315451
 20
1.9324975299
 30
0.0
 11
1.2507315451
 21
1.8481751186
 31
0.0
  0
LINE
  5
128
330
11F
100
AcDbEntity
  8
0
  6
Continuous
 62
     7
 48
0.5
370
     0
100
AcDbLine
 10
1.2507315451
 20
1.8481751186
 30
0.0
 11
1.2380438383
 21
1.8481751186
 31
0.0
  0
LINE
  5
129
330
11F
100
AcDbEntity
  8
0
  6
Continuous
 62
     7
 48
0.5
370
     0
100
AcDbLine
 10
1.2507315451
 20
1.9324975299
 30
0.0
 11
1.2380438383
 21
1.9324975299
 31
0.0
  0
LINE
  5
12A
330
11F
100
AcDbEntity
  8
0
  6
Continuous
 62
     7
 48
0.5
370
     0
100
AcDbLine
 10
1.4716976692
 20
2.1111975852
 30
0.0
 11
1.1952827272
 21
2.1111975852
 31
0.0
  0
LINE
  5
12B
330
11F
100
AcDbEntity
  8
0
  6
Continuous
 62
     7
 48
0.5
370
     0
100
AcDbLine
 10
1.8142173543
 20
1.7686779002
 30
0.0
 11
1.1952827272
 21
1.7686779002
 31
0.0
  0
LINE
  5
12C
330
11F
100
AcDbEntity
  8
0
  6
Continuous
 62
     7
 48
0.5
370
     0
100
AcDbLine
 10
1.2577827272
 20
2.1111975852
 30
0.0
 11
1.2577827272
 21
2.2361975852
 31
0.0
  0
LINE
  5
12D
330
11F
100
AcDbEntity
  8
0
  6
Continuous
 62
     7
 48
0.5
370
     0
100
AcDbLine
 10
1.2577827272
 20
1.7686779002
 30
0.0
 11
1.2577827272
 21
1.6436779002
 31
0.0
  0
MTEXT
  5
12E
330
11F
100
AcDbEntity
  8
0
  6
Continuous
 62
     7
 48
0.5
370
     0
100
AcDbMText
 10
1.1099289447
 20
2.020504473
 30
0.0
 40
0.0625
 41
0.0
 71
     1
 72
     1
  1
.34
  7
SLDTEXTSTYLE0
 73
     1
 44
1.0
  0
MTEXT
  5
12F
330
11F
100
AcDbEntity
  8
0
  6
Continuous
 62
     7
 48
0.5
370
     0
100
AcDbMText
 10
1.2761069589
 20
2.020504473
 30
0.0
 40
0.0625
 41
0.0
 71
     1
 72
     1
  1
 TYP.
  7
SLDTEXTSTYLE0
 73
     1
 44
1.0
  0
MTEXT
  5
130
330
11F
100
AcDbEntity
  8
0
  6
Continuous
 62
     7
 48
0.5
370
     0
100
AcDbMText
 10
1.1099289447
 20
1.9213016361
 30
0.0
 40
0.0625
 41
0.0
 71
     1
 72
     1
  1
8.7
  7
SLDTEXTSTYLE0
 73
     1
 44
1.0
  0
ENDBLK
  5
121
330
11F
100
AcDbEntity
  8
0
100
AcDbBlockEnd
  0
BLOCK
  5
134
330
133
100
AcDbEntity
  8
0
100
AcDbBlockBegin
  2
*D12
 70
     1
 10
0.0
 20
0.0
 30
0.0
  3
*D12
  1

  0
SOLID
  5
136
330
133
100
AcDbEntity
  8
0
  6
Continuous
 62
     7
 48
0.5
370
     0
100
AcDbTrace
 10
1.5057846288
 20
3.0470070526
 30
0.0
 11
1.4669113433
 21
3.1000529542
 31
0.0
 12
1.452764519
 22
3.0859155087
 32
0.0
 13
1.452764519
 23
3.0859155087
 33
0.0
  0
LINE
  5
137
330
133
100
AcDbEntity
  8
0
  6
Continuous
 62
     7
 48
0.5
370
     0
100
AcDbLine
 10
0.8759395055
 20
3.2134923996
 30
0.0
 11
0.8759395055
 21
3.1291699883
 31
0.0
  0
LINE
  5
138
330
133
100
AcDbEntity
  8
0
  6
Continuous
 62
     7
 48
0.5
370
     0
100
AcDbLine
 10
0.8759395055
 20
3.1291699883
 30
0.0
 11
0.8886272123
 21
3.1291699883
 31
0.0
  0
LINE
  5
139
330
133
100
AcDbEntity
  8
0
  6
Continuous
 62
     7
 48
0.5
370
     0
100
AcDbLine
 10
0.8759395055
 20
3.2134923996
 30
0.0
 11
0.8886272123
 21
3.2134923996
 31
0.0
  0
LINE
  5
13A
330
133
100
AcDbEntity
  8
0
  6
Continuous
 62
     7
 48
0.5
370
     0
100
AcDbLine
 10
1.0421175196
 20
3.2134923996
 30
0.0
 11
1.0421175196
 21
3.1291699883
 31
0.0
  0
LINE
  5
13B
330
133
100
AcDbEntity
  8
0
  6
Continuous
 62
     7
 48
0.5
370
     0
100
AcDbLine
 10
1.0421175196
 20
3.1291699883
 30
0.0
 11
1.0294298128
 21
3.1291699883
 31
0.0
  0
LINE
  5
13C
330
133
100
AcDbEntity
  8
0
  6
Continuous
 62
     7
 48
0.5
370
     0
100
AcDbLine
 10
1.0421175196
 20
3.2134923996
 30
0.0
 11
1.0294298128
 21
3.2134923996
 31
0.0
  0
LINE
  5
13D
330
133
100
AcDbEntity
  8
0
  6
Continuous
 62
     7
 48
0.5
370
     0
100
AcDbLine
 10
1.5057846288
 20
3.0470070526
 30
0.0
 11
1.3319743754
 21
3.2209326124
 31
0.0
  0
LINE
  5
13E
330
133
100
AcDbEntity
  8
0
  6
Continuous
 62
     7
 48
0.5
370
     0
100
AcDbLine
 10
1.3319743754
 20
3.2209326124
 30
0.0
 11
1.2694743754
 21
3.2209326124
 31
0.0
  0
MTEXT
  5
13F
330
133
100
AcDbEntity
  8
0
  6
Continuous
 62
     7
 48
0.5
370
     0
100
AcDbMText
 10
0.8760279215
 20
3.3014993427
 30
0.0
 40
0.0625
 41
0.0
 71
     1
 72
     1
  1
R
  7
SLDTEXTSTYLE0
 73
     1
 44
1.0
  0
MTEXT
  5
140
330
133
100
AcDbEntity
  8
0
  6
Continuous
 62
     7
 48
0.5
370
     0
100
AcDbMText
 10
0.9266019168
 20
3.3014993427
 30
0.0
 40
0.0625
 41
0.0
 71
     1
 72
     1
  1
.03
  7
SLDTEXTSTYLE0
 73
     1
 44
1.0
  0
MTEXT
  5
141
330
133
100
AcDbEntity
  8
0
  6
Continuous
 62
     7
 48
0.5
370
     0
100
AcDbMText
 10
1.0674929334
 20
3.3014993427
 30
0.0
 40
0.0625
 41
0.0
 71
     1
 72
     1
  1
 (8x)
  7
SLDTEXTSTYLE0
 73
     1
 44
1.0
  0
MTEXT
  5
142
330
133
100
AcDbEntity
  8
0
  6
Continuous
 62
     7
 48
0.5
370
     0
100
AcDbMText
 10
0.9013149192
 20
3.2022965058
 30
0.0
 40
0.0625
 41
0.0
 71
     1
 72
     1
  1
0.8
  7
SLDTEXTSTYLE0
 73
     1
 44
1.0
  0
ENDBLK
  5
135
330
133
100
AcDbEntity
  8
0
100
AcDbBlockEnd
  0
ENDSEC
  0
SECTION
  2
ENTITIES
  0
LINE
  5
44
330
1F
100
AcDbEntity
  8
0
  6
Continuous
 62
     7
 48
0.5
370
     0
100
AcDbLine
 10
0.1959635
 20
4.0650365854
 30
0.0
 11
0.1959635
 21
0.2270365854
 31
0.0
  0
LINE
  5
45
330
1F
100
AcDbEntity
  8
0
  6
Continuous
 62
     7
 48
0.5
370
     0
100
AcDbLine
 10
0.1649635
 20
4.0960365854
 30
0.0
 11
0.1649635
 21
0.1960365854
 31
0.0
  0
LINE
  5
46
330
1F
100
AcDbEntity
  8
0
  6
Continuous
 62
     7
 48
0.5
370
     0
100
AcDbLine
 10
5.3149635
 20
0.1960365854
 30
0.0
 11
0.1649635
 21
0.1960365854
 31
0.0
  0
LINE
  5
47
330
1F
100
AcDbEntity
  8
0
  6
Continuous
 62
     7
 48
0.5
370
     0
100
AcDbLine
 10
5.3149635
 20
0.1960365854
 30
0.0
 11
5.3149635
 21
4.0960365854
 31
0.0
  0
LINE
  5
48
330
1F
100
AcDbEntity
  8
0
  6
Continuous
 62
     7
 48
0.5
370
     0
100
AcDbLine
 10
5.2839635
 20
0.2270365854
 30
0.0
 11
0.1959635
 21
0.2270365854
 31
0.0
  0
LINE
  5
49
330
1F
100
AcDbEntity
  8
0
  6
Continuous
 62
     7
 48
0.5
370
     0
100
AcDbLine
 10
5.2839635
 20
0.2270365854
 30
0.0
 11
5.2839635
 21
4.0650365854
 31
0.0
  0
LINE
  5
4A
330
1F
100
AcDbEntity
  8
0
  6
Continuous
 62
     7
 48
0.5
370
     0
100
AcDbLine
 10
0.1959635
 20
4.0650365854
 30
0.0
 11
5.2839635
 21
4.0650365854
 31
0.0
  0
LINE
  5
4B
330
1F
100
AcDbEntity
  8
0
  6
Continuous
 62
     7
 48
0.5
370
     0
100
AcDbLine
 10
0.1959635
 20
3.8620365854
 30
0.0
 11
5.2839635
 21
3.8620365854
 31
0.0
  0
LINE
  5
4C
330
1F
100
AcDbEntity
  8
0
  6
Continuous
 62
     7
 48
0.5
370
     0
100
AcDbLine
 10
0.4769635
 20
4.0650365854
 30
0.0
 11
0.4769635
 21
3.8620365854
 31
0.0
  0
LINE
  5
4D
330
1F
100
AcDbEntity
  8
0
  6
Continuous
 62
     7
 48
0.5
370
     0
100
AcDbLine
 10
4.5104580815
 20
4.0650365854
 30
0.0
 11
4.5104580815
 21
3.8620365854
 31
0.0
  0
LINE
  5
4E
330
1F
100
AcDbEntity
  8
0
  6
Continuous
 62
     7
 48
0.5
370
     0
100
AcDbLine
 10
4.7914580815
 20
4.0650365854
 30
0.0
 11
4.7914580815
 21
3.8620365854
 31
0.0
  0
LINE
  5
4F
330
1F
100
AcDbEntity
  8
0
  6
Continuous
 62
     7
 48
0.5
370
     0
100
AcDbLine
 10
2.7269635
 20
4.0650365854
 30
0.0
 11
2.7269635
 21
3.8620365854
 31
0.0
  0
LINE
  5
50
330
1F
100
AcDbEntity
  8
0
  6
Continuous
 62
     7
 48
0.5
370
     0
100
AcDbLine
 10
3.0079635
 20
4.0650365854
 30
0.0
 11
3.0079635
 21
3.8620365854
 31
0.0
  0
LINE
  5
51
330
1F
100
AcDbEntity
  8
0
  6
Continuous
 62
     7
 48
0.5
370
     0
100
AcDbLine
 10
0.1649635
 20
4.0960365854
 30
0.0
 11
5.3149635
 21
4.0960365854
 31
0.0
  0
INSERT
  5
7F
330
1F
100
AcDbEntity
  8
0
  6
Continuous
 62
     7
 48
0.5
370
     0
100
AcDbBlockReference
  2
SW_NOTE_0
 10
0.6075434674
 20
1.1073423918
 30
0.0
  0
INSERT
  5
85
330
1F
100
AcDbEntity
  8
0
  6
Continuous
 62
     7
 48
0.5
370
     0
100
AcDbBlockReference
  2
SW_NOTE_1
 10
0.2350065437
 20
3.9570159452
 30
0.0
  0
INSERT
  5
8B
330
1F
100
AcDbEntity
  8
0
  6
Continuous
 62
     7
 48
0.5
370
     0
100
AcDbBlockReference
  2
SW_NOTE_2
 10
2.7696940772
 20
3.9567856035
 30
0.0
  0
INSERT
  5
91
330
1F
100
AcDbEntity
  8
0
  6
Continuous
 62
     7
 48
0.5
370
     0
100
AcDbBlockReference
  2
SW_NOTE_3
 10
4.5645245934
 20
3.9599864617
 30
0.0
  0
MTEXT
  5
92
330
1F
100
AcDbEntity
  8
0
  6
Continuous
 62
     7
 48
0.5
370
     0
100
AcDbMText
 10
1.0393843415
 20
4.0176222867
 30
0.0
 40
0.09375
 41
0.0
 71
     1
 72
     1
  1
INTERNAL PANEL
  7
SLDTEXTSTYLE0
 73
     1
 44
1.0
  0
MTEXT
  5
93
330
1F
100
AcDbEntity
  8
0
  6
Continuous
 62
     7
 48
0.5
370
     0
100
AcDbMText
 10
3.4657424707
 20
4.0129099535
 30
0.0
 40
0.09375
 41
0.0
 71
     1
 72
     1
  1
PNX-91430
  7
SLDTEXTSTYLE0
 73
     1
 44
1.0
  0
MTEXT
  5
94
330
1F
100
AcDbEntity
  8
0
  6
Continuous
 62
     7
 48
0.5
370
     0
100
AcDbMText
 10
4.8171077925
 20
4.0114512981
 30
0.0
 40
0.09375
 41
0.0
 71
     1
 72
     1
  1
5-11-11
  7
SLDTEXTSTYLE0
 73
     1
 44
1.0
  0
ARC
  5
95
330
1F
100
AcDbEntity
  8
0
  6
Continuous
 62
     7
 48
0.25
370
    15
100
AcDbCircle
 10
1.8702173543
 20
3.36759916
 30
0.0
 40
0.0310000000000001
100
AcDbArc
 50
90.0
 51
180.0
  0
ARC
  5
96
330
1F
100
AcDbEntity
  8
0
  6
Continuous
 62
     7
 48
0.25
370
    15
100
AcDbCircle
 10
2.8318394015
 20
3.36759916
 30
0.0
 40
0.0310000000000001
100
AcDbArc
 50
0.0
 51
90.0
  0
ARC
  5
97
330
1F
100
AcDbEntity
  8
0
  6
Continuous
 62
     7
 48
0.25
370
    15
100
AcDbCircle
 10
3.1743590865
 20
2.1421975852
 30
0.0
 40
0.0310000000000006
100
AcDbArc
 50
270.0
 51
0.0
  0
ARC
  5
98
330
1F
100
AcDbEntity
  8
0
  6
Continuous
 62
     7
 48
0.25
370
    15
100
AcDbCircle
 10
2.8318394015
 20
1.7996779002
 30
0.0
 40
0.0310000000000001
100
AcDbArc
 50
270.0
 51
0.0
  0
ARC
  5
99
330
1F
100
AcDbEntity
  8
0
  6
Continuous
 62
     7
 48
0.25
370
    15
100
AcDbCircle
 10
1.8702173543
 20
1.7996779002
 30
0.0
 40
0.0310000000000001
100
AcDbArc
 50
180.0
 51
270.0
  0
ARC
  5
9A
330
1F
100
AcDbEntity
  8
0
  6
Continuous
 62
     7
 48
0.25
370
    15
100
AcDbCircle
 10
1.5276976692
 20
2.1421975852
 30
0.0
 40
0.0310000000000001
100
AcDbArc
 50
180.0
 51
270.0
  0
ARC
  5
9B
330
1F
100
AcDbEntity
  8
0
  6
Continuous
 62
     7
 48
0.25
370
    15
100
AcDbCircle
 10
1.5276976692
 20
3.025079475
 30
0.0
 40
0.0310000000000001
100
AcDbArc
 50
90.0
 51
180.0
  0
CIRCLE
  5
9C
330
1F
100
AcDbEntity
  8
0
  6
Continuous
 62
     7
 48
0.25
370
    15
100
AcDbCircle
 10
2.6758315275
 20
2.5836385301
 30
0.0
 40
0.0688976377952755
  0
CIRCLE
  5
9D
330
1F
100
AcDbEntity
  8
0
  6
Continuous
 62
     7
 48
0.25
370
    15
100
AcDbCircle
 10
2.0262252283
 20
2.5836385301
 30
0.0
 40
0.0688976377952755
  0
ARC
  5
9E
330
1F
100
AcDbEntity
  8
0
  6
Continuous
 62
     7
 48
0.25
370
    15
100
AcDbCircle
 10
3.1743590865
 20
3.025079475
 30
0.0
 40
0.0310000000000006
100
AcDbArc
 50
0.0
 51
90.0
  0
LINE
  5
9F
330
1F
100
AcDbEntity
  8
0
  6
Continuous
 62
     7
 48
0.5
370
    15
100
AcDbLine
 10
2.8628394121
 20
3.3316700021
 30
0.0
 11
2.8628394121
 21
3.3675991804
 31
0.0
  0
LINE
  5
A0
330
1F
100
AcDbEntity
  8
0
  6
Continuous
 62
     7
 48
0.5
370
    15
100
AcDbLine
 10
2.8318393868
 20
3.3985991689
 30
0.0
 11
1.8702173689
 21
3.3985991689
 31
0.0
  0
LINE
  5
A1
330
1F
100
AcDbEntity
  8
0
  6
Continuous
 62
     7
 48
0.5
370
    15
100
AcDbLine
 10
1.8392173437
 20
3.3675991804
 30
0.0
 11
1.8392173437
 21
3.3316700021
 31
0.0
  0
ARC
  5
A2
330
1F
100
AcDbEntity
  8
0
  6
Continuous
 62
     7
 48
0.25
370
    15
100
AcDbCircle
 10
1.5636268031
 20
3.3316700261
 30
0.0
 40
0.2755905511811023
100
AcDbArc
 50
270.0
 51
0.0
  0
LINE
  5
A3
330
1F
100
AcDbEntity
  8
0
  6
Continuous
 62
     7
 48
0.5
370
    15
100
AcDbLine
 10
1.5636268207
 20
3.0560794791
 30
0.0
 11
1.5276976424
 21
3.0560794791
 31
0.0
  0
LINE
  5
A4
330
1F
100
AcDbEntity
  8
0
  6
Continuous
 62
     7
 48
0.5
370
    15
100
AcDbLine
 10
1.4966976539
 20
3.0250794905
 30
0.0
 11
1.4966976539
 21
2.1421975696
 31
0.0
  0
LINE
  5
A5
330
1F
100
AcDbEntity
  8
0
  6
Continuous
 62
     7
 48
0.5
370
    15
100
AcDbLine
 10
1.5276976424
 20
2.1111975811
 30
0.0
 11
1.5636268207
 21
2.1111975811
 31
0.0
  0
ARC
  5
A6
330
1F
100
AcDbEntity
  8
0
  6
Continuous
 62
     7
 48
0.25
370
    15
100
AcDbCircle
 10
1.5636268031
 20
1.835607034
 30
0.0
 40
0.2755905511811025
100
AcDbArc
 50
0.0
 51
90.0
  0
LINE
  5
A7
330
1F
100
AcDbEntity
  8
0
  6
Continuous
 62
     7
 48
0.5
370
    15
100
AcDbLine
 10
1.8392173437
 20
1.8356070581
 30
0.0
 11
1.8392173437
 21
1.7996778798
 31
0.0
  0
LINE
  5
A8
330
1F
100
AcDbEntity
  8
0
  6
Continuous
 62
     7
 48
0.5
370
    15
100
AcDbLine
 10
1.8702173689
 20
1.7686778912
 30
0.0
 11
2.8318393868
 21
1.7686778912
 31
0.0
  0
LINE
  5
A9
330
1F
100
AcDbEntity
  8
0
  6
Continuous
 62
     7
 48
0.5
370
    15
100
AcDbLine
 10
2.8628394121
 20
1.7996778798
 30
0.0
 11
2.8628394121
 21
1.8356070581
 31
0.0
  0
ARC
  5
AA
330
1F
100
AcDbEntity
  8
0
  6
Continuous
 62
     7
 48
0.25
370
    15
100
AcDbCircle
 10
3.1384299527
 20
1.835607034
 30
0.0
 40
0.2755905511811028
100
AcDbArc
 50
90.0
 51
180.0
  0
LINE
  5
AB
330
1F
100
AcDbEntity
  8
0
  6
Continuous
 62
     7
 48
0.5
370
    15
100
AcDbLine
 10
3.1384299351
 20
2.1111975811
 30
0.0
 11
3.1743591134
 21
2.1111975811
 31
0.0
  0
LINE
  5
AC
330
1F
100
AcDbEntity
  8
0
  6
Continuous
 62
     7
 48
0.5
370
    15
100
AcDbLine
 10
3.2053591019
 20
2.1421975696
 30
0.0
 11
3.2053591019
 21
3.0250794905
 31
0.0
  0
LINE
  5
AD
330
1F
100
AcDbEntity
  8
0
  6
Continuous
 62
     7
 48
0.5
370
    15
100
AcDbLine
 10
3.1743591134
 20
3.0560794791
 30
0.0
 11
3.1384299351
 21
3.0560794791
 31
0.0
  0
ARC
  5
AE
330
1F
100
AcDbEntity
  8
0
  6
Continuous
 62
     7
 48
0.25
370
    15
100
AcDbCircle
 10
3.1384299527
 20
3.3316700261
 30
0.0
 40
0.2755905511811028
100
AcDbArc
 50
180.0
 51
270.0
  0
DIMENSION
  5
AF
330
1F
100
AcDbEntity
  8
0
  6
Continuous
 62
     7
 48
0.5
370
     0
100
AcDbDimension
  2
*D5
 10
3.2053590865
 20
3.5954495537
 30
0.0
 11
2.3510283779
 21
3.5954495537
 31
0.0
 70
   160
 71
     2
 42
-1.0
  3
SLDDIMSTYLE0
100
AcDbAlignedDimension
 13
1.4966976692
 23
3.056079475
 33
0.0
 14
3.2053590865
 24
3.056079475
 34
0.0
 50
0.0
100
AcDbRotatedDimension
  0
DIMENSION
  5
C2
330
1F
100
AcDbEntity
  8
0
  6
Continuous
 62
     7
 48
0.5
370
     0
100
AcDbDimension
  2
*D6
 10
2.6758315275
 20
1.5718275065
 30
0.0
 11
2.3510283779
 21
1.5718275065
 31
0.0
 70
   160
 71
     2
 42
-1.0
  3
SLDDIMSTYLE0
100
AcDbAlignedDimension
 13
2.0262252283
 23
2.5836385301
 33
0.0
 14
2.6758315275
 24
2.5836385301
 34
0.0
100
AcDbRotatedDimension
  0
DIMENSION
  5
D4
330
1F
100
AcDbEntity
  8
0
  6
Continuous
 62
     7
 48
0.5
370
     0
100
AcDbDimension
  2
*D7
 10
1.5636268031
 20
1.835607034
 30
0.0
 11
1.0055945237
 21
1.5394659077
 31
0.0
 70
   164
  1
<> (4x)
 71
     1
 42
-1.0
  3
SLDDIMSTYLE1
100
AcDbRadialDimension
 15
1.7584246269
 25
2.0305530772
 35
0.0
 40
0.0
  0
DIMENSION
  5
E6
330
1F
100
AcDbEntity
  8
0
  6
Continuous
 62
     7
 48
0.5
370
     0
100
AcDbDimension
  2
*D8
 10
2.0901934132
 20
2.5580464256
 30
0.0
 11
1.1099274762
 21
2.8259318275
 31
0.0
 70
   163
  1
<> (2x)
 71
     1
 42
-1.0
  3
SLDDIMSTYLE2
100
AcDbDiametricDimension
 15
1.9622570434
 25
2.6092306346
 35
0.0
 40
0.0
  0
DIMENSION
  5
F8
330
1F
100
AcDbEntity
  8
0
  6
Continuous
 62
     7
 48
0.5
370
     0
100
AcDbDimension
  2
*D9
 10
3.4549222071
 20
1.7686779002
 30
0.0
 11
3.4549222071
 21
2.5836385301
 31
0.0
 70
   160
 71
     2
 42
-1.0
  3
SLDDIMSTYLE0
100
AcDbAlignedDimension
 13
2.8628394015
 23
3.39859916
 33
0.0
 14
2.8628394015
 24
1.7686779002
 34
0.0
 50
90.0
100
AcDbRotatedDimension
  0
DIMENSION
  5
10A
330
1F
100
AcDbEntity
  8
0
  6
Continuous
 62
     7
 48
0.5
370
     0
100
AcDbDimension
  2
*D10
 10
1.4966976692
 20
1.4081634001
 30
0.0
 11
1.6679575117
 21
1.4081634001
 31
0.0
 70
   160
  1
<>\PTYP.
 71
     2
 42
-1.0
  3
SLDDIMSTYLE3
100
AcDbAlignedDimension
 13
1.8392173543
 23
1.7686779002
 33
0.0
 14
1.4966976692
 24
2.1111975852
 34
0.0
 50
0.0
100
AcDbRotatedDimension
  0
DIMENSION
  5
11E
330
1F
100
AcDbEntity
  8
0
  6
Continuous
 62
     7
 48
0.5
370
     0
100
AcDbDimension
  2
*D11
 10
1.2577827272
 20
1.7686779002
 30
0.0
 11
1.2577827272
 21
1.9399377427
 31
0.0
 70
   160
  1
<> TYP.
 71
     2
 42
-1.0
  3
SLDDIMSTYLE3
100
AcDbAlignedDimension
 13
1.4966976692
 23
2.1111975852
 33
0.0
 14
1.8392173543
 24
1.7686779002
 34
0.0
 50
90.0
100
AcDbRotatedDimension
  0
DIMENSION
  5
131
330
1F
100
AcDbEntity
  8
0
  6
Continuous
 62
     7
 48
0.5
370
     0
100
AcDbDimension
  2
*D12
 10
1.5276976692
 20
3.025079475
 30
0.0
 11
1.0443942336
 21
3.2209326124
 31
0.0
 70
   164
  1
<> (8x)
 71
     1
 42
-1.0
  3
SLDDIMSTYLE4
100
AcDbRadialDimension
 15
1.5057846288
 25
3.0470070526
 35
0.0
 40
0.0
  0
LINE
  5
143
330
1F
100
AcDbEntity
  8
0
  6
Continuous
 62
     7
 48
0.5
370
    15
100
AcDbLine
 10
3.8134422568
 20
2.1111975811
 30
0.0
 11
3.7543871382
 21
2.1111975811
 31
0.0
  0
LINE
  5
144
330
1F
100
AcDbEntity
  8
0
  6
Continuous
 62
     7
 48
0.5
370
    15
100
AcDbLine
 10
3.7543871382
 20
2.1111975811
 30
0.0
 11
3.7543871382
 21
2.1421975696
 31
0.0
  0
LINE
  5
145
330
1F
100
AcDbEntity
  8
0
  6
Continuous
 62
     7
 48
0.5
370
    15
100
AcDbLine
 10
3.8134422568
 20
2.1421975696
 30
0.0
 11
3.8134422568
 21
2.1111975811
 31
0.0
  0
LINE
  5
146
330
1F
100
AcDbEntity
  8
0
  6
Continuous
 62
     7
 48
0.5
370
    15
100
AcDbLine
 10
3.7543871382
 20
2.1421975696
 30
0.0
 11
3.7543871382
 21
3.0250794905
 31
0.0
  0
LINE
  5
147
330
1F
100
AcDbEntity
  8
0
  6
Continuous
 62
     7
 48
0.5
370
    15
100
AcDbLine
 10
3.8134422568
 20
2.1421975696
 30
0.0
 11
3.8134422568
 21
3.0250794905
 31
0.0
  0
LINE
  5
148
330
1F
100
AcDbEntity
  8
0
  6
Continuous
 62
     7
 48
0.5
370
    15
100
AcDbLine
 10
3.7543871382
 20
3.0250794905
 30
0.0
 11
3.7543871382
 21
3.0560794791
 31
0.0
  0
LINE
  5
149
330
1F
100
AcDbEntity
  8
0
  6
Continuous
 62
     7
 48
0.5
370
    15
100
AcDbLine
 10
3.7543871382
 20
3.0560794791
 30
0.0
 11
3.8134422568
 21
3.0560794791
 31
0.0
  0
LINE
  5
14A
330
1F
100
AcDbEntity
  8
0
  6
Continuous
 62
     7
 48
0.5
370
    15
100
AcDbLine
 10
3.8134422568
 20
3.0560794791
 30
0.0
 11
3.8134422568
 21
3.0250794905
 31
0.0
  0
LINE
  5
14B
330
1F
100
AcDbEntity
  8
0
  6
Continuous
 62
     7
 48
0.5
370
    15
100
AcDbLine
 10
3.7543871382
 20
3.0560794791
 30
0.0
 11
3.7543871382
 21
3.3316700021
 31
0.0
  0
LINE
  5
14C
330
1F
100
AcDbEntity
  8
0
  6
Continuous
 62
     7
 48
0.5
370
    15
100
AcDbLine
 10
3.8134422568
 20
3.0560794791
 30
0.0
 11
3.8134422568
 21
3.3316700021
 31
0.0
  0
LINE
  5
14D
330
1F
100
AcDbEntity
  8
0
  6
Continuous
 62
     7
 48
0.5
370
    15
100
AcDbLine
 10
3.7543871382
 20
1.8356070581
 30
0.0
 11
3.7543871382
 21
2.1111975811
 31
0.0
  0
LINE
  5
14E
330
1F
100
AcDbEntity
  8
0
  6
Continuous
 62
     7
 48
0.5
370
    15
100
AcDbLine
 10
3.8134422568
 20
1.8356070581
 30
0.0
 11
3.8134422568
 21
2.1111975811
 31
0.0
  0
LINE
  5
14F
330
1F
100
AcDbEntity
  8
0
  6
Continuous
 62
     7
 48
0.5
370
    15
100
AcDbLine
 10
3.7543871382
 20
1.7996778798
 30
0.0
 11
3.7543871382
 21
1.8356070581
 31
0.0
  0
LINE
  5
150
330
1F
100
AcDbEntity
  8
0
  6
Continuous
 62
     7
 48
0.5
370
    15
100
AcDbLine
 10
3.8134422568
 20
1.7996778798
 30
0.0
 11
3.8134422568
 21
1.8356070581
 31
0.0
  0
LINE
  5
151
330
1F
100
AcDbEntity
  8
0
  6
Continuous
 62
     7
 48
0.5
370
    15
100
AcDbLine
 10
3.7543871382
 20
3.3316700021
 30
0.0
 11
3.7543871382
 21
3.3675991804
 31
0.0
  0
LINE
  5
152
330
1F
100
AcDbEntity
  8
0
  6
Continuous
 62
     7
 48
0.5
370
    15
100
AcDbLine
 10
3.8134422568
 20
3.3316700021
 30
0.0
 11
3.8134422568
 21
3.3675991804
 31
0.0
  0
LINE
  5
153
330
1F
100
AcDbEntity
  8
0
  6
Continuous
 62
     7
 48
0.5
370
    15
100
AcDbLine
 10
3.7543871382
 20
3.3985991689
 30
0.0
 11
3.8134422568
 21
3.3985991689
 31
0.0
  0
LINE
  5
154
330
1F
100
AcDbEntity
  8
0
  6
Continuous
 62
     7
 48
0.5
370
    15
100
AcDbLine
 10
3.7543871382
 20
3.3675991804
 30
0.0
 11
3.7543871382
 21
3.3985991689
 31
0.0
  0
LINE
  5
155
330
1F
100
AcDbEntity
  8
0
  6
Continuous
 62
     7
 48
0.5
370
    15
100
AcDbLine
 10
3.8134422568
 20
3.3985991689
 30
0.0
 11
3.8134422568
 21
3.3675991804
 31
0.0
  0
LINE
  5
156
330
1F
100
AcDbEntity
  8
0
  6
Continuous
 62
     7
 48
0.5
370
    15
100
AcDbLine
 10
3.8134422568
 20
1.7686778912
 30
0.0
 11
3.7543871382
 21
1.7686778912
 31
0.0
  0
LINE
  5
157
330
1F
100
AcDbEntity
  8
0
  6
Continuous
 62
     7
 48
0.5
370
    15
100
AcDbLine
 10
3.7543871382
 20
1.7686778912
 30
0.0
 11
3.7543871382
 21
1.7996778798
 31
0.0
  0
LINE
  5
158
330
1F
100
AcDbEntity
  8
0
  6
Continuous
 62
     7
 48
0.5
370
    15
100
AcDbLine
 10
3.8134422568
 20
1.7996778798
 30
0.0
 11
3.8134422568
 21
1.7686778912
 31
0.0
  0
ENDSEC
  0
SECTION
  2
OBJECTS
  0
DICTIONARY
  5
C
330
0
100
AcDbDictionary
281
     1
  3
ACAD_GROUP
350
D
  3
ACAD_LAYOUT
350
1A
  3
ACAD_MATERIAL
350
3B
  3
ACAD_MLEADERSTYLE
350
15B
  3
ACAD_MLINESTYLE
350
17
  3
ACAD_PLOTSETTINGS
350
19
  3
ACAD_PLOTSTYLENAME
350
E
  3
ACAD_SCALELIST
350
56
  3
ACAD_VISUALSTYLE
350
2A
  3
AcDbVariableDictionary
350
159
  0
DICTIONARY
  5
D
102
{ACAD_REACTORS
330
C
102
}
330
C
100
AcDbDictionary
281
     1
  0
DICTIONARY
  5
1A
102
{ACAD_REACTORS
330
C
102
}
330
C
100
AcDbDictionary
281
     1
  3
Layout1
350
1E
  3
Layout2
350
26
  3
Model
350
22
  0
DICTIONARY
  5
3B
102
{ACAD_REACTORS
330
C
102
}
330
C
100
AcDbDictionary
281
     1
  3
ByBlock
350
3D
  3
ByLayer
350
3C
  3
Global
350
3E
  0
DICTIONARY
  5
15B
102
{ACAD_REACTORS
330
C
102
}
330
C
100
AcDbDictionary
281
     1
  0
DICTIONARY
  5
17
102
{ACAD_REACTORS
330
C
102
}
330
C
100
AcDbDictionary
281
     1
  3
Standard
350
18
  0
DICTIONARY
  5
19
102
{ACAD_REACTORS
330
C
102
}
330
C
100
AcDbDictionary
281
     1
  0
ACDBDICTIONARYWDFLT
  5
E
102
{ACAD_REACTORS
330
C
102
}
330
C
100
AcDbDictionary
281
     1
  3
Normal
350
F
100
AcDbDictionaryWithDefault
340
F
  0
DICTIONARY
  5
56
102
{ACAD_REACTORS
330
C
102
}
330
C
100
AcDbDictionary
281
     1
  3
A0
350
57
  3
A1
350
58
  3
A2
350
59
  3
A3
350
5A
  3
A4
350
5B
  3
A5
350
5C
  3
A6
350
5D
  3
A7
350
5E
  3
A8
350
5F
  3
A9
350
60
  3
B0
350
61
  3
B1
350
62
  3
B2
350
63
  3
B3
350
64
  3
B4
350
65
  3
B5
350
66
  3
B6
350
67
  3
B7
350
68
  3
B8
350
69
  3
B9
350
6A
  3
C0
350
6B
  3
C1
350
6C
  3
C2
350
6D
  3
C3
350
6E
  3
C4
350
6F
  3
C5
350
70
  3
C6
350
71
  3
C7
350
72
  3
C8
350
73
  3
C9
350
74
  3
D0
350
75
  3
D1
350
76
  3
D2
350
77
  0
DICTIONARY
  5
2A
102
{ACAD_REACTORS
330
C
102
}
330
C
100
AcDbDictionary
281
     1
  3
2dWireframe
350
2F
  3
3D Hidden
350
31
  3
3dWireframe
350
30
  3
Basic
350
32
  3
Brighten
350
36
  3
ColorChange
350
3A
  3
Conceptual
350
34
  3
Dim
350
35
  3
Facepattern
350
39
  3
Flat
350
2B
  3
FlatWithEdges
350
2C
  3
Gouraud
350
2D
  3
GouraudWithEdges
350
2E
  3
Linepattern
350
38
  3
Realistic
350
33
  3
Thicken
350
37
  0
DICTIONARY
  5
159
102
{ACAD_REACTORS
330
C
102
}
330
C
100
AcDbDictionary
281
     1
  3
CANNOSCALE
350
15C
  3
DIMASSOC
350
15D
  3
HIDETEXT
350
15E
  0
LAYOUT
  5
1E
102
{ACAD_REACTORS
330
1A
102
}
330
1A
100
AcDbPlotSettings
  1

  2
none_device
  4

  6

 40
0.0
 41
0.0
 42
0.0
 43
0.0
 44
0.0
 45
0.0
 46
0.0
 47
0.0
 48
0.0
 49
0.0
140
0.0
141
0.0
142
1.0
143
1.0
 70
   688
 72
     0
 73
     0
 74
     5
  7

 75
    16
147
1.0
148
0.0
149
0.0
100
AcDbLayout
  1
Layout1
 70
     1
 71
     1
 10
0.0
 20
0.0
 11
12.0
 21
9.0
 12
0.0
 22
0.0
 32
0.0
 14
1.0000000000E+20
 24
1.0000000000E+20
 34
1.0000000000E+20
 15
-1.0000000000E+20
 25
-1.0000000000E+20
 35
-1.0000000000E+20
146
0.0
 13
0.0
 23
0.0
 33
0.0
 16
1.0
 26
0.0
 36
0.0
 17
0.0
 27
1.0
 37
0.0
 76
     0
330
1B
  0
LAYOUT
  5
26
102
{ACAD_REACTORS
330
1A
102
}
330
1A
100
AcDbPlotSettings
  1

  2
none_device
  4

  6

 40
0.0
 41
0.0
 42
0.0
 43
0.0
 44
0.0
 45
0.0
 46
0.0
 47
0.0
 48
0.0
 49
0.0
140
0.0
141
0.0
142
1.0
143
1.0
 70
   688
 72
     0
 73
     0
 74
     5
  7

 75
    16
147
1.0
148
0.0
149
0.0
100
AcDbLayout
  1
Layout2
 70
     1
 71
     2
 10
0.0
 20
0.0
 11
0.0
 21
0.0
 12
0.0
 22
0.0
 32
0.0
 14
0.0
 24
0.0
 34
0.0
 15
0.0
 25
0.0
 35
0.0
146
0.0
 13
0.0
 23
0.0
 33
0.0
 16
1.0
 26
0.0
 36
0.0
 17
0.0
 27
1.0
 37
0.0
 76
     0
330
23
  0
LAYOUT
  5
22
102
{ACAD_REACTORS
330
1A
102
}
330
1A
100
AcDbPlotSettings
  1

  2
none_device
  4

  6

 40
0.0
 41
0.0
 42
0.0
 43
0.0
 44
0.0
 45
0.0
 46
0.0
 47
0.0
 48
0.0
 49
0.0
140
0.0
141
0.0
142
1.0
143
1.0
 70
  1712
 72
     0
 73
     0
 74
     0
  7

 75
     0
147
1.0
148
0.0
149
0.0
100
AcDbLayout
  1
Model
 70
     1
 71
     0
 10
0.0
 20
0.0
 11
5.5
 21
4.25
 12
0.0
 22
0.0
 32
0.0
 14
0.0
 24
0.0
 34
0.0
 15
5.5
 25
4.25
 35
0.0
146
0.0
 13
0.0
 23
0.0
 33
0.0
 16
1.0
 26
0.0
 36
0.0
 17
0.0
 27
1.0
 37
0.0
 76
     0
330
1F
331
29
  0
MATERIAL
  5
3D
102
{ACAD_REACTORS
330
3B
102
}
102
{ACAD_XDICTIONARY
360
181
102
}
330
3B
100
AcDbMaterial
  1
ByBlock
  0
MATERIAL
  5
3C
102
{ACAD_REACTORS
330
3B
102
}
102
{ACAD_XDICTIONARY
360
17F
102
}
330
3B
100
AcDbMaterial
  1
ByLayer
  0
MATERIAL
  5
3E
102
{ACAD_REACTORS
330
3B
102
}
102
{ACAD_XDICTIONARY
360
183
102
}
330
3B
100
AcDbMaterial
  1
Global
  0
MLINESTYLE
  5
18
102
{ACAD_REACTORS
330
17
102
}
330
17
100
AcDbMlineStyle
  2
Standard
 70
     0
  3

 62
   256
 51
90.0
 52
90.0
 71
     2
 49
0.5
 62
   256
  6
BYLAYER
 49
-0.5
 62
   256
  6
BYLAYER
  0
ACDBPLACEHOLDER
  5
F
102
{ACAD_REACTORS
330
E
102
}
330
E
  0
SCALE
  5
57
102
{ACAD_REACTORS
330
56
102
}
330
56
100
AcDbScale
 70
     0
300
1:1
140
1.0
141
1.0
290
     1
  0
SCALE
  5
58
102
{ACAD_REACTORS
330
56
102
}
330
56
100
AcDbScale
 70
     0
300
1:2
140
1.0
141
2.0
290
     0
  0
SCALE
  5
59
102
{ACAD_REACTORS
330
56
102
}
330
56
100
AcDbScale
 70
     0
300
1:4
140
1.0
141
4.0
290
     0
  0
SCALE
  5
5A
102
{ACAD_REACTORS
330
56
102
}
330
56
100
AcDbScale
 70
     0
300
1:5
140
1.0
141
5.0
290
     0
  0
SCALE
  5
5B
102
{ACAD_REACTORS
330
56
102
}
330
56
100
AcDbScale
 70
     0
300
1:8
140
1.0
141
8.0
290
     0
  0
SCALE
  5
5C
102
{ACAD_REACTORS
330
56
102
}
330
56
100
AcDbScale
 70
     0
300
1:10
140
1.0
141
10.0
290
     0
  0
SCALE
  5
5D
102
{ACAD_REACTORS
330
56
102
}
330
56
100
AcDbScale
 70
     0
300
1:16
140
1.0
141
16.0
290
     0
  0
SCALE
  5
5E
102
{ACAD_REACTORS
330
56
102
}
330
56
100
AcDbScale
 70
     0
300
1:20
140
1.0
141
20.0
290
     0
  0
SCALE
  5
5F
102
{ACAD_REACTORS
330
56
102
}
330
56
100
AcDbScale
 70
     0
300
1:30
140
1.0
141
30.0
290
     0
  0
SCALE
  5
60
102
{ACAD_REACTORS
330
56
102
}
330
56
100
AcDbScale
 70
     0
300
1:40
140
1.0
141
40.0
290
     0
  0
SCALE
  5
61
102
{ACAD_REACTORS
330
56
102
}
330
56
100
AcDbScale
 70
     0
300
1:50
140
1.0
141
50.0
290
     0
  0
SCALE
  5
62
102
{ACAD_REACTORS
330
56
102
}
330
56
100
AcDbScale
 70
     0
300
1:100
140
1.0
141
100.0
290
     0
  0
SCALE
  5
63
102
{ACAD_REACTORS
330
56
102
}
330
56
100
AcDbScale
 70
     0
300
2:1
140
2.0
141
1.0
290
     0
  0
SCALE
  5
64
102
{ACAD_REACTORS
330
56
102
}
330
56
100
AcDbScale
 70
     0
300
4:1
140
4.0
141
1.0
290
     0
  0
SCALE
  5
65
102
{ACAD_REACTORS
330
56
102
}
330
56
100
AcDbScale
 70
     0
300
8:1
140
8.0
141
1.0
290
     0
  0
SCALE
  5
66
102
{ACAD_REACTORS
330
56
102
}
330
56
100
AcDbScale
 70
     0
300
10:1
140
10.0
141
1.0
290
     0
  0
SCALE
  5
67
102
{ACAD_REACTORS
330
56
102
}
330
56
100
AcDbScale
 70
     0
300
100:1
140
100.0
141
1.0
290
     0
  0
SCALE
  5
68
102
{ACAD_REACTORS
330
56
102
}
330
56
100
AcDbScale
 70
     0
300
1/128" = 1'-0"
140
0.0078125
141
12.0
290
     0
  0
SCALE
  5
69
102
{ACAD_REACTORS
330
56
102
}
330
56
100
AcDbScale
 70
     0
300
1/64" = 1'-0"
140
0.015625
141
12.0
290
     0
  0
SCALE
  5
6A
102
{ACAD_REACTORS
330
56
102
}
330
56
100
AcDbScale
 70
     0
300
1/32" = 1'-0"
140
0.03125
141
12.0
290
     0
  0
SCALE
  5
6B
102
{ACAD_REACTORS
330
56
102
}
330
56
100
AcDbScale
 70
     0
300
1/16" = 1'-0"
140
0.0625
141
12.0
290
     0
  0
SCALE
  5
6C
102
{ACAD_REACTORS
330
56
102
}
330
56
100
AcDbScale
 70
     0
300
3/32" = 1'-0"
140
0.09375
141
12.0
290
     0
  0
SCALE
  5
6D
102
{ACAD_REACTORS
330
56
102
}
330
56
100
AcDbScale
 70
     0
300
1/8" = 1'-0"
140
0.125
141
12.0
290
     0
  0
SCALE
  5
6E
102
{ACAD_REACTORS
330
56
102
}
330
56
100
AcDbScale
 70
     0
300
3/16" = 1'-0"
140
0.1875
141
12.0
290
     0
  0
SCALE
  5
6F
102
{ACAD_REACTORS
330
56
102
}
330
56
100
AcDbScale
 70
     0
300
1/4" = 1'-0"
140
0.25
141
12.0
290
     0
  0
SCALE
  5
70
102
{ACAD_REACTORS
330
56
102
}
330
56
100
AcDbScale
 70
     0
300
3/8" = 1'-0"
140
0.375
141
12.0
290
     0
  0
SCALE
  5
71
102
{ACAD_REACTORS
330
56
102
}
330
56
100
AcDbScale
 70
     0
300
1/2" = 1'-0"
140
0.5
141
12.0
290
     0
  0
SCALE
  5
72
102
{ACAD_REACTORS
330
56
102
}
330
56
100
AcDbScale
 70
     0
300
3/4" = 1'-0"
140
0.75
141
12.0
290
     0
  0
SCALE
  5
73
102
{ACAD_REACTORS
330
56
102
}
330
56
100
AcDbScale
 70
     0
300
1" = 1'-0"
140
1.0
141
12.0
290
     0
  0
SCALE
  5
74
102
{ACAD_REACTORS
330
56
102
}
330
56
100
AcDbScale
 70
     0
300
1-1/2" = 1'-0"
140
1.5
141
12.0
290
     0
  0
SCALE
  5
75
102
{ACAD_REACTORS
330
56
102
}
330
56
100
AcDbScale
 70
     0
300
3" = 1'-0"
140
3.0
141
12.0
290
     0
  0
SCALE
  5
76
102
{ACAD_REACTORS
330
56
102
}
330
56
100
AcDbScale
 70
     0
300
6" = 1'-0"
140
6.0
141
12.0
290
     0
  0
SCALE
  5
77
102
{ACAD_REACTORS
330
56
102
}
330
56
100
AcDbScale
 70
     0
300
1'-0" = 1'-0"
140
12.0
141
12.0
290
     0
  0
VISUALSTYLE
  5
2F
102
{ACAD_REACTORS
330
2A
102
}
102
{ACAD_XDICTIONARY
360
167
102
}
330
2A
100
AcDbVisualStyle
  2
2dWireframe
 70
     4
 71
     0
 72
     2
 73
     0
 90
        0
 40
-0.6
 41
-30.0
 62
     5
 63
     7
 74
     1
 91
        4
 64
     7
 65
   257
 75
     1
175
     1
 42
1.0
 92
        0
 66
   257
 43
1.0
 76
     1
 77
     6
 78
     2
 67
     7
 79
     5
170
     0
171
     0
290
     0
174
     0
 93
        1
 44
0.0
173
     0
291
     0
 45
0.0
1001
ACAD
1000
AcDbSavedByObjectVersion
1070
     0
  0
VISUALSTYLE
  5
31
102
{ACAD_REACTORS
330
2A
102
}
102
{ACAD_XDICTIONARY
360
16B
102
}
330
2A
100
AcDbVisualStyle
  2
3D Hidden
 70
     6
 71
     1
 72
     2
 73
     2
 90
        0
 40
-0.6
 41
-30.0
 62
     5
 63
     7
 74
     2
 91
        2
 64
     7
 65
   257
 75
     2
175
     1
 42
40.0
 92
        0
 66
   257
 43
1.0
 76
     1
 77
     6
 78
     2
 67
     7
 79
     3
170
     0
171
     0
290
     0
174
     0
 93
        1
 44
0.0
173
     0
291
     0
 45
0.0
1001
ACAD
1000
AcDbSavedByObjectVersion
1070
     0
  0
VISUALSTYLE
  5
30
102
{ACAD_REACTORS
330
2A
102
}
102
{ACAD_XDICTIONARY
360
169
102
}
330
2A
100
AcDbVisualStyle
  2
3dWireframe
 70
     5
 71
     0
 72
     2
 73
     0
 90
        0
 40
-0.6
 41
-30.0
 62
     5
 63
     7
 74
     1
 91
        4
 64
     7
 65
   257
 75
     1
175
     1
 42
1.0
 92
        0
 66
   257
 43
1.0
 76
     1
 77
     6
 78
     2
 67
     7
 79
     5
170
     0
171
     0
290
     0
174
     0
 93
        1
 44
0.0
173
     0
291
     0
 45
0.0
1001
ACAD
1000
AcDbSavedByObjectVersion
1070
     0
  0
VISUALSTYLE
  5
32
102
{ACAD_REACTORS
330
2A
102
}
102
{ACAD_XDICTIONARY
360
16D
102
}
330
2A
100
AcDbVisualStyle
  2
Basic
 70
     7
 71
     1
 72
     0
 73
     1
 90
        0
 40
-0.6
 41
-30.0
 62
     5
 63
     7
 74
     0
 91
        4
 64
     7
 65
   257
 75
     1
175
     1
 42
1.0
 92
        8
 66
     7
 43
1.0
 76
     1
 77
     6
 78
     2
 67
     7
 79
     5
170
     0
171
     0
290
     0
174
     0
 93
        1
 44
0.0
173
     0
291
     1
 45
0.0
1001
ACAD
1000
AcDbSavedByObjectVersion
1070
     0
  0
VISUALSTYLE
  5
36
102
{ACAD_REACTORS
330
2A
102
}
102
{ACAD_XDICTIONARY
360
175
102
}
330
2A
100
AcDbVisualStyle
  2
Brighten
 70
    12
 71
     2
 72
     2
 73
     0
 90
        0
 40
-0.6
 41
-30.0
 62
     5
 63
     7
 74
     1
 91
        4
 64
     7
 65
   257
 75
     1
175
     1
 42
1.0
 92
        8
 66
     7
 43
1.0
 76
     1
 77
     6
 78
     2
 67
     7
 79
     5
170
     0
171
     0
290
     0
174
     0
 93
        1
 44
50.0
173
     0
291
     1
 45
0.0
1001
ACAD
1000
AcDbSavedByObjectVersion
1070
     0
  0
VISUALSTYLE
  5
3A
102
{ACAD_REACTORS
330
2A
102
}
102
{ACAD_XDICTIONARY
360
17D
102
}
330
2A
100
AcDbVisualStyle
  2
ColorChange
 70
    16
 71
     2
 72
     2
 73
     3
 90
        0
 40
-0.6
 41
-30.0
 62
     5
 63
     8
 74
     1
 91
        4
 64
     7
 65
   257
 75
     1
175
     1
 42
1.0
 92
        8
 66
     8
 43
1.0
 76
     1
 77
     6
 78
     2
 67
     7
 79
     5
170
     0
171
     0
290
     0
174
     0
 93
        1
 44
0.0
173
     0
291
     1
 45
0.0
1001
ACAD
1000
AcDbSavedByObjectVersion
1070
     0
  0
VISUALSTYLE
  5
34
102
{ACAD_REACTORS
330
2A
102
}
102
{ACAD_XDICTIONARY
360
171
102
}
330
2A
100
AcDbVisualStyle
  2
Conceptual
 70
     9
 71
     3
 72
     2
 73
     0
 90
        0
 40
-0.6
 41
-30.0
 62
     5
 63
     7
 74
     2
 91
        2
 64
     7
 65
   257
 75
     1
175
     1
 42
40.0
 92
        8
 66
     7
 43
1.0
 76
     1
 77
     6
 78
     2
 67
     7
 79
     3
170
     0
171
     0
290
     0
174
     0
 93
        1
 44
0.0
173
     0
291
     0
 45
0.0
1001
ACAD
1000
AcDbSavedByObjectVersion
1070
     0
  0
VISUALSTYLE
  5
35
102
{ACAD_REACTORS
330
2A
102
}
102
{ACAD_XDICTIONARY
360
173
102
}
330
2A
100
AcDbVisualStyle
  2
Dim
 70
    11
 71
     2
 72
     2
 73
     0
 90
        0
 40
-0.6
 41
-30.0
 62
     5
 63
     7
 74
     1
 91
        4
 64
     7
 65
   257
 75
     1
175
     1
 42
1.0
 92
        8
 66
     7
 43
1.0
 76
     1
 77
     6
 78
     2
 67
     7
 79
     5
170
     0
171
     0
290
     0
174
     0
 93
        1
 44
-50.0
173
     0
291
     1
 45
0.0
1001
ACAD
1000
AcDbSavedByObjectVersion
1070
     0
  0
VISUALSTYLE
  5
39
102
{ACAD_REACTORS
330
2A
102
}
102
{ACAD_XDICTIONARY
360
17B
102
}
330
2A
100
AcDbVisualStyle
  2
Facepattern
 70
    15
 71
     2
 72
     2
 73
     0
 90
        0
 40
-0.6
 41
-30.0
 62
     5
 63
     7
 74
     1
 91
        4
 64
     7
 65
   257
 75
     1
175
     1
 42
1.0
 92
        8
 66
     7
 43
1.0
 76
     1
 77
     6
 78
     2
 67
     7
 79
     5
170
     0
171
     0
290
     0
174
     0
 93
        1
 44
0.0
173
     0
291
     1
 45
0.0
1001
ACAD
1000
AcDbSavedByObjectVersion
1070
     0
  0
VISUALSTYLE
  5
2B
102
{ACAD_REACTORS
330
2A
102
}
102
{ACAD_XDICTIONARY
360
15F
102
}
330
2A
100
AcDbVisualStyle
  2
Flat
 70
     0
 71
     2
 72
     1
 73
     1
 90
        2
 40
-0.6
 41
30.0
 62
     5
 63
     7
 74
     0
 91
        4
 64
     7
 65
   257
 75
     1
175
     1
 42
1.0
 92
        8
 66
     7
 43
1.0
 76
     1
 77
     6
 78
     2
 67
     7
 79
     5
170
     0
171
     0
290
     0
174
     0
 93
       13
 44
0.0
173
     0
291
     1
 45
0.0
1001
ACAD
1000
AcDbSavedByObjectVersion
1070
     0
  0
VISUALSTYLE
  5
2C
102
{ACAD_REACTORS
330
2A
102
}
102
{ACAD_XDICTIONARY
360
161
102
}
330
2A
100
AcDbVisualStyle
  2
FlatWithEdges
 70
     1
 71
     2
 72
     1
 73
     1
 90
        2
 40
-0.6
 41
30.0
 62
     5
 63
     7
 74
     1
 91
        4
 64
     7
 65
   257
 75
     1
175
     1
 42
1.0
 92
        0
 66
   257
 43
1.0
 76
     1
 77
     6
 78
     2
 67
     7
 79
     5
170
     0
171
     0
290
     0
174
     0
 93
       13
 44
0.0
173
     0
291
     1
 45
0.0
1001
ACAD
1000
AcDbSavedByObjectVersion
1070
     0
  0
VISUALSTYLE
  5
2D
102
{ACAD_REACTORS
330
2A
102
}
102
{ACAD_XDICTIONARY
360
163
102
}
330
2A
100
AcDbVisualStyle
  2
Gouraud
 70
     2
 71
     2
 72
     2
 73
     1
 90
        2
 40
-0.6
 41
30.0
 62
     5
 63
     7
 74
     0
 91
        4
 64
     7
 65
   257
 75
     1
175
     1
 42
1.0
 92
        0
 66
     7
 43
1.0
 76
     1
 77
     6
 78
     2
 67
     7
 79
     5
170
     0
171
     0
290
     0
174
     0
 93
       13
 44
0.0
173
     0
291
     1
 45
0.0
1001
ACAD
1000
AcDbSavedByObjectVersion
1070
     0
  0
VISUALSTYLE
  5
2E
102
{ACAD_REACTORS
330
2A
102
}
102
{ACAD_XDICTIONARY
360
165
102
}
330
2A
100
AcDbVisualStyle
  2
GouraudWithEdges
 70
     3
 71
     2
 72
     2
 73
     1
 90
        2
 40
-0.6
 41
30.0
 62
     5
 63
     7
 74
     1
 91
        4
 64
     7
 65
   257
 75
     1
175
     1
 42
1.0
 92
        0
 66
   257
 43
1.0
 76
     1
 77
     6
 78
     2
 67
     7
 79
     5
170
     0
171
     0
290
     0
174
     0
 93
       13
 44
0.0
173
     0
291
     1
 45
0.0
1001
ACAD
1000
AcDbSavedByObjectVersion
1070
     0
  0
VISUALSTYLE
  5
38
102
{ACAD_REACTORS
330
2A
102
}
102
{ACAD_XDICTIONARY
360
179
102
}
330
2A
100
AcDbVisualStyle
  2
Linepattern
 70
    14
 71
     2
 72
     2
 73
     0
 90
        0
 40
-0.6
 41
-30.0
 62
     5
 63
     7
 74
     1
 91
        4
 64
     7
 65
   257
 75
     7
175
     7
 42
1.0
 92
        8
 66
     7
 43
1.0
 76
     1
 77
     6
 78
     2
 67
     7
 79
     5
170
     0
171
     0
290
     0
174
     0
 93
        1
 44
0.0
173
     0
291
     1
 45
0.0
1001
ACAD
1000
AcDbSavedByObjectVersion
1070
     0
  0
VISUALSTYLE
  5
33
102
{ACAD_REACTORS
330
2A
102
}
102
{ACAD_XDICTIONARY
360
16F
102
}
330
2A
100
AcDbVisualStyle
  2
Realistic
 70
     8
 71
     2
 72
     2
 73
     0
 90
        0
 40
-0.6
 41
-30.0
 62
     5
 63
     7
 74
     1
 91
        0
 64
     7
 65
   257
 75
     1
175
     1
 42
1.0
 92
        8
 66
     8
 43
1.0
 76
     1
 77
     6
 78
     2
 67
     7
 79
     5
170
     0
171
     0
290
     0
174
     0
 93
       13
 44
0.0
173
     0
291
     0
 45
0.0
1001
ACAD
1000
AcDbSavedByObjectVersion
1070
     0
  0
VISUALSTYLE
  5
37
102
{ACAD_REACTORS
330
2A
102
}
102
{ACAD_XDICTIONARY
360
177
102
}
330
2A
100
AcDbVisualStyle
  2
Thicken
 70
    13
 71
     2
 72
     2
 73
     0
 90
        0
 40
-0.6
 41
-30.0
 62
     5
 63
     7
 74
     1
 91
        4
 64
     7
 65
   257
 75
     1
175
     1
 42
1.0
 92
       12
 66
     7
 43
1.0
 76
     1
 77
     6
 78
     2
 67
     7
 79
     5
170
     0
171
     0
290
     0
174
     0
 93
        1
 44
0.0
173
     0
291
     1
 45
0.0
1001
ACAD
1000
AcDbSavedByObjectVersion
1070
     0
  0
DICTIONARYVAR
  5
15C
102
{ACAD_REACTORS
330
159
102
}
330
159
100
DictionaryVariables
280
     0
  1
1:1
  0
DICTIONARYVAR
  5
15D
102
{ACAD_REACTORS
330
159
102
}
330
159
100
DictionaryVariables
280
     0
  1
2
  0
DICTIONARYVAR
  5
15E
102
{ACAD_REACTORS
330
159
102
}
330
159
100
DictionaryVariables
280
     0
  1
1
  0
DICTIONARY
  5
181
330
3D
100
AcDbDictionary
280
     1
281
     1
  3
ACAD_XREC_ROUNDTRIP
360
182
  0
DICTIONARY
  5
17F
330
3C
100
AcDbDictionary
280
     1
281
     1
  3
ACAD_XREC_ROUNDTRIP
360
180
  0
DICTIONARY
  5
183
330
3E
100
AcDbDictionary
280
     1
281
     1
  3
ACAD_XREC_ROUNDTRIP
360
184
  0
DICTIONARY
  5
167
330
2F
100
AcDbDictionary
280
     1
281
     1
  3
ACAD_XREC_ROUNDTRIP
360
168
  0
DICTIONARY
  5
16B
330
31
100
AcDbDictionary
280
     1
281
     1
  3
ACAD_XREC_ROUNDTRIP
360
16C
  0
DICTIONARY
  5
169
330
30
100
AcDbDictionary
280
     1
281
     1
  3
ACAD_XREC_ROUNDTRIP
360
16A
  0
DICTIONARY
  5
16D
330
32
100
AcDbDictionary
280
     1
281
     1
  3
ACAD_XREC_ROUNDTRIP
360
16E
  0
DICTIONARY
  5
175
330
36
100
AcDbDictionary
280
     1
281
     1
  3
ACAD_XREC_ROUNDTRIP
360
176
  0
DICTIONARY
  5
17D
330
3A
100
AcDbDictionary
280
     1
281
     1
  3
ACAD_XREC_ROUNDTRIP
360
17E
  0
DICTIONARY
  5
171
330
34
100
AcDbDictionary
280
     1
281
     1
  3
ACAD_XREC_ROUNDTRIP
360
172
  0
DICTIONARY
  5
173
330
35
100
AcDbDictionary
280
     1
281
     1
  3
ACAD_XREC_ROUNDTRIP
360
174
  0
DICTIONARY
  5
17B
330
39
100
AcDbDictionary
280
     1
281
     1
  3
ACAD_XREC_ROUNDTRIP
360
17C
  0
DICTIONARY
  5
15F
330
2B
100
AcDbDictionary
280
     1
281
     1
  3
ACAD_XREC_ROUNDTRIP
360
160
  0
DICTIONARY
  5
161
330
2C
100
AcDbDictionary
280
     1
281
     1
  3
ACAD_XREC_ROUNDTRIP
360
162
  0
DICTIONARY
  5
163
330
2D
100
AcDbDictionary
280
     1
281
     1
  3
ACAD_XREC_ROUNDTRIP
360
164
  0
DICTIONARY
  5
165
330
2E
100
AcDbDictionary
280
     1
281
     1
  3
ACAD_XREC_ROUNDTRIP
360
166
  0
DICTIONARY
  5
179
330
38
100
AcDbDictionary
280
     1
281
     1
  3
ACAD_XREC_ROUNDTRIP
360
17A
  0
DICTIONARY
  5
16F
330
33
100
AcDbDictionary
280
     1
281
     1
  3
ACAD_XREC_ROUNDTRIP
360
170
  0
DICTIONARY
  5
177
330
37
100
AcDbDictionary
280
     1
281
     1
  3
ACAD_XREC_ROUNDTRIP
360
178
  0
XRECORD
  5
182
102
{ACAD_REACTORS
330
181
102
}
330
181
100
AcDbXrecord
280
     1
102
MATERIAL
148
0.0
149
0.0
149
0.0
 93
        0
 94
      127
282
     0
 72
     1
 77
     1
171
     1
175
     1
179
     1
273
     0
  0
XRECORD
  5
180
102
{ACAD_REACTORS
330
17F
102
}
330
17F
100
AcDbXrecord
280
     1
102
MATERIAL
148
0.0
149
0.0
149
0.0
 93
        0
 94
      127
282
     0
 72
     1
 77
     1
171
     1
175
     1
179
     1
273
     0
  0
XRECORD
  5
184
102
{ACAD_REACTORS
330
183
102
}
330
183
100
AcDbXrecord
280
     1
102
MATERIAL
148
0.0
149
0.0
149
0.0
 93
        0
 94
      127
282
     0
 72
     1
 77
     1
171
     1
175
     1
179
     1
273
     0
  0
XRECORD
  5
168
102
{ACAD_REACTORS
330
167
102
}
330
167
100
AcDbXrecord
280
     1
102
RTVSPropertyOp0
 70
     1
102
RTVSPropertyOp1
 70
     1
102
RTVSPropertyOp2
 70
     1
102
RTVSPropertyOp3
 70
     1
102
RTVSPropertyOp4
 70
     1
102
RTVSPropertyOp5
 70
     1
102
RTVSPropertyOp6
 70
     1
102
RTVSPropertyOp7
 70
     1
102
RTVSPropertyOp8
 70
     1
102
RTVSPropertyOp9
 70
     1
102
RTVSPropertyOp10
 70
     1
102
RTVSPropertyOp11
 70
     1
102
RTVSPropertyOp12
 70
     1
102
RTVSPropertyOp13
 70
     1
102
RTVSPropertyOp14
 70
     1
102
RTVSPropertyOp15
 70
     1
102
RTVSPropertyOp16
 70
     1
102
RTVSPropertyOp17
 70
     1
102
RTVSPropertyOp18
 70
     1
102
RTVSPropertyOp19
 70
     1
102
RTVSPropertyOp20
 70
     1
102
RTVSPropertyOp21
 70
     1
102
RTVSPropertyOp22
 70
     1
102
RTVSPropertyOp23
 70
     1
102
RTVSPropertyOp24
 70
     1
102
RTVSPropertyOp25
 70
     1
102
RTVSPropertyOp26
 70
     1
102
RTVSPropertyOp27
 70
     1
  0
XRECORD
  5
16C
102
{ACAD_REACTORS
330
16B
102
}
330
16B
100
AcDbXrecord
280
     1
102
RTVSPropertyOp0
 70
     1
102
RTVSPropertyOp1
 70
     1
102
RTVSPropertyOp2
 70
     1
102
RTVSPropertyOp3
 70
     1
102
RTVSPropertyOp4
 70
     1
102
RTVSPropertyOp5
 70
     1
102
RTVSPropertyOp6
 70
     1
102
RTVSPropertyOp7
 70
     1
102
RTVSPropertyOp8
 70
     1
102
RTVSPropertyOp9
 70
     1
102
RTVSPropertyOp10
 70
     1
102
RTVSPropertyOp11
 70
     1
102
RTVSPropertyOp12
 70
     1
102
RTVSPropertyOp13
 70
     1
102
RTVSPropertyOp14
 70
     1
102
RTVSPropertyOp15
 70
     1
102
RTVSPropertyOp16
 70
     1
102
RTVSPropertyOp17
 70
     1
102
RTVSPropertyOp18
 70
     1
102
RTVSPropertyOp19
 70
     1
102
RTVSPropertyOp20
 70
     1
102
RTVSPropertyOp21
 70
     1
102
RTVSPropertyOp22
 70
     1
102
RTVSPropertyOp23
 70
     1
102
RTVSPropertyOp24
 70
     1
102
RTVSPropertyOp25
 70
     1
102
RTVSPropertyOp26
 70
     1
102
RTVSPropertyOp27
 70
     1
  0
XRECORD
  5
16A
102
{ACAD_REACTORS
330
169
102
}
330
169
100
AcDbXrecord
280
     1
102
RTVSPropertyOp0
 70
     1
102
RTVSPropertyOp1
 70
     1
102
RTVSPropertyOp2
 70
     1
102
RTVSPropertyOp3
 70
     1
102
RTVSPropertyOp4
 70
     1
102
RTVSPropertyOp5
 70
     1
102
RTVSPropertyOp6
 70
     1
102
RTVSPropertyOp7
 70
     1
102
RTVSPropertyOp8
 70
     1
102
RTVSPropertyOp9
 70
     1
102
RTVSPropertyOp10
 70
     1
102
RTVSPropertyOp11
 70
     1
102
RTVSPropertyOp12
 70
     1
102
RTVSPropertyOp13
 70
     1
102
RTVSPropertyOp14
 70
     1
102
RTVSPropertyOp15
 70
     1
102
RTVSPropertyOp16
 70
     1
102
RTVSPropertyOp17
 70
     1
102
RTVSPropertyOp18
 70
     1
102
RTVSPropertyOp19
 70
     1
102
RTVSPropertyOp20
 70
     1
102
RTVSPropertyOp21
 70
     1
102
RTVSPropertyOp22
 70
     1
102
RTVSPropertyOp23
 70
     1
102
RTVSPropertyOp24
 70
     1
102
RTVSPropertyOp25
 70
     1
102
RTVSPropertyOp26
 70
     1
102
RTVSPropertyOp27
 70
     1
  0
XRECORD
  5
16E
102
{ACAD_REACTORS
330
16D
102
}
330
16D
100
AcDbXrecord
280
     1
102
RTVSPropertyOp0
 70
     1
102
RTVSPropertyOp1
 70
     1
102
RTVSPropertyOp2
 70
     1
102
RTVSPropertyOp3
 70
     1
102
RTVSPropertyOp4
 70
     1
102
RTVSPropertyOp5
 70
     1
102
RTVSPropertyOp6
 70
     1
102
RTVSPropertyOp7
 70
     1
102
RTVSPropertyOp8
 70
     1
102
RTVSPropertyOp9
 70
     1
102
RTVSPropertyOp10
 70
     1
102
RTVSPropertyOp11
 70
     1
102
RTVSPropertyOp12
 70
     1
102
RTVSPropertyOp13
 70
     1
102
RTVSPropertyOp14
 70
     1
102
RTVSPropertyOp15
 70
     1
102
RTVSPropertyOp16
 70
     1
102
RTVSPropertyOp17
 70
     1
102
RTVSPropertyOp18
 70
     1
102
RTVSPropertyOp19
 70
     1
102
RTVSPropertyOp20
 70
     1
102
RTVSPropertyOp21
 70
     1
102
RTVSPropertyOp22
 70
     1
102
RTVSPropertyOp23
 70
     1
102
RTVSPropertyOp24
 70
     1
102
RTVSPropertyOp25
 70
     1
102
RTVSPropertyOp26
 70
     1
102
RTVSPropertyOp27
 70
     1
  0
XRECORD
  5
176
102
{ACAD_REACTORS
330
175
102
}
330
175
100
AcDbXrecord
280
     1
102
RTVSPropertyOp0
 70
     1
102
RTVSPropertyOp1
 70
     1
102
RTVSPropertyOp2
 70
     1
102
RTVSPropertyOp3
 70
     1
102
RTVSPropertyOp4
 70
     1
102
RTVSPropertyOp5
 70
     1
102
RTVSPropertyOp6
 70
     1
102
RTVSPropertyOp7
 70
     1
102
RTVSPropertyOp8
 70
     1
102
RTVSPropertyOp9
 70
     1
102
RTVSPropertyOp10
 70
     1
102
RTVSPropertyOp11
 70
     1
102
RTVSPropertyOp12
 70
     1
102
RTVSPropertyOp13
 70
     1
102
RTVSPropertyOp14
 70
     1
102
RTVSPropertyOp15
 70
     1
102
RTVSPropertyOp16
 70
     1
102
RTVSPropertyOp17
 70
     1
102
RTVSPropertyOp18
 70
     1
102
RTVSPropertyOp19
 70
     1
102
RTVSPropertyOp20
 70
     1
102
RTVSPropertyOp21
 70
     1
102
RTVSPropertyOp22
 70
     1
102
RTVSPropertyOp23
 70
     1
102
RTVSPropertyOp24
 70
     1
102
RTVSPropertyOp25
 70
     1
102
RTVSPropertyOp26
 70
     1
102
RTVSPropertyOp27
 70
     1
  0
XRECORD
  5
17E
102
{ACAD_REACTORS
330
17D
102
}
330
17D
100
AcDbXrecord
280
     1
102
RTVSPropertyOp0
 70
     1
102
RTVSPropertyOp1
 70
     1
102
RTVSPropertyOp2
 70
     1
102
RTVSPropertyOp3
 70
     1
102
RTVSPropertyOp4
 70
     1
102
RTVSPropertyOp5
 70
     1
102
RTVSPropertyOp6
 70
     1
102
RTVSPropertyOp7
 70
     1
102
RTVSPropertyOp8
 70
     1
102
RTVSPropertyOp9
 70
     1
102
RTVSPropertyOp10
 70
     1
102
RTVSPropertyOp11
 70
     1
102
RTVSPropertyOp12
 70
     1
102
RTVSPropertyOp13
 70
     1
102
RTVSPropertyOp14
 70
     1
102
RTVSPropertyOp15
 70
     1
102
RTVSPropertyOp16
 70
     1
102
RTVSPropertyOp17
 70
     1
102
RTVSPropertyOp18
 70
     1
102
RTVSPropertyOp19
 70
     1
102
RTVSPropertyOp20
 70
     1
102
RTVSPropertyOp21
 70
     1
102
RTVSPropertyOp22
 70
     1
102
RTVSPropertyOp23
 70
     1
102
RTVSPropertyOp24
 70
     1
102
RTVSPropertyOp25
 70
     1
102
RTVSPropertyOp26
 70
     1
102
RTVSPropertyOp27
 70
     1
  0
XRECORD
  5
172
102
{ACAD_REACTORS
330
171
102
}
330
171
100
AcDbXrecord
280
     1
102
RTVSPropertyOp0
 70
     1
102
RTVSPropertyOp1
 70
     1
102
RTVSPropertyOp2
 70
     1
102
RTVSPropertyOp3
 70
     1
102
RTVSPropertyOp4
 70
     1
102
RTVSPropertyOp5
 70
     1
102
RTVSPropertyOp6
 70
     1
102
RTVSPropertyOp7
 70
     1
102
RTVSPropertyOp8
 70
     1
102
RTVSPropertyOp9
 70
     1
102
RTVSPropertyOp10
 70
     1
102
RTVSPropertyOp11
 70
     1
102
RTVSPropertyOp12
 70
     1
102
RTVSPropertyOp13
 70
     1
102
RTVSPropertyOp14
 70
     1
102
RTVSPropertyOp15
 70
     1
102
RTVSPropertyOp16
 70
     1
102
RTVSPropertyOp17
 70
     1
102
RTVSPropertyOp18
 70
     1
102
RTVSPropertyOp19
 70
     1
102
RTVSPropertyOp20
 70
     1
102
RTVSPropertyOp21
 70
     1
102
RTVSPropertyOp22
 70
     1
102
RTVSPropertyOp23
 70
     1
102
RTVSPropertyOp24
 70
     1
102
RTVSPropertyOp25
 70
     1
102
RTVSPropertyOp26
 70
     1
102
RTVSPropertyOp27
 70
     1
  0
XRECORD
  5
174
102
{ACAD_REACTORS
330
173
102
}
330
173
100
AcDbXrecord
280
     1
102
RTVSPropertyOp0
 70
     1
102
RTVSPropertyOp1
 70
     1
102
RTVSPropertyOp2
 70
     1
102
RTVSPropertyOp3
 70
     1
102
RTVSPropertyOp4
 70
     1
102
RTVSPropertyOp5
 70
     1
102
RTVSPropertyOp6
 70
     1
102
RTVSPropertyOp7
 70
     1
102
RTVSPropertyOp8
 70
     1
102
RTVSPropertyOp9
 70
     1
102
RTVSPropertyOp10
 70
     1
102
RTVSPropertyOp11
 70
     1
102
RTVSPropertyOp12
 70
     1
102
RTVSPropertyOp13
 70
     1
102
RTVSPropertyOp14
 70
     1
102
RTVSPropertyOp15
 70
     1
102
RTVSPropertyOp16
 70
     1
102
RTVSPropertyOp17
 70
     1
102
RTVSPropertyOp18
 70
     1
102
RTVSPropertyOp19
 70
     1
102
RTVSPropertyOp20
 70
     1
102
RTVSPropertyOp21
 70
     1
102
RTVSPropertyOp22
 70
     1
102
RTVSPropertyOp23
 70
     1
102
RTVSPropertyOp24
 70
     1
102
RTVSPropertyOp25
 70
     1
102
RTVSPropertyOp26
 70
     1
102
RTVSPropertyOp27
 70
     1
  0
XRECORD
  5
17C
102
{ACAD_REACTORS
330
17B
102
}
330
17B
100
AcDbXrecord
280
     1
102
RTVSPropertyOp0
 70
     1
102
RTVSPropertyOp1
 70
     1
102
RTVSPropertyOp2
 70
     1
102
RTVSPropertyOp3
 70
     1
102
RTVSPropertyOp4
 70
     1
102
RTVSPropertyOp5
 70
     1
102
RTVSPropertyOp6
 70
     1
102
RTVSPropertyOp7
 70
     1
102
RTVSPropertyOp8
 70
     1
102
RTVSPropertyOp9
 70
     1
102
RTVSPropertyOp10
 70
     1
102
RTVSPropertyOp11
 70
     1
102
RTVSPropertyOp12
 70
     1
102
RTVSPropertyOp13
 70
     1
102
RTVSPropertyOp14
 70
     1
102
RTVSPropertyOp15
 70
     1
102
RTVSPropertyOp16
 70
     1
102
RTVSPropertyOp17
 70
     1
102
RTVSPropertyOp18
 70
     1
102
RTVSPropertyOp19
 70
     1
102
RTVSPropertyOp20
 70
     1
102
RTVSPropertyOp21
 70
     1
102
RTVSPropertyOp22
 70
     1
102
RTVSPropertyOp23
 70
     1
102
RTVSPropertyOp24
 70
     1
102
RTVSPropertyOp25
 70
     1
102
RTVSPropertyOp26
 70
     1
102
RTVSPropertyOp27
 70
     1
  0
XRECORD
  5
160
102
{ACAD_REACTORS
330
15F
102
}
330
15F
100
AcDbXrecord
280
     1
102
RTVSPropertyOp0
 70
     1
102
RTVSPropertyOp1
 70
     1
102
RTVSPropertyOp2
 70
     1
102
RTVSPropertyOp3
 70
     1
102
RTVSPropertyOp4
 70
     1
102
RTVSPropertyOp5
 70
     1
102
RTVSPropertyOp6
 70
     1
102
RTVSPropertyOp7
 70
     1
102
RTVSPropertyOp8
 70
     1
102
RTVSPropertyOp9
 70
     1
102
RTVSPropertyOp10
 70
     1
102
RTVSPropertyOp11
 70
     1
102
RTVSPropertyOp12
 70
     1
102
RTVSPropertyOp13
 70
     1
102
RTVSPropertyOp14
 70
     1
102
RTVSPropertyOp15
 70
     1
102
RTVSPropertyOp16
 70
     1
102
RTVSPropertyOp17
 70
     1
102
RTVSPropertyOp18
 70
     1
102
RTVSPropertyOp19
 70
     1
102
RTVSPropertyOp20
 70
     1
102
RTVSPropertyOp21
 70
     1
102
RTVSPropertyOp22
 70
     1
102
RTVSPropertyOp23
 70
     1
102
RTVSPropertyOp24
 70
     1
102
RTVSPropertyOp25
 70
     1
102
RTVSPropertyOp26
 70
     1
102
RTVSPropertyOp27
 70
     1
  0
XRECORD
  5
162
102
{ACAD_REACTORS
330
161
102
}
330
161
100
AcDbXrecord
280
     1
102
RTVSPropertyOp0
 70
     1
102
RTVSPropertyOp1
 70
     1
102
RTVSPropertyOp2
 70
     1
102
RTVSPropertyOp3
 70
     1
102
RTVSPropertyOp4
 70
     1
102
RTVSPropertyOp5
 70
     1
102
RTVSPropertyOp6
 70
     1
102
RTVSPropertyOp7
 70
     1
102
RTVSPropertyOp8
 70
     1
102
RTVSPropertyOp9
 70
     1
102
RTVSPropertyOp10
 70
     1
102
RTVSPropertyOp11
 70
     1
102
RTVSPropertyOp12
 70
     1
102
RTVSPropertyOp13
 70
     1
102
RTVSPropertyOp14
 70
     1
102
RTVSPropertyOp15
 70
     1
102
RTVSPropertyOp16
 70
     1
102
RTVSPropertyOp17
 70
     1
102
RTVSPropertyOp18
 70
     1
102
RTVSPropertyOp19
 70
     1
102
RTVSPropertyOp20
 70
     1
102
RTVSPropertyOp21
 70
     1
102
RTVSPropertyOp22
 70
     1
102
RTVSPropertyOp23
 70
     1
102
RTVSPropertyOp24
 70
     1
102
RTVSPropertyOp25
 70
     1
102
RTVSPropertyOp26
 70
     1
102
RTVSPropertyOp27
 70
     1
  0
XRECORD
  5
164
102
{ACAD_REACTORS
330
163
102
}
330
163
100
AcDbXrecord
280
     1
102
RTVSPropertyOp0
 70
     1
102
RTVSPropertyOp1
 70
     1
102
RTVSPropertyOp2
 70
     1
102
RTVSPropertyOp3
 70
     1
102
RTVSPropertyOp4
 70
     1
102
RTVSPropertyOp5
 70
     1
102
RTVSPropertyOp6
 70
     1
102
RTVSPropertyOp7
 70
     1
102
RTVSPropertyOp8
 70
     1
102
RTVSPropertyOp9
 70
     1
102
RTVSPropertyOp10
 70
     1
102
RTVSPropertyOp11
 70
     1
102
RTVSPropertyOp12
 70
     1
102
RTVSPropertyOp13
 70
     1
102
RTVSPropertyOp14
 70
     1
102
RTVSPropertyOp15
 70
     1
102
RTVSPropertyOp16
 70
     1
102
RTVSPropertyOp17
 70
     1
102
RTVSPropertyOp18
 70
     1
102
RTVSPropertyOp19
 70
     1
102
RTVSPropertyOp20
 70
     1
102
RTVSPropertyOp21
 70
     1
102
RTVSPropertyOp22
 70
     1
102
RTVSPropertyOp23
 70
     1
102
RTVSPropertyOp24
 70
     1
102
RTVSPropertyOp25
 70
     1
102
RTVSPropertyOp26
 70
     1
102
RTVSPropertyOp27
 70
     1
  0
XRECORD
  5
166
102
{ACAD_REACTORS
330
165
102
}
330
165
100
AcDbXrecord
280
     1
102
RTVSPropertyOp0
 70
     1
102
RTVSPropertyOp1
 70
     1
102
RTVSPropertyOp2
 70
     1
102
RTVSPropertyOp3
 70
     1
102
RTVSPropertyOp4
 70
     1
102
RTVSPropertyOp5
 70
     1
102
RTVSPropertyOp6
 70
     1
102
RTVSPropertyOp7
 70
     1
102
RTVSPropertyOp8
 70
     1
102
RTVSPropertyOp9
 70
     1
102
RTVSPropertyOp10
 70
     1
102
RTVSPropertyOp11
 70
     1
102
RTVSPropertyOp12
 70
     1
102
RTVSPropertyOp13
 70
     1
102
RTVSPropertyOp14
 70
     1
102
RTVSPropertyOp15
 70
     1
102
RTVSPropertyOp16
 70
     1
102
RTVSPropertyOp17
 70
     1
102
RTVSPropertyOp18
 70
     1
102
RTVSPropertyOp19
 70
     1
102
RTVSPropertyOp20
 70
     1
102
RTVSPropertyOp21
 70
     1
102
RTVSPropertyOp22
 70
     1
102
RTVSPropertyOp23
 70
     1
102
RTVSPropertyOp24
 70
     1
102
RTVSPropertyOp25
 70
     1
102
RTVSPropertyOp26
 70
     1
102
RTVSPropertyOp27
 70
     1
  0
XRECORD
  5
17A
102
{ACAD_REACTORS
330
179
102
}
330
179
100
AcDbXrecord
280
     1
102
RTVSPropertyOp0
 70
     1
102
RTVSPropertyOp1
 70
     1
102
RTVSPropertyOp2
 70
     1
102
RTVSPropertyOp3
 70
     1
102
RTVSPropertyOp4
 70
     1
102
RTVSPropertyOp5
 70
     1
102
RTVSPropertyOp6
 70
     1
102
RTVSPropertyOp7
 70
     1
102
RTVSPropertyOp8
 70
     1
102
RTVSPropertyOp9
 70
     1
102
RTVSPropertyOp10
 70
     1
102
RTVSPropertyOp11
 70
     1
102
RTVSPropertyOp12
 70
     1
102
RTVSPropertyOp13
 70
     1
102
RTVSPropertyOp14
 70
     1
102
RTVSPropertyOp15
 70
     1
102
RTVSPropertyOp16
 70
     1
102
RTVSPropertyOp17
 70
     1
102
RTVSPropertyOp18
 70
     1
102
RTVSPropertyOp19
 70
     1
102
RTVSPropertyOp20
 70
     1
102
RTVSPropertyOp21
 70
     1
102
RTVSPropertyOp22
 70
     1
102
RTVSPropertyOp23
 70
     1
102
RTVSPropertyOp24
 70
     1
102
RTVSPropertyOp25
 70
     1
102
RTVSPropertyOp26
 70
     1
102
RTVSPropertyOp27
 70
     1
  0
XRECORD
  5
170
102
{ACAD_REACTORS
330
16F
102
}
330
16F
100
AcDbXrecord
280
     1
102
RTVSPropertyOp0
 70
     1
102
RTVSPropertyOp1
 70
     1
102
RTVSPropertyOp2
 70
     1
102
RTVSPropertyOp3
 70
     1
102
RTVSPropertyOp4
 70
     1
102
RTVSPropertyOp5
 70
     1
102
RTVSPropertyOp6
 70
     1
102
RTVSPropertyOp7
 70
     1
102
RTVSPropertyOp8
 70
     1
102
RTVSPropertyOp9
 70
     1
102
RTVSPropertyOp10
 70
     1
102
RTVSPropertyOp11
 70
     1
102
RTVSPropertyOp12
 70
     1
102
RTVSPropertyOp13
 70
     1
102
RTVSPropertyOp14
 70
     1
102
RTVSPropertyOp15
 70
     1
102
RTVSPropertyOp16
 70
     1
102
RTVSPropertyOp17
 70
     1
102
RTVSPropertyOp18
 70
     1
102
RTVSPropertyOp19
 70
     1
102
RTVSPropertyOp20
 70
     1
102
RTVSPropertyOp21
 70
     1
102
RTVSPropertyOp22
 70
     1
102
RTVSPropertyOp23
 70
     1
102
RTVSPropertyOp24
 70
     1
102
RTVSPropertyOp25
 70
     1
102
RTVSPropertyOp26
 70
     1
102
RTVSPropertyOp27
 70
     1
  0
XRECORD
  5
178
102
{ACAD_REACTORS
330
177
102
}
330
177
100
AcDbXrecord
280
     1
102
RTVSPropertyOp0
 70
     1
102
RTVSPropertyOp1
 70
     1
102
RTVSPropertyOp2
 70
     1
102
RTVSPropertyOp3
 70
     1
102
RTVSPropertyOp4
 70
     1
102
RTVSPropertyOp5
 70
     1
102
RTVSPropertyOp6
 70
     1
102
RTVSPropertyOp7
 70
     1
102
RTVSPropertyOp8
 70
     1
102
RTVSPropertyOp9
 70
     1
102
RTVSPropertyOp10
 70
     1
102
RTVSPropertyOp11
 70
     1
102
RTVSPropertyOp12
 70
     1
102
RTVSPropertyOp13
 70
     1
102
RTVSPropertyOp14
 70
     1
102
RTVSPropertyOp15
 70
     1
102
RTVSPropertyOp16
 70
     1
102
RTVSPropertyOp17
 70
     1
102
RTVSPropertyOp18
 70
     1
102
RTVSPropertyOp19
 70
     1
102
RTVSPropertyOp20
 70
     1
102
RTVSPropertyOp21
 70
     1
102
RTVSPropertyOp22
 70
     1
102
RTVSPropertyOp23
 70
     1
102
RTVSPropertyOp24
 70
     1
102
RTVSPropertyOp25
 70
     1
102
RTVSPropertyOp26
 70
     1
102
RTVSPropertyOp27
 70
     1
  0
ENDSEC
  0
EOF
