  0
SECTION
  2
HEADER
  9
$ACADVER
  1
AC1015
  9
$ACADMAINTVER
 70
     6
  9
$DWGCODEPAGE
  3
ANSI_1252
  9
$INSBASE
 10
0.0
 20
0.0
 30
0.0
  9
$EXTMIN
 10
0.0
 20
0.0
 30
0.0
  9
$EXTMAX
 10
9.625
 20
7.4375
 30
0.0
  9
$LIMMIN
 10
0.0
 20
0.0
  9
$LIMMAX
 10
9.625
 20
7.4375
  9
$ORTHOMODE
 70
     0
  9
$REGENMODE
 70
     1
  9
$FILLMODE
 70
     1
  9
$QTEXTMODE
 70
     0
  9
$MIRRTEXT
 70
     1
  9
$LTSCALE
 40
0.875
  9
$ATTMODE
 70
     1
  9
$TEXTSIZE
 40
0.109375
  9
$TRACEWID
 40
0.05
  9
$TEXTSTYLE
  7
Standard
  9
$CLAYER
  8
0
  9
$CELTYPE
  6
ByLayer
  9
$CECOLOR
 62
   256
  9
$CELTSCALE
 40
1.0
  9
$DISPSILH
 70
     0
  9
$DIMSCALE
 40
1.0
  9
$DIMASZ
 40
0.11375
  9
$DIMEXO
 40
0.04375
  9
$DIMDLI
 40
0.38
  9
$DIMRND
 40
0.0
  9
$DIMDLE
 40
0.0
  9
$DIMEXE
 40
0.109375
  9
$DIMTP
 40
0.0
  9
$DIMTM
 40
0.0
  9
$DIMTXT
 40
0.109375
  9
$DIMCEN
 40
0.09
  9
$DIMTSZ
 40
0.0
  9
$DIMTOL
 70
     0
  9
$DIMLIM
 70
     0
  9
$DIMTIH
 70
     1
  9
$DIMTOH
 70
     1
  9
$DIMSE1
 70
     0
  9
$DIMSE2
 70
     0
  9
$DIMTAD
 70
     1
  9
$DIMZIN
 70
     0
  9
$DIMBLK
  1

  9
$DIMASO
 70
     1
  9
$DIMSHO
 70
     1
  9
$DIMPOST
  1

  9
$DIMAPOST
  1

  9
$DIMALT
 70
     0
  9
$DIMALTD
 70
     2
  9
$DIMALTF
 40
25.4
  9
$DIMLFAC
 40
1.0
  9
$DIMTOFL
 70
     0
  9
$DIMTVP
 40
0.0
  9
$DIMTIX
 70
     0
  9
$DIMSOXD
 70
     0
  9
$DIMSAH
 70
     0
  9
$DIMBLK1
  1

  9
$DIMBLK2
  1

  9
$DIMSTYLE
  2
Standard
  9
$DIMCLRD
 70
     0
  9
$DIMCLRE
 70
     0
  9
$DIMCLRT
 70
     0
  9
$DIMTFAC
 40
1.0
  9
$DIMGAP
 40
0.0525
  9
$DIMJUST
 70
     0
  9
$DIMSD1
 70
     0
  9
$DIMSD2
 70
     0
  9
$DIMTOLJ
 70
     1
  9
$DIMTZIN
 70
     0
  9
$DIMALTZ
 70
     0
  9
$DIMALTTZ
 70
     0
  9
$DIMUPT
 70
     0
  9
$DIMDEC
 70
     2
  9
$DIMTDEC
 70
     2
  9
$DIMALTU
 70
     2
  9
$DIMALTTD
 70
     2
  9
$DIMTXSTY
  7
Standard
  9
$DIMAUNIT
 70
     0
  9
$DIMADEC
 70
     2
  9
$DIMALTRND
 40
0.0
  9
$DIMAZIN
 70
     0
  9
$DIMDSEP
 70
    46
  9
$DIMATFIT
 70
     3
  9
$DIMFRAC
 70
     0
  9
$DIMLDRBLK
  1

  9
$DIMLUNIT
 70
     2
  9
$DIMLWD
 70
    -2
  9
$DIMLWE
 70
    -2
  9
$DIMTMOVE
 70
     0
  9
$LUNITS
 70
     2
  9
$LUPREC
 70
     2
  9
$SKETCHINC
 40
0.1
  9
$FILLETRAD
 40
0.5
  9
$AUNITS
 70
     0
  9
$AUPREC
 70
     2
  9
$MENU
  1
.
  9
$ELEVATION
 40
0.0
  9
$PELEVATION
 40
0.0
  9
$THICKNESS
 40
0.0
  9
$LIMCHECK
 70
     0
  9
$CHAMFERA
 40
0.5
  9
$CHAMFERB
 40
0.5
  9
$CHAMFERC
 40
1.0
  9
$CHAMFERD
 40
0.0
  9
$SKPOLY
 70
     0
  9
$TDCREATE
 40
2455694.539570775
  9
$TDUCREATE
 40
2455694.706237442
  9
$TDUPDATE
 40
2455694.539570787
  9
$TDUUPDATE
 40
2455694.706237454
  9
$TDINDWG
 40
0.0000000116
  9
$TDUSRTIMER
 40
0.0000000116
  9
$USRTIMER
 70
     1
  9
$ANGBASE
 50
0.0
  9
$ANGDIR
 70
     0
  9
$PDMODE
 70
     0
  9
$PDSIZE
 40
-1.0
  9
$PLINEWID
 40
0.0
  9
$SPLFRAME
 70
     0
  9
$SPLINETYPE
 70
     6
  9
$SPLINESEGS
 70
     8
  9
$HANDSEED
  5
197
  9
$SURFTAB1
 70
     6
  9
$SURFTAB2
 70
     6
  9
$SURFTYPE
 70
     6
  9
$SURFU
 70
     6
  9
$SURFV
 70
     6
  9
$UCSBASE
  2

  9
$UCSNAME
  2

  9
$UCSORG
 10
0.0
 20
0.0
 30
0.0
  9
$UCSXDIR
 10
1.0
 20
0.0
 30
0.0
  9
$UCSYDIR
 10
0.0
 20
1.0
 30
0.0
  9
$UCSORTHOREF
  2

  9
$UCSORTHOVIEW
 70
     0
  9
$UCSORGTOP
 10
0.0
 20
0.0
 30
0.0
  9
$UCSORGBOTTOM
 10
0.0
 20
0.0
 30
0.0
  9
$UCSORGLEFT
 10
0.0
 20
0.0
 30
0.0
  9
$UCSORGRIGHT
 10
0.0
 20
0.0
 30
0.0
  9
$UCSORGFRONT
 10
0.0
 20
0.0
 30
0.0
  9
$UCSORGBACK
 10
0.0
 20
0.0
 30
0.0
  9
$PUCSBASE
  2

  9
$PUCSNAME
  2

  9
$PUCSORG
 10
0.0
 20
0.0
 30
0.0
  9
$PUCSXDIR
 10
1.0
 20
0.0
 30
0.0
  9
$PUCSYDIR
 10
0.0
 20
1.0
 30
0.0
  9
$PUCSORTHOREF
  2

  9
$PUCSORTHOVIEW
 70
     0
  9
$PUCSORGTOP
 10
0.0
 20
0.0
 30
0.0
  9
$PUCSORGBOTTOM
 10
0.0
 20
0.0
 30
0.0
  9
$PUCSORGLEFT
 10
0.0
 20
0.0
 30
0.0
  9
$PUCSORGRIGHT
 10
0.0
 20
0.0
 30
0.0
  9
$PUCSORGFRONT
 10
0.0
 20
0.0
 30
0.0
  9
$PUCSORGBACK
 10
0.0
 20
0.0
 30
0.0
  9
$USERI1
 70
     0
  9
$USERI2
 70
     0
  9
$USERI3
 70
     0
  9
$USERI4
 70
     0
  9
$USERI5
 70
     0
  9
$USERR1
 40
0.0
  9
$USERR2
 40
0.0
  9
$USERR3
 40
0.0
  9
$USERR4
 40
0.0
  9
$USERR5
 40
0.0
  9
$WORLDVIEW
 70
     1
  9
$SHADEDGE
 70
     3
  9
$SHADEDIF
 70
    70
  9
$TILEMODE
 70
     1
  9
$MAXACTVP
 70
    64
  9
$PINSBASE
 10
0.0
 20
0.0
 30
0.0
  9
$PLIMCHECK
 70
     0
  9
$PEXTMIN
 10
1.0000000000E+20
 20
1.0000000000E+20
 30
1.0000000000E+20
  9
$PEXTMAX
 10
-1.0000000000E+20
 20
-1.0000000000E+20
 30
-1.0000000000E+20
  9
$PLIMMIN
 10
0.0
 20
0.0
  9
$PLIMMAX
 10
12.0
 20
9.0
  9
$UNITMODE
 70
     0
  9
$VISRETAIN
 70
     1
  9
$PLINEGEN
 70
     0
  9
$PSLTSCALE
 70
     1
  9
$TREEDEPTH
 70
  3020
  9
$CMLSTYLE
  2
Standard
  9
$CMLJUST
 70
     0
  9
$CMLSCALE
 40
1.0
  9
$PROXYGRAPHICS
 70
     1
  9
$MEASUREMENT
 70
     0
  9
$CELWEIGHT
370
    -1
  9
$ENDCAPS
280
     0
  9
$JOINSTYLE
280
     0
  9
$LWDISPLAY
290
     1
  9
$INSUNITS
 70
     1
  9
$HYPERLINKBASE
  1

  9
$STYLESHEET
  1

  9
$XEDIT
290
     1
  9
$CEPSNTYPE
380
     0
  9
$PSTYLEMODE
290
     1
  9
$FINGERPRINTGUID
  2
{EC73770C-89C3-4CD9-BC6A-CD0DEBD9A11F}
  9
$VERSIONGUID
  2
{FAEB1C32-E019-11D5-929B-00C0DF256EC4}
  9
$EXTNAMES
290
     1
  9
$PSVPSCALE
 40
0.0
  9
$OLESTARTUP
290
     0
  0
ENDSEC
  0
SECTION
  2
CLASSES
  0
CLASS
  1
ACDBDICTIONARYWDFLT
  2
AcDbDictionaryWithDefault
  3
ObjectDBX Classes
 90
        0
280
     0
281
     0
  0
CLASS
  1
VISUALSTYLE
  2
AcDbVisualStyle
  3
ObjectDBX Classes
 90
     4095
280
     0
281
     0
  0
CLASS
  1
MATERIAL
  2
AcDbMaterial
  3
ObjectDBX Classes
 90
     1153
280
     0
281
     0
  0
CLASS
  1
SCALE
  2
AcDbScale
  3
ObjectDBX Classes
 90
     1153
280
     0
281
     0
  0
CLASS
  1
DICTIONARYVAR
  2
AcDbDictionaryVar
  3
ObjectDBX Classes
 90
        0
280
     0
281
     0
  0
CLASS
  1
ACDBPLACEHOLDER
  2
AcDbPlaceHolder
  3
ObjectDBX Classes
 90
        0
280
     0
281
     0
  0
CLASS
  1
LAYOUT
  2
AcDbLayout
  3
ObjectDBX Classes
 90
        0
280
     0
281
     0
  0
ENDSEC
  0
SECTION
  2
TABLES
  0
TABLE
  2
VPORT
  5
8
330
0
100
AcDbSymbolTable
 70
     1
  0
VPORT
  5
29
330
8
100
AcDbSymbolTableRecord
100
AcDbViewportTableRecord
  2
*Active
 70
     0
 10
0.0
 20
0.0
 11
1.0
 21
1.0
 12
4.8125
 22
3.71875
 13
0.0
 23
0.0
 14
0.5
 24
0.5
 15
0.5
 25
0.5
 16
0.0
 26
0.0
 36
1.0
 17
0.0
 27
0.0
 37
0.0
 40
7.4375
 41
1.2941176471
 42
50.0
 43
0.0
 44
0.0
 50
0.0
 51
0.0
 71
     0
 72
  2000
 73
     1
 74
     3
 75
     0
 76
     0
 77
     0
 78
     0
281
     0
 65
     1
110
0.0
120
0.0
130
0.0
111
1.0
121
0.0
131
0.0
112
0.0
122
1.0
132
0.0
 79
     0
146
0.0
  0
ENDTAB
  0
TABLE
  2
LTYPE
  5
5
330
0
100
AcDbSymbolTable
 70
     6
  0
LTYPE
  5
14
330
5
100
AcDbSymbolTableRecord
100
AcDbLinetypeTableRecord
  2
ByBlock
 70
     0
  3

 72
    65
 73
     0
 40
0.0
  0
LTYPE
  5
15
330
5
100
AcDbSymbolTableRecord
100
AcDbLinetypeTableRecord
  2
ByLayer
 70
     0
  3

 72
    65
 73
     0
 40
0.0
  0
LTYPE
  5
16
330
5
100
AcDbSymbolTableRecord
100
AcDbLinetypeTableRecord
  2
Continuous
 70
     0
  3
Solid line
 72
    65
 73
     0
 40
0.0
  0
LTYPE
  5
3F
330
5
100
AcDbSymbolTableRecord
100
AcDbLinetypeTableRecord
  2
HIDDEN
 70
     0
  3
Hidden __ __ __ __ __ __ __ __ __ __ __ __ __ __
 72
    65
 73
     2
 40
0.075
 49
0.05
 74
     0
 49
-0.025
 74
     0
  0
LTYPE
  5
40
330
5
100
AcDbSymbolTableRecord
100
AcDbLinetypeTableRecord
  2
PHANTOM
 70
     0
  3
Phantom ______  __  __  ______  __  __  ______
 72
    65
 73
     6
 40
0.5
 49
0.25
 74
     0
 49
-0.05
 74
     0
 49
0.05
 74
     0
 49
-0.05
 74
     0
 49
0.05
 74
     0
 49
-0.05
 74
     0
  0
LTYPE
  5
41
330
5
100
AcDbSymbolTableRecord
100
AcDbLinetypeTableRecord
  2
CENTER
 70
     0
  3
Center ____ _ ____ _ ____ _ ____ _ ____ _ ____
 72
    65
 73
     4
 40
0.4
 49
0.25
 74
     0
 49
-0.05
 74
     0
 49
0.05
 74
     0
 49
-0.05
 74
     0
  0
LTYPE
  5
42
330
5
100
AcDbSymbolTableRecord
100
AcDbLinetypeTableRecord
  2
CENTERX2
 70
     0
  3
Center (2x) ________  __  ________  __  _____
 72
    65
 73
     4
 40
0.8
 49
0.5
 74
     0
 49
-0.1
 74
     0
 49
0.1
 74
     0
 49
-0.1
 74
     0
  0
LTYPE
  5
43
330
5
100
AcDbSymbolTableRecord
100
AcDbLinetypeTableRecord
  2
DOT2
 70
     0
  3
Dot (.5x) ........................................
 72
    65
 73
     2
 40
0.025
 49
0.0
 74
     0
 49
-0.025
 74
     0
  0
ENDTAB
  0
TABLE
  2
LAYER
  5
2
330
0
100
AcDbSymbolTable
 70
     1
  0
LAYER
  5
10
330
2
100
AcDbSymbolTableRecord
100
AcDbLayerTableRecord
  2
0
 70
     0
 62
     7
  6
Continuous
370
    -3
390
F
  0
ENDTAB
  0
TABLE
  2
STYLE
  5
3
330
0
100
AcDbSymbolTable
 70
     2
  0
STYLE
  5
11
330
3
100
AcDbSymbolTableRecord
100
AcDbTextStyleTableRecord
  2
Standard
 70
     0
 40
0.0
 41
1.0
 50
0.0
 71
     0
 42
0.2
  3
txt
  4

  0
STYLE
  5
55
330
3
100
AcDbSymbolTableRecord
100
AcDbTextStyleTableRecord
  2
SLDTEXTSTYLE0
 70
     0
 40
0.0
 41
0.75
 50
0.0
 71
     0
 42
0.2
  3
TXT
  4

  0
ENDTAB
  0
TABLE
  2
VIEW
  5
6
330
0
100
AcDbSymbolTable
 70
     0
  0
ENDTAB
  0
TABLE
  2
UCS
  5
7
330
0
100
AcDbSymbolTable
 70
     0
  0
ENDTAB
  0
TABLE
  2
APPID
  5
9
330
0
100
AcDbSymbolTable
 70
     1
  0
APPID
  5
12
330
9
100
AcDbSymbolTableRecord
100
AcDbRegAppTableRecord
  2
ACAD
 70
     0
  0
ENDTAB
  0
TABLE
  2
DIMSTYLE
  5
A
330
0
100
AcDbSymbolTable
 70
     6
100
AcDbDimStyleTable
  0
DIMSTYLE
105
27
330
A
100
AcDbSymbolTableRecord
100
AcDbDimStyleTableRecord
  2
Standard
 70
     0
340
11
  0
DIMSTYLE
105
B0
102
{ACAD_REACTORS
330
AF
330
D5
330
E8
330
FA
102
}
330
A
100
AcDbSymbolTableRecord
100
AcDbDimStyleTableRecord
  2
SLDDIMSTYLE0
 70
     0
 41
0.11375
 44
0.0
 45
0.000000001
 78
    12
140
0.109375
147
0.02734375
148
0.000000001
170
     1
173
     1
271
     2
272
     2
284
    12
340
55
  0
DIMSTYLE
105
C3
102
{ACAD_REACTORS
330
C2
102
}
330
A
100
AcDbSymbolTableRecord
100
AcDbDimStyleTableRecord
  2
SLDDIMSTYLE1
 70
     0
 41
0.11375
 44
0.0
 45
0.000000001
 78
     4
140
0.109375
147
0.02734375
148
0.000000001
170
     1
173
     1
271
     2
272
     2
284
    12
340
55
  0
DIMSTYLE
105
10D
102
{ACAD_REACTORS
330
10C
102
}
330
A
100
AcDbSymbolTableRecord
100
AcDbDimStyleTableRecord
  2
SLDDIMSTYLE2
 70
     0
 41
0.11375
 44
0.0
 45
0.000000001
 78
    12
140
0.109375
147
0.02734375
148
0.000000001
170
     1
172
     1
173
     1
271
     3
272
     3
284
    12
340
55
  0
DIMSTYLE
105
11F
102
{ACAD_REACTORS
330
11E
102
}
330
A
100
AcDbSymbolTableRecord
100
AcDbDimStyleTableRecord
  2
SLDDIMSTYLE3
 70
     0
 41
0.11375
 44
0.0
 45
0.000000001
 78
    12
140
0.109375
147
0.02734375
148
0.000000001
170
     1
173
     1
271
     2
272
     2
284
    12
340
55
  0
DIMSTYLE
105
133
102
{ACAD_REACTORS
330
132
330
144
102
}
330
A
100
AcDbSymbolTableRecord
100
AcDbDimStyleTableRecord
  2
SLDDIMSTYLE4
 70
     0
 41
0.11375
 44
0.0
 45
0.000000001
 78
    12
140
0.109375
147
0.02734375
148
0.000000001
170
     1
173
     1
271
     2
272
     2
284
    12
340
55
  0
ENDTAB
  0
TABLE
  2
BLOCK_RECORD
  5
1
330
0
100
AcDbSymbolTable
 70
    14
  0
BLOCK_RECORD
  5
1F
330
1
100
AcDbSymbolTableRecord
100
AcDbBlockTableRecord
  2
*Model_Space
340
22
  0
BLOCK_RECORD
  5
1B
330
1
100
AcDbSymbolTableRecord
100
AcDbBlockTableRecord
  2
*Paper_Space
340
1E
  0
BLOCK_RECORD
  5
23
330
1
100
AcDbSymbolTableRecord
100
AcDbBlockTableRecord
  2
*Paper_Space0
340
26
  0
BLOCK_RECORD
  5
52
330
1
100
AcDbSymbolTableRecord
100
AcDbBlockTableRecord
  2
SW_NOTE_0
340
0
102
{BLKREFS
331
7F
102
}
  0
BLOCK_RECORD
  5
80
330
1
100
AcDbSymbolTableRecord
100
AcDbBlockTableRecord
  2
SW_NOTE_1
340
0
102
{BLKREFS
331
85
102
}
  0
BLOCK_RECORD
  5
86
330
1
100
AcDbSymbolTableRecord
100
AcDbBlockTableRecord
  2
SW_NOTE_2
340
0
102
{BLKREFS
331
8B
102
}
  0
BLOCK_RECORD
  5
8C
330
1
100
AcDbSymbolTableRecord
100
AcDbBlockTableRecord
  2
SW_NOTE_3
340
0
102
{BLKREFS
331
91
102
}
  0
BLOCK_RECORD
  5
B1
330
1
100
AcDbSymbolTableRecord
100
AcDbBlockTableRecord
  2
*D5
340
0
  0
BLOCK_RECORD
  5
C4
330
1
100
AcDbSymbolTableRecord
100
AcDbBlockTableRecord
  2
*D6
340
0
  0
BLOCK_RECORD
  5
D6
330
1
100
AcDbSymbolTableRecord
100
AcDbBlockTableRecord
  2
*D7
340
0
  0
BLOCK_RECORD
  5
E9
330
1
100
AcDbSymbolTableRecord
100
AcDbBlockTableRecord
  2
*D8
340
0
  0
BLOCK_RECORD
  5
FB
330
1
100
AcDbSymbolTableRecord
100
AcDbBlockTableRecord
  2
*D9
340
0
  0
BLOCK_RECORD
  5
10E
330
1
100
AcDbSymbolTableRecord
100
AcDbBlockTableRecord
  2
*D10
340
0
  0
BLOCK_RECORD
  5
120
330
1
100
AcDbSymbolTableRecord
100
AcDbBlockTableRecord
  2
*D11
340
0
  0
BLOCK_RECORD
  5
134
330
1
100
AcDbSymbolTableRecord
100
AcDbBlockTableRecord
  2
*D12
340
0
  0
BLOCK_RECORD
  5
145
330
1
100
AcDbSymbolTableRecord
100
AcDbBlockTableRecord
  2
*D13
340
0
  0
ENDTAB
  0
ENDSEC
  0
SECTION
  2
BLOCKS
  0
BLOCK
  5
20
330
1F
100
AcDbEntity
  8
0
100
AcDbBlockBegin
  2
*Model_Space
 70
     0
 10
0.0
 20
0.0
 30
0.0
  3
*Model_Space
  1

  0
ENDBLK
  5
21
330
1F
100
AcDbEntity
  8
0
100
AcDbBlockEnd
  0
BLOCK
  5
1C
330
1B
100
AcDbEntity
 67
     1
  8
0
100
AcDbBlockBegin
  2
*Paper_Space
 70
     0
 10
0.0
 20
0.0
 30
0.0
  3
*Paper_Space
  1

  0
ENDBLK
  5
1D
330
1B
100
AcDbEntity
 67
     1
  8
0
100
AcDbBlockEnd
  0
BLOCK
  5
24
330
23
100
AcDbEntity
  8
0
100
AcDbBlockBegin
  2
*Paper_Space0
 70
     0
 10
0.0
 20
0.0
 30
0.0
  3
*Paper_Space0
  1

  0
ENDBLK
  5
25
330
23
100
AcDbEntity
  8
0
100
AcDbBlockEnd
  0
BLOCK
  5
53
330
52
100
AcDbEntity
  8
0
100
AcDbBlockBegin
  2
SW_NOTE_0
 70
     0
 10
0.0
 20
0.0
 30
0.0
  3
SW_NOTE_0
  1

  0
MTEXT
  5
78
330
52
100
AcDbEntity
  8
0
  6
Continuous
 62
     0
 48
0.875
370
     0
100
AcDbMText
 10
0.0
 20
0.140991784
 30
0.0
 40
0.109375
 41
0.0
 71
     1
 72
     1
  1
MATERIAL - .060 [1.5mm] THK. ALUMINUM
  7
SLDTEXTSTYLE0
 73
     1
 44
1.0
  0
MTEXT
  5
79
330
52
100
AcDbEntity
  8
0
  6
Continuous
 62
     0
 48
0.875
370
     0
100
AcDbMText
 10
0.0
 20
-0.1466558464
 30
0.0
 40
0.109375
 41
0.0
 71
     1
 72
     1
  1
FINISH - NATURAL
  7
SLDTEXTSTYLE0
 73
     1
 44
1.0
  0
MTEXT
  5
7A
330
52
100
AcDbEntity
  8
0
  6
Continuous
 62
     0
 48
0.875
370
     0
100
AcDbMText
 10
0.0
 20
-0.4343034768
 30
0.0
 40
0.109375
 41
0.0
 71
     1
 72
     1
  1
SUPPLIED WITH M3x0.5 x 6mm LG. MACHINE SCREWS
  7
SLDTEXTSTYLE0
 73
     1
 44
1.0
  0
MTEXT
  5
7B
330
52
100
AcDbEntity
  8
0
  6
Continuous
 62
     0
 48
0.875
370
     0
100
AcDbMText
 10
0.0
 20
-0.578127292
 30
0.0
 40
0.109375
 41
0.0
 71
     1
 72
     1
  1
    (PAN HD., PHILLIPS DRIVE, STEEL, ZINC PLATED) FOR
  7
SLDTEXTSTYLE0
 73
     1
 44
1.0
  0
MTEXT
  5
7C
330
52
100
AcDbEntity
  8
0
  6
Continuous
 62
     0
 48
0.875
370
     0
100
AcDbMText
 10
0.0
 20
-0.7219511072
 30
0.0
 40
0.109375
 41
0.0
 71
     1
 72
     1
  1
     MOUNTING.
  7
SLDTEXTSTYLE0
 73
     1
 44
1.0
  0
MTEXT
  5
7D
330
52
100
AcDbEntity
  8
0
  6
Continuous
 62
     0
 48
0.875
370
     0
100
AcDbMText
 10
0.0
 20
-1.0095987376
 30
0.0
 40
0.109375
 41
0.0
 71
     1
 72
     1
  1
PANEL FITS THE FOLLOWING ENCLOSURES:
  7
SLDTEXTSTYLE0
 73
     1
 44
1.0
  0
MTEXT
  5
7E
330
52
100
AcDbEntity
  8
0
  6
Continuous
 62
     0
 48
0.875
370
     0
100
AcDbMText
 10
0.0
 20
-1.1534225528
 30
0.0
 40
0.109375
 41
0.0
 71
     1
 72
     1
  1
  PN-1331, PN-1331-DG & PN-1331-C
  7
SLDTEXTSTYLE0
 73
     1
 44
1.0
  0
ENDBLK
  5
54
330
52
100
AcDbEntity
  8
0
100
AcDbBlockEnd
  0
BLOCK
  5
81
330
80
100
AcDbEntity
  8
0
100
AcDbBlockBegin
  2
SW_NOTE_1
 70
     0
 10
0.0
 20
0.0
 30
0.0
  3
SW_NOTE_1
  1

  0
MTEXT
  5
83
330
80
100
AcDbEntity
  8
0
  6
Continuous
 62
     0
 48
0.875
370
     0
100
AcDbMText
 10
0.0
 20
0.140991784
 30
0.0
 40
0.109375
 41
0.0
 71
     1
 72
     1
  1
PART
  7
SLDTEXTSTYLE0
 73
     1
 44
1.0
  0
MTEXT
  5
84
330
80
100
AcDbEntity
  8
0
  6
Continuous
 62
     0
 48
0.875
370
     0
100
AcDbMText
 10
-0.0415473084
 20
-0.0028320312
 30
0.0
 40
0.109375
 41
0.0
 71
     1
 72
     1
  1
NAME
  7
SLDTEXTSTYLE0
 73
     1
 44
1.0
  0
ENDBLK
  5
82
330
80
100
AcDbEntity
  8
0
100
AcDbBlockEnd
  0
BLOCK
  5
87
330
86
100
AcDbEntity
  8
0
100
AcDbBlockBegin
  2
SW_NOTE_2
 70
     0
 10
0.0
 20
0.0
 30
0.0
  3
SW_NOTE_2
  1

  0
MTEXT
  5
89
330
86
100
AcDbEntity
  8
0
  6
Continuous
 62
     0
 48
0.875
370
     0
100
AcDbMText
 10
0.0
 20
0.140991784
 30
0.0
 40
0.109375
 41
0.0
 71
     1
 72
     1
  1
PART
  7
SLDTEXTSTYLE0
 73
     1
 44
1.0
  0
MTEXT
  5
8A
330
86
100
AcDbEntity
  8
0
  6
Continuous
 62
     0
 48
0.875
370
     0
100
AcDbMText
 10
0.0505099728
 20
-0.0028320312
 30
0.0
 40
0.109375
 41
0.0
 71
     1
 72
     1
  1
No.
  7
SLDTEXTSTYLE0
 73
     1
 44
1.0
  0
ENDBLK
  5
88
330
86
100
AcDbEntity
  8
0
100
AcDbBlockEnd
  0
BLOCK
  5
8D
330
8C
100
AcDbEntity
  8
0
100
AcDbBlockBegin
  2
SW_NOTE_3
 70
     0
 10
0.0
 20
0.0
 30
0.0
  3
SW_NOTE_3
  1

  0
MTEXT
  5
8F
330
8C
100
AcDbEntity
  8
0
  6
Continuous
 62
     0
 48
0.875
370
     0
100
AcDbMText
 10
0.0
 20
0.140991784
 30
0.0
 40
0.109375
 41
0.0
 71
     1
 72
     1
  1
REV.
  7
SLDTEXTSTYLE0
 73
     1
 44
1.0
  0
MTEXT
  5
90
330
8C
100
AcDbEntity
  8
0
  6
Continuous
 62
     0
 48
0.875
370
     0
100
AcDbMText
 10
-0.0235460072
 20
-0.0028320312
 30
0.0
 40
0.109375
 41
0.0
 71
     1
 72
     1
  1
DATE
  7
SLDTEXTSTYLE0
 73
     1
 44
1.0
  0
ENDBLK
  5
8E
330
8C
100
AcDbEntity
  8
0
100
AcDbBlockEnd
  0
BLOCK
  5
B2
330
B1
100
AcDbEntity
  8
0
100
AcDbBlockBegin
  2
*D5
 70
     1
 10
0.0
 20
0.0
 30
0.0
  3
*D5
  1

  0
SOLID
  5
B4
330
B1
100
AcDbEntity
  8
0
  6
Continuous
 62
     7
 48
0.875
370
     0
100
AcDbTrace
 10
2.6237785323
 20
6.2167175552
 30
0.0
 11
2.7375285323
 21
6.1992175552
 31
0.0
 12
2.7375285323
 22
6.2342175552
 32
0.0
 13
2.7375285323
 23
6.2342175552
 33
0.0
  0
SOLID
  5
B5
330
B1
100
AcDbEntity
  8
0
  6
Continuous
 62
     7
 48
0.875
370
     0
100
AcDbTrace
 10
5.4977942803
 20
6.2167175552
 30
0.0
 11
5.3840442803
 21
6.2342175552
 31
0.0
 12
5.3840442803
 22
6.1992175552
 32
0.0
 13
5.3840442803
 23
6.1992175552
 33
0.0
  0
LINE
  5
B6
330
B1
100
AcDbEntity
  8
0
  6
Continuous
 62
     7
 48
0.875
370
     0
100
AcDbLine
 10
3.9355726652
 20
6.2036971829
 30
0.0
 11
3.9355726652
 21
6.056132963
 31
0.0
  0
LINE
  5
B7
330
B1
100
AcDbEntity
  8
0
  6
Continuous
 62
     7
 48
0.875
370
     0
100
AcDbLine
 10
3.9355726652
 20
6.056132963
 30
0.0
 11
3.9577761522
 21
6.056132963
 31
0.0
  0
LINE
  5
B8
330
B1
100
AcDbEntity
  8
0
  6
Continuous
 62
     7
 48
0.875
370
     0
100
AcDbLine
 10
3.9355726652
 20
6.2036971829
 30
0.0
 11
3.9577761522
 21
6.2036971829
 31
0.0
  0
LINE
  5
B9
330
B1
100
AcDbEntity
  8
0
  6
Continuous
 62
     7
 48
0.875
370
     0
100
AcDbLine
 10
4.1860001474
 20
6.2036971829
 30
0.0
 11
4.1860001474
 21
6.056132963
 31
0.0
  0
LINE
  5
BA
330
B1
100
AcDbEntity
  8
0
  6
Continuous
 62
     7
 48
0.875
370
     0
100
AcDbLine
 10
4.1860001474
 20
6.056132963
 30
0.0
 11
4.1637966604
 21
6.056132963
 31
0.0
  0
LINE
  5
BB
330
B1
100
AcDbEntity
  8
0
  6
Continuous
 62
     7
 48
0.875
370
     0
100
AcDbLine
 10
4.1860001474
 20
6.2036971829
 30
0.0
 11
4.1637966604
 21
6.2036971829
 31
0.0
  0
LINE
  5
BC
330
B1
100
AcDbEntity
  8
0
  6
Continuous
 62
     7
 48
0.875
370
     0
100
AcDbLine
 10
2.6237785323
 20
5.1139382973
 30
0.0
 11
2.6237785323
 21
6.3260925552
 31
0.0
  0
LINE
  5
BD
330
B1
100
AcDbEntity
  8
0
  6
Continuous
 62
     7
 48
0.875
370
     0
100
AcDbLine
 10
5.4977942803
 20
5.1139382973
 30
0.0
 11
5.4977942803
 21
6.3260925552
 31
0.0
  0
LINE
  5
BE
330
B1
100
AcDbEntity
  8
0
  6
Continuous
 62
     7
 48
0.875
370
     0
100
AcDbLine
 10
2.6237785323
 20
6.2167175552
 30
0.0
 11
3.8142940452
 21
6.2167175552
 31
0.0
  0
LINE
  5
BF
330
B1
100
AcDbEntity
  8
0
  6
Continuous
 62
     7
 48
0.875
370
     0
100
AcDbLine
 10
5.4977942803
 20
6.2167175552
 30
0.0
 11
4.3072787674
 21
6.2167175552
 31
0.0
  0
MTEXT
  5
C0
330
B1
100
AcDbEntity
  8
0
  6
Continuous
 62
     7
 48
0.875
370
     0
100
AcDbMText
 10
3.9193648933
 20
6.3577093333
 30
0.0
 40
0.109375
 41
0.0
 71
     1
 72
     1
  1
2.87
  7
SLDTEXTSTYLE0
 73
     1
 44
1.0
  0
MTEXT
  5
C1
330
B1
100
AcDbEntity
  8
0
  6
Continuous
 62
     7
 48
0.875
370
     0
100
AcDbMText
 10
3.9799796392
 20
6.1841043687
 30
0.0
 40
0.109375
 41
0.0
 71
     1
 72
     1
  1
73
  7
SLDTEXTSTYLE0
 73
     1
 44
1.0
  0
ENDBLK
  5
B3
330
B1
100
AcDbEntity
  8
0
100
AcDbBlockEnd
  0
BLOCK
  5
C5
330
C4
100
AcDbEntity
  8
0
100
AcDbBlockBegin
  2
*D6
 70
     1
 10
0.0
 20
0.0
 30
0.0
  3
*D6
  1

  0
SOLID
  5
C7
330
C4
100
AcDbEntity
  8
0
  6
Continuous
 62
     7
 48
0.875
370
     0
100
AcDbTrace
 10
6.0489753827
 20
2.9993221556
 30
0.0
 11
6.0664753827
 21
3.1130721556
 31
0.0
 12
6.0314753827
 22
3.1130721556
 32
0.0
 13
6.0314753827
 23
3.1130721556
 33
0.0
  0
SOLID
  5
C8
330
C4
100
AcDbEntity
  8
0
  6
Continuous
 62
     7
 48
0.875
370
     0
100
AcDbTrace
 10
6.0489753827
 20
5.7945977461
 30
0.0
 11
6.0314753827
 21
5.6808477461
 31
0.0
 12
6.0664753827
 22
5.6808477461
 32
0.0
 13
6.0664753827
 23
5.6808477461
 33
0.0
  0
LINE
  5
C9
330
C4
100
AcDbEntity
  8
0
  6
Continuous
 62
     7
 48
0.875
370
     0
100
AcDbLine
 10
5.9237616415
 20
4.3839395785
 30
0.0
 11
5.9237616415
 21
4.2363753587
 31
0.0
  0
LINE
  5
CA
330
C4
100
AcDbEntity
  8
0
  6
Continuous
 62
     7
 48
0.875
370
     0
100
AcDbLine
 10
5.9237616415
 20
4.2363753587
 30
0.0
 11
5.9459651285
 21
4.2363753587
 31
0.0
  0
LINE
  5
CB
330
C4
100
AcDbEntity
  8
0
  6
Continuous
 62
     7
 48
0.875
370
     0
100
AcDbLine
 10
5.9237616415
 20
4.3839395785
 30
0.0
 11
5.9459651285
 21
4.3839395785
 31
0.0
  0
LINE
  5
CC
330
C4
100
AcDbEntity
  8
0
  6
Continuous
 62
     7
 48
0.875
370
     0
100
AcDbLine
 10
6.1741891238
 20
4.3839395785
 30
0.0
 11
6.1741891238
 21
4.2363753587
 31
0.0
  0
LINE
  5
CD
330
C4
100
AcDbEntity
  8
0
  6
Continuous
 62
     7
 48
0.875
370
     0
100
AcDbLine
 10
6.1741891238
 20
4.2363753587
 30
0.0
 11
6.1519856368
 21
4.2363753587
 31
0.0
  0
LINE
  5
CE
330
C4
100
AcDbEntity
  8
0
  6
Continuous
 62
     7
 48
0.875
370
     0
100
AcDbLine
 10
6.1741891238
 20
4.3839395785
 30
0.0
 11
6.1519856368
 21
4.3839395785
 31
0.0
  0
LINE
  5
CF
330
C4
100
AcDbEntity
  8
0
  6
Continuous
 62
     7
 48
0.875
370
     0
100
AcDbLine
 10
5.1675285323
 20
2.9993221556
 30
0.0
 11
6.1583503827
 21
2.9993221556
 31
0.0
  0
LINE
  5
D0
330
C4
100
AcDbEntity
  8
0
  6
Continuous
 62
     7
 48
0.875
370
     0
100
AcDbLine
 10
5.1675285323
 20
5.7945977461
 30
0.0
 11
6.1583503827
 21
5.7945977461
 31
0.0
  0
LINE
  5
D1
330
C4
100
AcDbEntity
  8
0
  6
Continuous
 62
     7
 48
0.875
370
     0
100
AcDbLine
 10
6.0489753827
 20
2.9993221556
 30
0.0
 11
6.0489753827
 21
4.2233549863
 31
0.0
  0
LINE
  5
D2
330
C4
100
AcDbEntity
  8
0
  6
Continuous
 62
     7
 48
0.875
370
     0
100
AcDbLine
 10
6.0489753827
 20
5.7945977461
 30
0.0
 11
6.0489753827
 21
4.5705649154
 31
0.0
  0
MTEXT
  5
D3
330
C4
100
AcDbEntity
  8
0
  6
Continuous
 62
     7
 48
0.875
370
     0
100
AcDbMText
 10
5.9075538697
 20
4.5379517289
 30
0.0
 40
0.109375
 41
0.0
 71
     1
 72
     1
  1
2.80
  7
SLDTEXTSTYLE0
 73
     1
 44
1.0
  0
MTEXT
  5
D4
330
C4
100
AcDbEntity
  8
0
  6
Continuous
 62
     7
 48
0.875
370
     0
100
AcDbMText
 10
5.9681686155
 20
4.3643467643
 30
0.0
 40
0.109375
 41
0.0
 71
     1
 72
     1
  1
71
  7
SLDTEXTSTYLE0
 73
     1
 44
1.0
  0
ENDBLK
  5
C6
330
C4
100
AcDbEntity
  8
0
100
AcDbBlockEnd
  0
BLOCK
  5
D7
330
D6
100
AcDbEntity
  8
0
100
AcDbBlockBegin
  2
*D7
 70
     1
 10
0.0
 20
0.0
 30
0.0
  3
*D7
  1

  0
SOLID
  5
D9
330
D6
100
AcDbEntity
  8
0
  6
Continuous
 62
     7
 48
0.875
370
     0
100
AcDbTrace
 10
1.7431458654
 20
3.7237316044
 30
0.0
 11
1.7256458654
 21
3.6099816044
 31
0.0
 12
1.7606458654
 22
3.6099816044
 32
0.0
 13
1.7606458654
 23
3.6099816044
 33
0.0
  0
SOLID
  5
DA
330
D6
100
AcDbEntity
  8
0
  6
Continuous
 62
     7
 48
0.875
370
     0
100
AcDbTrace
 10
1.7431458654
 20
2.9993221556
 30
0.0
 11
1.7606458654
 21
3.1130721556
 31
0.0
 12
1.7256458654
 22
3.1130721556
 32
0.0
 13
1.7256458654
 23
3.1130721556
 33
0.0
  0
LINE
  5
DB
330
D6
100
AcDbEntity
  8
0
  6
Continuous
 62
     7
 48
0.875
370
     0
100
AcDbLine
 10
1.3995720474
 20
3.3733495786
 30
0.0
 11
1.3995720474
 21
3.2257853587
 31
0.0
  0
LINE
  5
DC
330
D6
100
AcDbEntity
  8
0
  6
Continuous
 62
     7
 48
0.875
370
     0
100
AcDbLine
 10
1.3995720474
 20
3.2257853587
 30
0.0
 11
1.4217755344
 21
3.2257853587
 31
0.0
  0
LINE
  5
DD
330
D6
100
AcDbEntity
  8
0
  6
Continuous
 62
     7
 48
0.875
370
     0
100
AcDbLine
 10
1.3995720474
 20
3.3733495786
 30
0.0
 11
1.4217755344
 21
3.3733495786
 31
0.0
  0
LINE
  5
DE
330
D6
100
AcDbEntity
  8
0
  6
Continuous
 62
     7
 48
0.875
370
     0
100
AcDbLine
 10
1.7712290214
 20
3.3733495786
 30
0.0
 11
1.7712290214
 21
3.2257853587
 31
0.0
  0
LINE
  5
DF
330
D6
100
AcDbEntity
  8
0
  6
Continuous
 62
     7
 48
0.875
370
     0
100
AcDbLine
 10
1.7712290214
 20
3.2257853587
 30
0.0
 11
1.7490255344
 21
3.2257853587
 31
0.0
  0
LINE
  5
E0
330
D6
100
AcDbEntity
  8
0
  6
Continuous
 62
     7
 48
0.875
370
     0
100
AcDbLine
 10
1.7712290214
 20
3.3733495786
 30
0.0
 11
1.7490255344
 21
3.3733495786
 31
0.0
  0
LINE
  5
E1
330
D6
100
AcDbEntity
  8
0
  6
Continuous
 62
     7
 48
0.875
370
     0
100
AcDbLine
 10
2.5800285323
 20
3.7237316044
 30
0.0
 11
1.6337708654
 21
3.7237316044
 31
0.0
  0
LINE
  5
E2
330
D6
100
AcDbEntity
  8
0
  6
Continuous
 62
     7
 48
0.875
370
     0
100
AcDbLine
 10
2.9540442803
 20
2.9993221556
 30
0.0
 11
1.6337708654
 21
2.9993221556
 31
0.0
  0
LINE
  5
E3
330
D6
100
AcDbEntity
  8
0
  6
Continuous
 62
     7
 48
0.875
370
     0
100
AcDbLine
 10
1.7431458654
 20
3.7237316044
 30
0.0
 11
1.7431458654
 21
3.5599749154
 31
0.0
  0
LINE
  5
E4
330
D6
100
AcDbEntity
  8
0
  6
Continuous
 62
     7
 48
0.875
370
     0
100
AcDbLine
 10
1.7431458654
 20
2.9993221556
 30
0.0
 11
1.7431458654
 21
3.2127649864
 31
0.0
  0
MTEXT
  5
E5
330
D6
100
AcDbEntity
  8
0
  6
Continuous
 62
     7
 48
0.875
370
     0
100
AcDbMText
 10
1.484401746
 20
3.5273617289
 30
0.0
 40
0.109375
 41
0.0
 71
     1
 72
     1
  1
.72
  7
SLDTEXTSTYLE0
 73
     1
 44
1.0
  0
MTEXT
  5
E6
330
D6
100
AcDbEntity
  8
0
  6
Continuous
 62
     7
 48
0.875
370
     0
100
AcDbMText
 10
1.8156359954
 20
3.5273617289
 30
0.0
 40
0.109375
 41
0.0
 71
     1
 72
     1
  1
 TYP.
  7
SLDTEXTSTYLE0
 73
     1
 44
1.0
  0
MTEXT
  5
E7
330
D6
100
AcDbEntity
  8
0
  6
Continuous
 62
     7
 48
0.875
370
     0
100
AcDbMText
 10
1.4439790214
 20
3.3537567644
 30
0.0
 40
0.109375
 41
0.0
 71
     1
 72
     1
  1
18.4
  7
SLDTEXTSTYLE0
 73
     1
 44
1.0
  0
ENDBLK
  5
D8
330
D6
100
AcDbEntity
  8
0
100
AcDbBlockEnd
  0
BLOCK
  5
EA
330
E9
100
AcDbEntity
  8
0
100
AcDbBlockBegin
  2
*D8
 70
     1
 10
0.0
 20
0.0
 30
0.0
  3
*D8
  1

  0
SOLID
  5
EC
330
E9
100
AcDbEntity
  8
0
  6
Continuous
 62
     7
 48
0.875
370
     0
100
AcDbTrace
 10
2.185921354
 20
3.2552276674
 30
0.0
 11
2.203421354
 21
3.3689776674
 31
0.0
 12
2.168421354
 22
3.3689776674
 32
0.0
 13
2.168421354
 23
3.3689776674
 33
0.0
  0
SOLID
  5
ED
330
E9
100
AcDbEntity
  8
0
  6
Continuous
 62
     7
 48
0.875
370
     0
100
AcDbTrace
 10
2.185921354
 20
5.5386922343
 30
0.0
 11
2.168421354
 21
5.4249422343
 31
0.0
 12
2.203421354
 22
5.4249422343
 32
0.0
 13
2.203421354
 23
5.4249422343
 33
0.0
  0
LINE
  5
EE
330
E9
100
AcDbEntity
  8
0
  6
Continuous
 62
     7
 48
0.875
370
     0
100
AcDbLine
 10
2.0607076129
 20
4.3839395785
 30
0.0
 11
2.0607076129
 21
4.2363753587
 31
0.0
  0
LINE
  5
EF
330
E9
100
AcDbEntity
  8
0
  6
Continuous
 62
     7
 48
0.875
370
     0
100
AcDbLine
 10
2.0607076129
 20
4.2363753587
 30
0.0
 11
2.0829110999
 21
4.2363753587
 31
0.0
  0
LINE
  5
F0
330
E9
100
AcDbEntity
  8
0
  6
Continuous
 62
     7
 48
0.875
370
     0
100
AcDbLine
 10
2.0607076129
 20
4.3839395785
 30
0.0
 11
2.0829110999
 21
4.3839395785
 31
0.0
  0
LINE
  5
F1
330
E9
100
AcDbEntity
  8
0
  6
Continuous
 62
     7
 48
0.875
370
     0
100
AcDbLine
 10
2.3111350952
 20
4.3839395785
 30
0.0
 11
2.3111350952
 21
4.2363753587
 31
0.0
  0
LINE
  5
F2
330
E9
100
AcDbEntity
  8
0
  6
Continuous
 62
     7
 48
0.875
370
     0
100
AcDbLine
 10
2.3111350952
 20
4.2363753587
 30
0.0
 11
2.2889316082
 21
4.2363753587
 31
0.0
  0
LINE
  5
F3
330
E9
100
AcDbEntity
  8
0
  6
Continuous
 62
     7
 48
0.875
370
     0
100
AcDbLine
 10
2.3111350952
 20
4.3839395785
 30
0.0
 11
2.2889316082
 21
4.3839395785
 31
0.0
  0
LINE
  5
F4
330
E9
100
AcDbEntity
  8
0
  6
Continuous
 62
     7
 48
0.875
370
     0
100
AcDbLine
 10
4.871367115
 20
3.2552276674
 30
0.0
 11
2.076546354
 21
3.2552276674
 31
0.0
  0
LINE
  5
F5
330
E9
100
AcDbEntity
  8
0
  6
Continuous
 62
     7
 48
0.875
370
     0
100
AcDbLine
 10
3.1627056976
 20
5.5386922343
 30
0.0
 11
2.076546354
 21
5.5386922343
 31
0.0
  0
LINE
  5
F6
330
E9
100
AcDbEntity
  8
0
  6
Continuous
 62
     7
 48
0.875
370
     0
100
AcDbLine
 10
2.185921354
 20
3.2552276674
 30
0.0
 11
2.185921354
 21
4.2233549863
 31
0.0
  0
LINE
  5
F7
330
E9
100
AcDbEntity
  8
0
  6
Continuous
 62
     7
 48
0.875
370
     0
100
AcDbLine
 10
2.185921354
 20
5.5386922343
 30
0.0
 11
2.185921354
 21
4.5705649154
 31
0.0
  0
MTEXT
  5
F8
330
E9
100
AcDbEntity
  8
0
  6
Continuous
 62
     7
 48
0.875
370
     0
100
AcDbMText
 10
2.044499841
 20
4.5379517289
 30
0.0
 40
0.109375
 41
0.0
 71
     1
 72
     1
  1
2.28
  7
SLDTEXTSTYLE0
 73
     1
 44
1.0
  0
MTEXT
  5
F9
330
E9
100
AcDbEntity
  8
0
  6
Continuous
 62
     7
 48
0.875
370
     0
100
AcDbMText
 10
2.1051145869
 20
4.3643467643
 30
0.0
 40
0.109375
 41
0.0
 71
     1
 72
     1
  1
58
  7
SLDTEXTSTYLE0
 73
     1
 44
1.0
  0
ENDBLK
  5
EB
330
E9
100
AcDbEntity
  8
0
100
AcDbBlockEnd
  0
BLOCK
  5
FC
330
FB
100
AcDbEntity
  8
0
100
AcDbBlockBegin
  2
*D9
 70
     1
 10
0.0
 20
0.0
 30
0.0
  3
*D9
  1

  0
SOLID
  5
FE
330
FB
100
AcDbEntity
  8
0
  6
Continuous
 62
     7
 48
0.875
370
     0
100
AcDbTrace
 10
3.2064556976
 20
2.7192825997
 30
0.0
 11
3.3202056976
 21
2.7017825997
 31
0.0
 12
3.3202056976
 22
2.7367825997
 32
0.0
 13
3.3202056976
 23
2.7367825997
 33
0.0
  0
SOLID
  5
FF
330
FB
100
AcDbEntity
  8
0
  6
Continuous
 62
     7
 48
0.875
370
     0
100
AcDbTrace
 10
4.915117115
 20
2.7192825997
 30
0.0
 11
4.801367115
 21
2.7367825997
 31
0.0
 12
4.801367115
 22
2.7017825997
 32
0.0
 13
4.801367115
 23
2.7017825997
 33
0.0
  0
LINE
  5
100
330
FB
100
AcDbEntity
  8
0
  6
Continuous
 62
     7
 48
0.875
370
     0
100
AcDbLine
 10
3.8749579193
 20
2.7062622273
 30
0.0
 11
3.8749579193
 21
2.5586980075
 31
0.0
  0
LINE
  5
101
330
FB
100
AcDbEntity
  8
0
  6
Continuous
 62
     7
 48
0.875
370
     0
100
AcDbLine
 10
3.8749579193
 20
2.5586980075
 30
0.0
 11
3.8971614063
 21
2.5586980075
 31
0.0
  0
LINE
  5
102
330
FB
100
AcDbEntity
  8
0
  6
Continuous
 62
     7
 48
0.875
370
     0
100
AcDbLine
 10
3.8749579193
 20
2.7062622273
 30
0.0
 11
3.8971614063
 21
2.7062622273
 31
0.0
  0
LINE
  5
103
330
FB
100
AcDbEntity
  8
0
  6
Continuous
 62
     7
 48
0.875
370
     0
100
AcDbLine
 10
4.2466148933
 20
2.7062622273
 30
0.0
 11
4.2466148933
 21
2.5586980075
 31
0.0
  0
LINE
  5
104
330
FB
100
AcDbEntity
  8
0
  6
Continuous
 62
     7
 48
0.875
370
     0
100
AcDbLine
 10
4.2466148933
 20
2.5586980075
 30
0.0
 11
4.2244114063
 21
2.5586980075
 31
0.0
  0
LINE
  5
105
330
FB
100
AcDbEntity
  8
0
  6
Continuous
 62
     7
 48
0.875
370
     0
100
AcDbLine
 10
4.2466148933
 20
2.7062622273
 30
0.0
 11
4.2244114063
 21
2.7062622273
 31
0.0
  0
LINE
  5
106
330
FB
100
AcDbEntity
  8
0
  6
Continuous
 62
     7
 48
0.875
370
     0
100
AcDbLine
 10
3.2064556976
 20
5.4949422343
 30
0.0
 11
3.2064556976
 21
2.6099075997
 31
0.0
  0
LINE
  5
107
330
FB
100
AcDbEntity
  8
0
  6
Continuous
 62
     7
 48
0.875
370
     0
100
AcDbLine
 10
4.915117115
 20
3.2114776674
 30
0.0
 11
4.915117115
 21
2.6099075997
 31
0.0
  0
LINE
  5
108
330
FB
100
AcDbEntity
  8
0
  6
Continuous
 62
     7
 48
0.875
370
     0
100
AcDbLine
 10
3.2064556976
 20
2.7192825997
 30
0.0
 11
3.7536792993
 21
2.7192825997
 31
0.0
  0
LINE
  5
109
330
FB
100
AcDbEntity
  8
0
  6
Continuous
 62
     7
 48
0.875
370
     0
100
AcDbLine
 10
4.915117115
 20
2.7192825997
 30
0.0
 11
4.3678935133
 21
2.7192825997
 31
0.0
  0
MTEXT
  5
10A
330
FB
100
AcDbEntity
  8
0
  6
Continuous
 62
     7
 48
0.875
370
     0
100
AcDbMText
 10
3.9193648933
 20
2.8602743777
 30
0.0
 40
0.109375
 41
0.0
 71
     1
 72
     1
  1
1.71
  7
SLDTEXTSTYLE0
 73
     1
 44
1.0
  0
MTEXT
  5
10B
330
FB
100
AcDbEntity
  8
0
  6
Continuous
 62
     7
 48
0.875
370
     0
100
AcDbMText
 10
3.9193648933
 20
2.6866694131
 30
0.0
 40
0.109375
 41
0.0
 71
     1
 72
     1
  1
43.4
  7
SLDTEXTSTYLE0
 73
     1
 44
1.0
  0
ENDBLK
  5
FD
330
FB
100
AcDbEntity
  8
0
100
AcDbBlockEnd
  0
BLOCK
  5
10F
330
10E
100
AcDbEntity
  8
0
100
AcDbBlockBegin
  2
*D10
 70
     1
 10
0.0
 20
0.0
 30
0.0
  3
*D10
  1

  0
SOLID
  5
111
330
10E
100
AcDbEntity
  8
0
  6
Continuous
 62
     7
 48
0.875
370
     0
100
AcDbTrace
 10
3.1297510401
 20
5.5830012199
 30
0.0
 11
3.0400072234
 21
5.6550523119
 31
0.0
 12
3.0225002508
 22
5.6247454495
 32
0.0
 13
3.0225002508
 23
5.6247454495
 33
0.0
  0
LINE
  5
112
330
10E
100
AcDbEntity
  8
0
  6
Continuous
 62
     7
 48
0.875
370
     0
100
AcDbLine
 10
1.6637898267
 20
5.914147112
 30
0.0
 11
1.6637898267
 21
5.7665828921
 31
0.0
  0
LINE
  5
113
330
10E
100
AcDbEntity
  8
0
  6
Continuous
 62
     7
 48
0.875
370
     0
100
AcDbLine
 10
1.6637898267
 20
5.7665828921
 30
0.0
 11
1.6859933137
 21
5.7665828921
 31
0.0
  0
LINE
  5
114
330
10E
100
AcDbEntity
  8
0
  6
Continuous
 62
     7
 48
0.875
370
     0
100
AcDbLine
 10
1.6637898267
 20
5.914147112
 30
0.0
 11
1.6859933137
 21
5.914147112
 31
0.0
  0
LINE
  5
115
330
10E
100
AcDbEntity
  8
0
  6
Continuous
 62
     7
 48
0.875
370
     0
100
AcDbLine
 10
2.0354468007
 20
5.914147112
 30
0.0
 11
2.0354468007
 21
5.7665828921
 31
0.0
  0
LINE
  5
116
330
10E
100
AcDbEntity
  8
0
  6
Continuous
 62
     7
 48
0.875
370
     0
100
AcDbLine
 10
2.0354468007
 20
5.7665828921
 30
0.0
 11
2.0132433137
 21
5.7665828921
 31
0.0
  0
LINE
  5
117
330
10E
100
AcDbEntity
  8
0
  6
Continuous
 62
     7
 48
0.875
370
     0
100
AcDbLine
 10
2.0354468007
 20
5.914147112
 30
0.0
 11
2.0132433137
 21
5.914147112
 31
0.0
  0
LINE
  5
118
330
10E
100
AcDbEntity
  8
0
  6
Continuous
 62
     7
 48
0.875
370
     0
100
AcDbLine
 10
3.1297510401
 20
5.5830012199
 30
0.0
 11
2.5339541589
 21
5.9271674843
 31
0.0
  0
LINE
  5
119
330
10E
100
AcDbEntity
  8
0
  6
Continuous
 62
     7
 48
0.875
370
     0
100
AcDbLine
 10
2.5339541589
 20
5.9271674843
 30
0.0
 11
2.4245791589
 21
5.9271674843
 31
0.0
  0
MTEXT
  5
11A
330
10E
100
AcDbEntity
  8
0
  6
Continuous
 62
     7
 48
0.875
370
     0
100
AcDbMText
 10
1.6300745667
 20
6.0681592643
 30
0.0
 40
0.109375
 41
0.0
 71
     1
 72
     1
  1
%%c
  7
SLDTEXTSTYLE0
 73
     1
 44
1.0
  0
MTEXT
  5
11B
330
10E
100
AcDbEntity
  8
0
  6
Continuous
 62
     7
 48
0.875
370
     0
100
AcDbMText
 10
1.7863190348
 20
6.0681592623
 30
0.0
 40
0.109375
 41
0.0
 71
     1
 72
     1
  1
.177
  7
SLDTEXTSTYLE0
 73
     1
 44
1.0
  0
MTEXT
  5
11C
330
10E
100
AcDbEntity
  8
0
  6
Continuous
 62
     7
 48
0.875
370
     0
100
AcDbMText
 10
2.0798537747
 20
6.0681592623
 30
0.0
 40
0.109375
 41
0.0
 71
     1
 72
     1
  1
 (2x)
  7
SLDTEXTSTYLE0
 73
     1
 44
1.0
  0
MTEXT
  5
11D
330
10E
100
AcDbEntity
  8
0
  6
Continuous
 62
     7
 48
0.875
370
     0
100
AcDbMText
 10
1.7081968007
 20
5.8945542978
 30
0.0
 40
0.109375
 41
0.0
 71
     1
 72
     1
  1
4.50
  7
SLDTEXTSTYLE0
 73
     1
 44
1.0
  0
ENDBLK
  5
110
330
10E
100
AcDbEntity
  8
0
100
AcDbBlockEnd
  0
BLOCK
  5
121
330
120
100
AcDbEntity
  8
0
100
AcDbBlockBegin
  2
*D11
 70
     1
 10
0.0
 20
0.0
 30
0.0
  3
*D11
  1

  0
SOLID
  5
123
330
120
100
AcDbEntity
  8
0
  6
Continuous
 62
     7
 48
0.875
370
     0
100
AcDbTrace
 10
2.9977942803
 20
2.4481410532
 30
0.0
 11
3.1115442803
 21
2.4306410532
 31
0.0
 12
3.1115442803
 22
2.4656410532
 32
0.0
 13
3.1115442803
 23
2.4656410532
 33
0.0
  0
SOLID
  5
124
330
120
100
AcDbEntity
  8
0
  6
Continuous
 62
     7
 48
0.875
370
     0
100
AcDbTrace
 10
2.6237785323
 20
2.4481410532
 30
0.0
 11
2.5100285323
 21
2.4656410532
 31
0.0
 12
2.5100285323
 22
2.4306410532
 32
0.0
 13
2.5100285323
 23
2.4306410532
 33
0.0
  0
LINE
  5
125
330
120
100
AcDbEntity
  8
0
  6
Continuous
 62
     7
 48
0.875
370
     0
100
AcDbLine
 10
1.6871150927
 20
2.4351206809
 30
0.0
 11
1.6871150927
 21
2.287556461
 31
0.0
  0
LINE
  5
126
330
120
100
AcDbEntity
  8
0
  6
Continuous
 62
     7
 48
0.875
370
     0
100
AcDbLine
 10
1.6871150927
 20
2.287556461
 30
0.0
 11
1.7093185797
 21
2.287556461
 31
0.0
  0
LINE
  5
127
330
120
100
AcDbEntity
  8
0
  6
Continuous
 62
     7
 48
0.875
370
     0
100
AcDbLine
 10
1.6871150927
 20
2.4351206809
 30
0.0
 11
1.7093185797
 21
2.4351206809
 31
0.0
  0
LINE
  5
128
330
120
100
AcDbEntity
  8
0
  6
Continuous
 62
     7
 48
0.875
370
     0
100
AcDbLine
 10
1.9779266175
 20
2.4351206809
 30
0.0
 11
1.9779266175
 21
2.287556461
 31
0.0
  0
LINE
  5
129
330
120
100
AcDbEntity
  8
0
  6
Continuous
 62
     7
 48
0.875
370
     0
100
AcDbLine
 10
1.9779266175
 20
2.287556461
 30
0.0
 11
1.9557231305
 21
2.287556461
 31
0.0
  0
LINE
  5
12A
330
120
100
AcDbEntity
  8
0
  6
Continuous
 62
     7
 48
0.875
370
     0
100
AcDbLine
 10
1.9779266175
 20
2.4351206809
 30
0.0
 11
1.9557231305
 21
2.4351206809
 31
0.0
  0
LINE
  5
12B
330
120
100
AcDbEntity
  8
0
  6
Continuous
 62
     7
 48
0.875
370
     0
100
AcDbLine
 10
2.9977942803
 20
2.9555721556
 30
0.0
 11
2.9977942803
 21
2.3387660532
 31
0.0
  0
LINE
  5
12C
330
120
100
AcDbEntity
  8
0
  6
Continuous
 62
     7
 48
0.875
370
     0
100
AcDbLine
 10
2.6237785323
 20
3.6799816044
 30
0.0
 11
2.6237785323
 21
2.3387660532
 31
0.0
  0
LINE
  5
12D
330
120
100
AcDbEntity
  8
0
  6
Continuous
 62
     7
 48
0.875
370
     0
100
AcDbLine
 10
2.9977942803
 20
2.4481410532
 30
0.0
 11
3.2165442803
 21
2.4481410532
 31
0.0
  0
LINE
  5
12E
330
120
100
AcDbEntity
  8
0
  6
Continuous
 62
     7
 48
0.875
370
     0
100
AcDbLine
 10
2.6237785323
 20
2.4481410532
 30
0.0
 11
2.4146958994
 21
2.4481410532
 31
0.0
  0
MTEXT
  5
12F
330
120
100
AcDbEntity
  8
0
  6
Continuous
 62
     7
 48
0.875
370
     0
100
AcDbMText
 10
1.7315220667
 20
2.5891328312
 30
0.0
 40
0.109375
 41
0.0
 71
     1
 72
     1
  1
.37
  7
SLDTEXTSTYLE0
 73
     1
 44
1.0
  0
MTEXT
  5
130
330
120
100
AcDbEntity
  8
0
  6
Continuous
 62
     7
 48
0.875
370
     0
100
AcDbMText
 10
2.0223335915
 20
2.5891328312
 30
0.0
 40
0.109375
 41
0.0
 71
     1
 72
     1
  1
 TYP.
  7
SLDTEXTSTYLE0
 73
     1
 44
1.0
  0
MTEXT
  5
131
330
120
100
AcDbEntity
  8
0
  6
Continuous
 62
     7
 48
0.875
370
     0
100
AcDbMText
 10
1.7315220667
 20
2.4155278667
 30
0.0
 40
0.109375
 41
0.0
 71
     1
 72
     1
  1
9.5
  7
SLDTEXTSTYLE0
 73
     1
 44
1.0
  0
ENDBLK
  5
122
330
120
100
AcDbEntity
  8
0
100
AcDbBlockEnd
  0
BLOCK
  5
135
330
134
100
AcDbEntity
  8
0
100
AcDbBlockBegin
  2
*D12
 70
     1
 10
0.0
 20
0.0
 30
0.0
  3
*D12
  1

  0
SOLID
  5
137
330
134
100
AcDbEntity
  8
0
  6
Continuous
 62
     7
 48
0.875
370
     0
100
AcDbTrace
 10
2.8422121529
 20
3.6821029252
 30
0.0
 11
2.9142191643
 21
3.7718821144
 31
0.0
 12
2.8839037081
 22
3.7893742015
 32
0.0
 13
2.8839037081
 23
3.7893742015
 33
0.0
  0
LINE
  5
138
330
134
100
AcDbEntity
  8
0
  6
Continuous
 62
     7
 48
0.875
370
     0
100
AcDbLine
 10
3.2719983781
 20
4.0526456015
 30
0.0
 11
3.2719983781
 21
3.9050813816
 31
0.0
  0
LINE
  5
139
330
134
100
AcDbEntity
  8
0
  6
Continuous
 62
     7
 48
0.875
370
     0
100
AcDbLine
 10
3.2719983781
 20
3.9050813816
 30
0.0
 11
3.294201865
 21
3.9050813816
 31
0.0
  0
LINE
  5
13A
330
134
100
AcDbEntity
  8
0
  6
Continuous
 62
     7
 48
0.875
370
     0
100
AcDbLine
 10
3.2719983781
 20
4.0526456015
 30
0.0
 11
3.294201865
 21
4.0526456015
 31
0.0
  0
LINE
  5
13B
330
134
100
AcDbEntity
  8
0
  6
Continuous
 62
     7
 48
0.875
370
     0
100
AcDbLine
 10
3.5628099029
 20
4.0526456015
 30
0.0
 11
3.5628099029
 21
3.9050813816
 31
0.0
  0
LINE
  5
13C
330
134
100
AcDbEntity
  8
0
  6
Continuous
 62
     7
 48
0.875
370
     0
100
AcDbLine
 10
3.5628099029
 20
3.9050813816
 30
0.0
 11
3.5406064159
 21
3.9050813816
 31
0.0
  0
LINE
  5
13D
330
134
100
AcDbEntity
  8
0
  6
Continuous
 62
     7
 48
0.875
370
     0
100
AcDbLine
 10
3.5628099029
 20
4.0526456015
 30
0.0
 11
3.5406064159
 21
4.0526456015
 31
0.0
  0
LINE
  5
13E
330
134
100
AcDbEntity
  8
0
  6
Continuous
 62
     7
 48
0.875
370
     0
100
AcDbLine
 10
2.8422121529
 20
3.6821029252
 30
0.0
 11
3.0635289041
 21
4.0656659738
 31
0.0
  0
LINE
  5
13F
330
134
100
AcDbEntity
  8
0
  6
Continuous
 62
     7
 48
0.875
370
     0
100
AcDbLine
 10
3.0635289041
 20
4.0656659738
 30
0.0
 11
3.1729039041
 21
4.0656659738
 31
0.0
  0
MTEXT
  5
140
330
134
100
AcDbEntity
  8
0
  6
Continuous
 62
     7
 48
0.875
370
     0
100
AcDbMText
 10
3.2721531062
 20
4.2066577519
 30
0.0
 40
0.109375
 41
0.0
 71
     1
 72
     1
  1
R
  7
SLDTEXTSTYLE0
 73
     1
 44
1.0
  0
MTEXT
  5
141
330
134
100
AcDbEntity
  8
0
  6
Continuous
 62
     7
 48
0.875
370
     0
100
AcDbMText
 10
3.3606575979
 20
4.2066577519
 30
0.0
 40
0.109375
 41
0.0
 71
     1
 72
     1
  1
.31
  7
SLDTEXTSTYLE0
 73
     1
 44
1.0
  0
MTEXT
  5
142
330
134
100
AcDbEntity
  8
0
  6
Continuous
 62
     7
 48
0.875
370
     0
100
AcDbMText
 10
3.6072168769
 20
4.2066577519
 30
0.0
 40
0.109375
 41
0.0
 71
     1
 72
     1
  1
 (4x)
  7
SLDTEXTSTYLE0
 73
     1
 44
1.0
  0
MTEXT
  5
143
330
134
100
AcDbEntity
  8
0
  6
Continuous
 62
     7
 48
0.875
370
     0
100
AcDbMText
 10
3.316405352
 20
4.0330527873
 30
0.0
 40
0.109375
 41
0.0
 71
     1
 72
     1
  1
7.9
  7
SLDTEXTSTYLE0
 73
     1
 44
1.0
  0
ENDBLK
  5
136
330
134
100
AcDbEntity
  8
0
100
AcDbBlockEnd
  0
BLOCK
  5
146
330
145
100
AcDbEntity
  8
0
100
AcDbBlockBegin
  2
*D13
 70
     1
 10
0.0
 20
0.0
 30
0.0
  3
*D13
  1

  0
SOLID
  5
148
330
145
100
AcDbEntity
  8
0
  6
Continuous
 62
     7
 48
0.875
370
     0
100
AcDbTrace
 10
5.4822903944
 20
5.066037328
 30
0.0
 11
5.5543078464
 21
5.1558081423
 31
0.0
 12
5.5239944247
 22
5.173303755
 32
0.0
 13
5.5239944247
 23
5.173303755
 33
0.0
  0
LINE
  5
149
330
145
100
AcDbEntity
  8
0
  6
Continuous
 62
     7
 48
0.875
370
     0
100
AcDbLine
 10
6.354883362
 20
6.2036971829
 30
0.0
 11
6.354883362
 21
6.056132963
 31
0.0
  0
LINE
  5
14A
330
145
100
AcDbEntity
  8
0
  6
Continuous
 62
     7
 48
0.875
370
     0
100
AcDbLine
 10
6.354883362
 20
6.056132963
 30
0.0
 11
6.377086849
 21
6.056132963
 31
0.0
  0
LINE
  5
14B
330
145
100
AcDbEntity
  8
0
  6
Continuous
 62
     7
 48
0.875
370
     0
100
AcDbLine
 10
6.354883362
 20
6.2036971829
 30
0.0
 11
6.377086849
 21
6.2036971829
 31
0.0
  0
LINE
  5
14C
330
145
100
AcDbEntity
  8
0
  6
Continuous
 62
     7
 48
0.875
370
     0
100
AcDbLine
 10
6.6456948868
 20
6.2036971829
 30
0.0
 11
6.6456948868
 21
6.056132963
 31
0.0
  0
LINE
  5
14D
330
145
100
AcDbEntity
  8
0
  6
Continuous
 62
     7
 48
0.875
370
     0
100
AcDbLine
 10
6.6456948868
 20
6.056132963
 30
0.0
 11
6.6234913998
 21
6.056132963
 31
0.0
  0
LINE
  5
14E
330
145
100
AcDbEntity
  8
0
  6
Continuous
 62
     7
 48
0.875
370
     0
100
AcDbLine
 10
6.6456948868
 20
6.2036971829
 30
0.0
 11
6.6234913998
 21
6.2036971829
 31
0.0
  0
LINE
  5
14F
330
145
100
AcDbEntity
  8
0
  6
Continuous
 62
     7
 48
0.875
370
     0
100
AcDbLine
 10
5.4822903944
 20
5.066037328
 30
0.0
 11
6.146413888
 21
6.2167175552
 31
0.0
  0
LINE
  5
150
330
145
100
AcDbEntity
  8
0
  6
Continuous
 62
     7
 48
0.875
370
     0
100
AcDbLine
 10
6.146413888
 20
6.2167175552
 30
0.0
 11
6.255788888
 21
6.2167175552
 31
0.0
  0
MTEXT
  5
151
330
145
100
AcDbEntity
  8
0
  6
Continuous
 62
     7
 48
0.875
370
     0
100
AcDbMText
 10
6.3550380901
 20
6.3577093333
 30
0.0
 40
0.109375
 41
0.0
 71
     1
 72
     1
  1
R
  7
SLDTEXTSTYLE0
 73
     1
 44
1.0
  0
MTEXT
  5
152
330
145
100
AcDbEntity
  8
0
  6
Continuous
 62
     7
 48
0.875
370
     0
100
AcDbMText
 10
6.4435425818
 20
6.3577093333
 30
0.0
 40
0.109375
 41
0.0
 71
     1
 72
     1
  1
.03
  7
SLDTEXTSTYLE0
 73
     1
 44
1.0
  0
MTEXT
  5
153
330
145
100
AcDbEntity
  8
0
  6
Continuous
 62
     7
 48
0.875
370
     0
100
AcDbMText
 10
6.6901018608
 20
6.3577093333
 30
0.0
 40
0.109375
 41
0.0
 71
     1
 72
     1
  1
 (8x)
  7
SLDTEXTSTYLE0
 73
     1
 44
1.0
  0
MTEXT
  5
154
330
145
100
AcDbEntity
  8
0
  6
Continuous
 62
     7
 48
0.875
370
     0
100
AcDbMText
 10
6.399290336
 20
6.1841043687
 30
0.0
 40
0.109375
 41
0.0
 71
     1
 72
     1
  1
0.8
  7
SLDTEXTSTYLE0
 73
     1
 44
1.0
  0
ENDBLK
  5
147
330
145
100
AcDbEntity
  8
0
100
AcDbBlockEnd
  0
ENDSEC
  0
SECTION
  2
ENTITIES
  0
LINE
  5
44
330
1F
100
AcDbEntity
  8
0
  6
Continuous
 62
     7
 48
0.875
370
     0
100
AcDbLine
 10
0.342936125
 20
7.1138140244
 30
0.0
 11
0.342936125
 21
0.3973140244
 31
0.0
  0
LINE
  5
45
330
1F
100
AcDbEntity
  8
0
  6
Continuous
 62
     7
 48
0.875
370
     0
100
AcDbLine
 10
0.288686125
 20
7.1680640244
 30
0.0
 11
0.288686125
 21
0.3430640244
 31
0.0
  0
LINE
  5
46
330
1F
100
AcDbEntity
  8
0
  6
Continuous
 62
     7
 48
0.875
370
     0
100
AcDbLine
 10
9.301186125
 20
0.3430640244
 30
0.0
 11
0.288686125
 21
0.3430640244
 31
0.0
  0
LINE
  5
47
330
1F
100
AcDbEntity
  8
0
  6
Continuous
 62
     7
 48
0.875
370
     0
100
AcDbLine
 10
9.301186125
 20
0.3430640244
 30
0.0
 11
9.301186125
 21
7.1680640244
 31
0.0
  0
LINE
  5
48
330
1F
100
AcDbEntity
  8
0
  6
Continuous
 62
     7
 48
0.875
370
     0
100
AcDbLine
 10
9.246936125
 20
0.3973140244
 30
0.0
 11
0.342936125
 21
0.3973140244
 31
0.0
  0
LINE
  5
49
330
1F
100
AcDbEntity
  8
0
  6
Continuous
 62
     7
 48
0.875
370
     0
100
AcDbLine
 10
9.246936125
 20
0.3973140244
 30
0.0
 11
9.246936125
 21
7.1138140244
 31
0.0
  0
LINE
  5
4A
330
1F
100
AcDbEntity
  8
0
  6
Continuous
 62
     7
 48
0.875
370
     0
100
AcDbLine
 10
0.342936125
 20
7.1138140244
 30
0.0
 11
9.246936125
 21
7.1138140244
 31
0.0
  0
LINE
  5
4B
330
1F
100
AcDbEntity
  8
0
  6
Continuous
 62
     7
 48
0.875
370
     0
100
AcDbLine
 10
0.342936125
 20
6.7585640244
 30
0.0
 11
9.246936125
 21
6.7585640244
 31
0.0
  0
LINE
  5
4C
330
1F
100
AcDbEntity
  8
0
  6
Continuous
 62
     7
 48
0.875
370
     0
100
AcDbLine
 10
0.834686125
 20
7.1138140244
 30
0.0
 11
0.834686125
 21
6.7585640244
 31
0.0
  0
LINE
  5
4D
330
1F
100
AcDbEntity
  8
0
  6
Continuous
 62
     7
 48
0.875
370
     0
100
AcDbLine
 10
7.8933016427
 20
7.1138140244
 30
0.0
 11
7.8933016427
 21
6.7585640244
 31
0.0
  0
LINE
  5
4E
330
1F
100
AcDbEntity
  8
0
  6
Continuous
 62
     7
 48
0.875
370
     0
100
AcDbLine
 10
8.3850516427
 20
7.1138140244
 30
0.0
 11
8.3850516427
 21
6.7585640244
 31
0.0
  0
LINE
  5
4F
330
1F
100
AcDbEntity
  8
0
  6
Continuous
 62
     7
 48
0.875
370
     0
100
AcDbLine
 10
4.772186125
 20
7.1138140244
 30
0.0
 11
4.772186125
 21
6.7585640244
 31
0.0
  0
LINE
  5
50
330
1F
100
AcDbEntity
  8
0
  6
Continuous
 62
     7
 48
0.875
370
     0
100
AcDbLine
 10
5.263936125
 20
7.1138140244
 30
0.0
 11
5.263936125
 21
6.7585640244
 31
0.0
  0
LINE
  5
51
330
1F
100
AcDbEntity
  8
0
  6
Continuous
 62
     7
 48
0.875
370
     0
100
AcDbLine
 10
0.288686125
 20
7.1680640244
 30
0.0
 11
9.301186125
 21
7.1680640244
 31
0.0
  0
INSERT
  5
7F
330
1F
100
AcDbEntity
  8
0
  6
Continuous
 62
     7
 48
0.875
370
     0
100
AcDbBlockReference
  2
SW_NOTE_0
 10
1.1245435314
 20
1.8228320665
 30
0.0
  0
INSERT
  5
85
330
1F
100
AcDbEntity
  8
0
  6
Continuous
 62
     7
 48
0.875
370
     0
100
AcDbBlockReference
  2
SW_NOTE_1
 10
0.4112614515
 20
6.924777904
 30
0.0
  0
INSERT
  5
8B
330
1F
100
AcDbEntity
  8
0
  6
Continuous
 62
     7
 48
0.875
370
     0
100
AcDbBlockReference
  2
SW_NOTE_2
 10
4.8469646351
 20
6.9243748061
 30
0.0
  0
INSERT
  5
91
330
1F
100
AcDbEntity
  8
0
  6
Continuous
 62
     7
 48
0.875
370
     0
100
AcDbBlockReference
  2
SW_NOTE_3
 10
7.9879180384
 20
6.9299763079
 30
0.0
  0
MTEXT
  5
92
330
1F
100
AcDbEntity
  8
0
  6
Continuous
 62
     7
 48
0.875
370
     0
100
AcDbMText
 10
1.8189225975
 20
7.0308390018
 30
0.0
 40
0.1640625
 41
0.0
 71
     1
 72
     1
  1
INTERNAL PANEL
  7
SLDTEXTSTYLE0
 73
     1
 44
1.0
  0
MTEXT
  5
93
330
1F
100
AcDbEntity
  8
0
  6
Continuous
 62
     7
 48
0.875
370
     0
100
AcDbMText
 10
6.0650493238
 20
7.0225924187
 30
0.0
 40
0.1640625
 41
0.0
 71
     1
 72
     1
  1
PNX-91431
  7
SLDTEXTSTYLE0
 73
     1
 44
1.0
  0
MTEXT
  5
94
330
1F
100
AcDbEntity
  8
0
  6
Continuous
 62
     7
 48
0.875
370
     0
100
AcDbMText
 10
8.4299386368
 20
7.0200397717
 30
0.0
 40
0.1640625
 41
0.0
 71
     1
 72
     1
  1
5-11-11
  7
SLDTEXTSTYLE0
 73
     1
 44
1.0
  0
ARC
  5
95
330
1F
100
AcDbEntity
  8
0
  6
Continuous
 62
     7
 48
0.765625
370
    15
100
AcDbCircle
 10
5.4667942803
 20
3.7547316044
 30
0.0
 40
0.0309999999999997
100
AcDbArc
 50
270.0
 51
0.0
  0
ARC
  5
96
330
1F
100
AcDbEntity
  8
0
  6
Continuous
 62
     7
 48
0.765625
370
    15
100
AcDbCircle
 10
5.0927785323
 20
3.0303221556
 30
0.0
 40
0.0309999999999997
100
AcDbArc
 50
270.0
 51
0.0
  0
ARC
  5
97
330
1F
100
AcDbEntity
  8
0
  6
Continuous
 62
     7
 48
0.765625
370
    15
100
AcDbCircle
 10
3.0287942803
 20
3.0303221556
 30
0.0
 40
0.0310000000000001
100
AcDbArc
 50
180.0
 51
270.0
  0
ARC
  5
98
330
1F
100
AcDbEntity
  8
0
  6
Continuous
 62
     7
 48
0.765625
370
    15
100
AcDbCircle
 10
2.6547785323
 20
5.0391882973
 30
0.0
 40
0.0310000000000006
100
AcDbArc
 50
90.0
 51
180.0
  0
ARC
  5
99
330
1F
100
AcDbEntity
  8
0
  6
Continuous
 62
     7
 48
0.765625
370
    15
100
AcDbCircle
 10
3.0287942803
 20
5.7635977461
 30
0.0
 40
0.0310000000000006
100
AcDbArc
 50
90.0
 51
180.0
  0
ARC
  5
9A
330
1F
100
AcDbEntity
  8
0
  6
Continuous
 62
     7
 48
0.765625
370
    15
100
AcDbCircle
 10
5.0927785323
 20
5.7635977461
 30
0.0
 40
0.0309999999999997
100
AcDbArc
 50
0.0
 51
90.0
  0
ARC
  5
9B
330
1F
100
AcDbEntity
  8
0
  6
Continuous
 62
     7
 48
0.765625
370
    15
100
AcDbCircle
 10
5.4667942803
 20
5.0391882973
 30
0.0
 40
0.0310000000000006
100
AcDbArc
 50
0.0
 51
90.0
  0
CIRCLE
  5
9C
330
1F
100
AcDbEntity
  8
0
  6
Continuous
 62
     7
 48
0.765625
370
    15
100
AcDbCircle
 10
3.2064556976
 20
5.5386922343
 30
0.0
 40
0.0885826771653546
  0
CIRCLE
  5
9D
330
1F
100
AcDbEntity
  8
0
  6
Continuous
 62
     7
 48
0.765625
370
    15
100
AcDbCircle
 10
4.915117115
 20
3.2552276674
 30
0.0
 40
0.0885826771653546
  0
ARC
  5
9E
330
1F
100
AcDbEntity
  8
0
  6
Continuous
 62
     7
 48
0.765625
370
    15
100
AcDbCircle
 10
2.6547785323
 20
3.7547316044
 30
0.0
 40
0.0309999999999997
100
AcDbArc
 50
180.0
 51
270.0
  0
LINE
  5
9F
330
1F
100
AcDbEntity
  8
0
  6
Continuous
 62
     7
 48
0.875
370
    15
100
AcDbLine
 10
5.4977942592
 20
3.7547316366
 30
0.0
 11
5.4977942592
 21
5.0391882651
 31
0.0
  0
LINE
  5
A0
330
1F
100
AcDbEntity
  8
0
  6
Continuous
 62
     7
 48
0.875
370
    15
100
AcDbLine
 10
5.4667942706
 20
5.070188327
 30
0.0
 11
5.4348020936
 21
5.070188327
 31
0.0
  0
ARC
  5
A1
330
1F
100
AcDbEntity
  8
0
  6
Continuous
 62
     7
 48
0.765625
370
    15
100
AcDbCircle
 10
5.4348021543
 20
5.3812119194
 30
0.0
 40
0.3110236220472444
100
AcDbArc
 50
180.0
 51
270.0
  0
LINE
  5
A2
330
1F
100
AcDbEntity
  8
0
  6
Continuous
 62
     7
 48
0.875
370
    15
100
AcDbLine
 10
5.1237785599
 20
5.381211934
 30
0.0
 11
5.1237785599
 21
5.7635978033
 31
0.0
  0
LINE
  5
A3
330
1F
100
AcDbEntity
  8
0
  6
Continuous
 62
     7
 48
0.875
370
    15
100
AcDbLine
 10
5.092778498
 20
5.7945977919
 30
0.0
 11
3.0287943146
 21
5.7945977919
 31
0.0
  0
LINE
  5
A4
330
1F
100
AcDbEntity
  8
0
  6
Continuous
 62
     7
 48
0.875
370
    15
100
AcDbLine
 10
2.9977942527
 20
5.7635978033
 30
0.0
 11
2.9977942527
 21
5.381211934
 31
0.0
  0
ARC
  5
A5
330
1F
100
AcDbEntity
  8
0
  6
Continuous
 62
     7
 48
0.765625
370
    15
100
AcDbCircle
 10
2.6867706583
 20
5.3812119194
 30
0.0
 40
0.311023622047244
100
AcDbArc
 50
270.0
 51
0.0
  0
LINE
  5
A6
330
1F
100
AcDbEntity
  8
0
  6
Continuous
 62
     7
 48
0.875
370
    15
100
AcDbLine
 10
2.686770719
 20
5.070188327
 30
0.0
 11
2.654778542
 21
5.070188327
 31
0.0
  0
LINE
  5
A7
330
1F
100
AcDbEntity
  8
0
  6
Continuous
 62
     7
 48
0.875
370
    15
100
AcDbLine
 10
2.6237785534
 20
5.0391882651
 30
0.0
 11
2.6237785534
 21
3.7547316366
 31
0.0
  0
LINE
  5
A8
330
1F
100
AcDbEntity
  8
0
  6
Continuous
 62
     7
 48
0.875
370
    15
100
AcDbLine
 10
2.654778542
 20
3.7237315747
 30
0.0
 11
2.686770719
 21
3.7237315747
 31
0.0
  0
ARC
  5
A9
330
1F
100
AcDbEntity
  8
0
  6
Continuous
 62
     7
 48
0.765625
370
    15
100
AcDbCircle
 10
2.6867706583
 20
3.4127079824
 30
0.0
 40
0.3110236220472444
100
AcDbArc
 50
0.0
 51
90.0
  0
LINE
  5
AA
330
1F
100
AcDbEntity
  8
0
  6
Continuous
 62
     7
 48
0.875
370
    15
100
AcDbLine
 10
2.9977942527
 20
3.4127079677
 30
0.0
 11
2.9977942527
 21
3.0303220984
 31
0.0
  0
LINE
  5
AB
330
1F
100
AcDbEntity
  8
0
  6
Continuous
 62
     7
 48
0.875
370
    15
100
AcDbLine
 10
3.0287943146
 20
2.9993221098
 30
0.0
 11
5.092778498
 21
2.9993221098
 31
0.0
  0
LINE
  5
AC
330
1F
100
AcDbEntity
  8
0
  6
Continuous
 62
     7
 48
0.875
370
    15
100
AcDbLine
 10
5.1237785599
 20
3.0303220984
 30
0.0
 11
5.1237785599
 21
3.4127079677
 31
0.0
  0
ARC
  5
AD
330
1F
100
AcDbEntity
  8
0
  6
Continuous
 62
     7
 48
0.765625
370
    15
100
AcDbCircle
 10
5.4348021543
 20
3.4127079824
 30
0.0
 40
0.3110236220472444
100
AcDbArc
 50
90.0
 51
180.0
  0
LINE
  5
AE
330
1F
100
AcDbEntity
  8
0
  6
Continuous
 62
     7
 48
0.875
370
    15
100
AcDbLine
 10
5.4348020936
 20
3.7237315747
 30
0.0
 11
5.4667942706
 21
3.7237315747
 31
0.0
  0
DIMENSION
  5
AF
330
1F
100
AcDbEntity
  8
0
  6
Continuous
 62
     7
 48
0.875
370
     0
100
AcDbDimension
  2
*D5
 10
5.4977942803
 20
6.2167175552
 30
0.0
 11
4.0607864063
 21
6.2167175552
 31
0.0
 70
   160
 71
     2
 42
-1.0
  3
SLDDIMSTYLE0
100
AcDbAlignedDimension
 13
2.6237785323
 23
5.0701882973
 33
0.0
 14
5.4977942803
 24
5.0701882973
 34
0.0
100
AcDbRotatedDimension
  0
DIMENSION
  5
C2
330
1F
100
AcDbEntity
  8
0
  6
Continuous
 62
     7
 48
0.875
370
     0
100
AcDbDimension
  2
*D6
 10
6.0489753827
 20
5.7945977461
 30
0.0
 11
6.0489753827
 21
4.3969599509
 31
0.0
 70
   160
 71
     2
 42
-1.0
  3
SLDDIMSTYLE1
100
AcDbAlignedDimension
 13
5.1237785323
 23
2.9993221556
 33
0.0
 14
5.1237785323
 24
5.7945977461
 34
0.0
 50
90.0
100
AcDbRotatedDimension
  0
DIMENSION
  5
D5
330
1F
100
AcDbEntity
  8
0
  6
Continuous
 62
     7
 48
0.875
370
     0
100
AcDbDimension
  2
*D7
 10
1.7431458654
 20
2.9993221556
 30
0.0
 11
1.7431458654
 21
3.3863699509
 31
0.0
 70
   160
  1
<> TYP.
 71
     2
 42
-1.0
  3
SLDDIMSTYLE0
100
AcDbAlignedDimension
 13
2.6237785323
 23
3.7237316044
 33
0.0
 14
2.9977942803
 24
2.9993221556
 34
0.0
 50
90.0
100
AcDbRotatedDimension
  0
DIMENSION
  5
E8
330
1F
100
AcDbEntity
  8
0
  6
Continuous
 62
     7
 48
0.875
370
     0
100
AcDbDimension
  2
*D8
 10
2.185921354
 20
5.5386922343
 30
0.0
 11
2.185921354
 21
4.3969599509
 31
0.0
 70
   160
 71
     2
 42
-1.0
  3
SLDDIMSTYLE0
100
AcDbAlignedDimension
 13
4.915117115
 23
3.2552276674
 33
0.0
 14
3.2064556976
 24
5.5386922343
 34
0.0
 50
90.0
100
AcDbRotatedDimension
  0
DIMENSION
  5
FA
330
1F
100
AcDbEntity
  8
0
  6
Continuous
 62
     7
 48
0.875
370
     0
100
AcDbDimension
  2
*D9
 10
4.915117115
 20
2.7192825997
 30
0.0
 11
4.0607864063
 21
2.7192825997
 31
0.0
 70
   160
 71
     2
 42
-1.0
  3
SLDDIMSTYLE0
100
AcDbAlignedDimension
 13
3.2064556976
 23
5.5386922343
 33
0.0
 14
4.915117115
 24
3.2552276674
 34
0.0
100
AcDbRotatedDimension
  0
DIMENSION
  5
10C
330
1F
100
AcDbEntity
  8
0
  6
Continuous
 62
     7
 48
0.875
370
     0
100
AcDbDimension
  2
*D10
 10
3.2831603552
 20
5.4943832487
 30
0.0
 11
1.9902661861
 21
5.9271674843
 31
0.0
 70
   163
  1
<> (2x)
 71
     1
 42
-1.0
  3
SLDDIMSTYLE2
100
AcDbDiametricDimension
 15
3.1297510401
 25
5.5830012199
 35
0.0
 40
0.0
  0
DIMENSION
  5
11E
330
1F
100
AcDbEntity
  8
0
  6
Continuous
 62
     7
 48
0.875
370
     0
100
AcDbDimension
  2
*D11
 10
2.6237785323
 20
2.4481410532
 30
0.0
 11
1.9902661861
 21
2.4481410532
 31
0.0
 70
   160
  1
<> TYP.
 71
     2
 42
-1.0
  3
SLDDIMSTYLE3
100
AcDbAlignedDimension
 13
2.9977942803
 23
2.9993221556
 33
0.0
 14
2.6237785323
 24
3.7237316044
 34
0.0
100
AcDbRotatedDimension
  0
DIMENSION
  5
132
330
1F
100
AcDbEntity
  8
0
  6
Continuous
 62
     7
 48
0.875
370
     0
100
AcDbDimension
  2
*D12
 10
2.6867706583
 20
3.4127079824
 30
0.0
 11
3.5667941523
 21
4.0656659738
 31
0.0
 70
   164
  1
<> (4x)
 71
     1
 42
-1.0
  3
SLDDIMSTYLE4
100
AcDbRadialDimension
 15
2.8422121529
 25
3.6821029252
 35
0.0
 40
0.0
  0
DIMENSION
  5
144
330
1F
100
AcDbEntity
  8
0
  6
Continuous
 62
     7
 48
0.875
370
     0
100
AcDbDimension
  2
*D13
 10
5.4667942803
 20
5.0391882973
 30
0.0
 11
6.6496791362
 21
6.2167175552
 31
0.0
 70
   164
  1
<> (8x)
 71
     1
 42
-1.0
  3
SLDDIMSTYLE4
100
AcDbRadialDimension
 15
5.4822903944
 25
5.066037328
 35
0.0
 40
0.0
  0
LINE
  5
155
330
1F
100
AcDbEntity
  8
0
  6
Continuous
 62
     7
 48
0.875
370
    15
100
AcDbLine
 10
6.7713801443
 20
3.7237315747
 30
0.0
 11
6.7123250257
 21
3.7237315747
 31
0.0
  0
LINE
  5
156
330
1F
100
AcDbEntity
  8
0
  6
Continuous
 62
     7
 48
0.875
370
    15
100
AcDbLine
 10
6.7123250257
 20
3.7237315747
 30
0.0
 11
6.7123250257
 21
3.7547316366
 31
0.0
  0
LINE
  5
157
330
1F
100
AcDbEntity
  8
0
  6
Continuous
 62
     7
 48
0.875
370
    15
100
AcDbLine
 10
6.7713801443
 20
3.7547316366
 30
0.0
 11
6.7713801443
 21
3.7237315747
 31
0.0
  0
LINE
  5
158
330
1F
100
AcDbEntity
  8
0
  6
Continuous
 62
     7
 48
0.875
370
    15
100
AcDbLine
 10
6.7123250257
 20
3.7547316366
 30
0.0
 11
6.7123250257
 21
5.0391882651
 31
0.0
  0
LINE
  5
159
330
1F
100
AcDbEntity
  8
0
  6
Continuous
 62
     7
 48
0.875
370
    15
100
AcDbLine
 10
6.7713801443
 20
3.7547316366
 30
0.0
 11
6.7713801443
 21
5.0391882651
 31
0.0
  0
LINE
  5
15A
330
1F
100
AcDbEntity
  8
0
  6
Continuous
 62
     7
 48
0.875
370
    15
100
AcDbLine
 10
6.7123250257
 20
5.0391882651
 30
0.0
 11
6.7123250257
 21
5.070188327
 31
0.0
  0
LINE
  5
15B
330
1F
100
AcDbEntity
  8
0
  6
Continuous
 62
     7
 48
0.875
370
    15
100
AcDbLine
 10
6.7123250257
 20
5.070188327
 30
0.0
 11
6.7713801443
 21
5.070188327
 31
0.0
  0
LINE
  5
15C
330
1F
100
AcDbEntity
  8
0
  6
Continuous
 62
     7
 48
0.875
370
    15
100
AcDbLine
 10
6.7713801443
 20
5.070188327
 30
0.0
 11
6.7713801443
 21
5.0391882651
 31
0.0
  0
LINE
  5
15D
330
1F
100
AcDbEntity
  8
0
  6
Continuous
 62
     7
 48
0.875
370
    15
100
AcDbLine
 10
6.7123250257
 20
5.070188327
 30
0.0
 11
6.7123250257
 21
5.381211934
 31
0.0
  0
LINE
  5
15E
330
1F
100
AcDbEntity
  8
0
  6
Continuous
 62
     7
 48
0.875
370
    15
100
AcDbLine
 10
6.7713801443
 20
5.070188327
 30
0.0
 11
6.7713801443
 21
5.381211934
 31
0.0
  0
LINE
  5
15F
330
1F
100
AcDbEntity
  8
0
  6
Continuous
 62
     7
 48
0.875
370
    15
100
AcDbLine
 10
6.7123250257
 20
3.4127079677
 30
0.0
 11
6.7123250257
 21
3.7237315747
 31
0.0
  0
LINE
  5
160
330
1F
100
AcDbEntity
  8
0
  6
Continuous
 62
     7
 48
0.875
370
    15
100
AcDbLine
 10
6.7713801443
 20
3.4127079677
 30
0.0
 11
6.7713801443
 21
3.7237315747
 31
0.0
  0
LINE
  5
161
330
1F
100
AcDbEntity
  8
0
  6
Continuous
 62
     7
 48
0.875
370
    15
100
AcDbLine
 10
6.7123250257
 20
5.381211934
 30
0.0
 11
6.7123250257
 21
5.7635978033
 31
0.0
  0
LINE
  5
162
330
1F
100
AcDbEntity
  8
0
  6
Continuous
 62
     7
 48
0.875
370
    15
100
AcDbLine
 10
6.7713801443
 20
5.381211934
 30
0.0
 11
6.7713801443
 21
5.7635978033
 31
0.0
  0
LINE
  5
163
330
1F
100
AcDbEntity
  8
0
  6
Continuous
 62
     7
 48
0.875
370
    15
100
AcDbLine
 10
6.7123250257
 20
3.0303220984
 30
0.0
 11
6.7123250257
 21
3.4127079677
 31
0.0
  0
LINE
  5
164
330
1F
100
AcDbEntity
  8
0
  6
Continuous
 62
     7
 48
0.875
370
    15
100
AcDbLine
 10
6.7713801443
 20
3.0303220984
 30
0.0
 11
6.7713801443
 21
3.4127079677
 31
0.0
  0
LINE
  5
165
330
1F
100
AcDbEntity
  8
0
  6
Continuous
 62
     7
 48
0.875
370
    15
100
AcDbLine
 10
6.7123250257
 20
5.7945977919
 30
0.0
 11
6.7713801443
 21
5.7945977919
 31
0.0
  0
LINE
  5
166
330
1F
100
AcDbEntity
  8
0
  6
Continuous
 62
     7
 48
0.875
370
    15
100
AcDbLine
 10
6.7123250257
 20
5.7635978033
 30
0.0
 11
6.7123250257
 21
5.7945977919
 31
0.0
  0
LINE
  5
167
330
1F
100
AcDbEntity
  8
0
  6
Continuous
 62
     7
 48
0.875
370
    15
100
AcDbLine
 10
6.7713801443
 20
5.7945977919
 30
0.0
 11
6.7713801443
 21
5.7635978033
 31
0.0
  0
LINE
  5
168
330
1F
100
AcDbEntity
  8
0
  6
Continuous
 62
     7
 48
0.875
370
    15
100
AcDbLine
 10
6.7713801443
 20
2.9993221098
 30
0.0
 11
6.7123250257
 21
2.9993221098
 31
0.0
  0
LINE
  5
169
330
1F
100
AcDbEntity
  8
0
  6
Continuous
 62
     7
 48
0.875
370
    15
100
AcDbLine
 10
6.7123250257
 20
2.9993221098
 30
0.0
 11
6.7123250257
 21
3.0303220984
 31
0.0
  0
LINE
  5
16A
330
1F
100
AcDbEntity
  8
0
  6
Continuous
 62
     7
 48
0.875
370
    15
100
AcDbLine
 10
6.7713801443
 20
3.0303220984
 30
0.0
 11
6.7713801443
 21
2.9993221098
 31
0.0
  0
ENDSEC
  0
SECTION
  2
OBJECTS
  0
DICTIONARY
  5
C
330
0
100
AcDbDictionary
281
     1
  3
ACAD_GROUP
350
D
  3
ACAD_LAYOUT
350
1A
  3
ACAD_MATERIAL
350
3B
  3
ACAD_MLEADERSTYLE
350
16D
  3
ACAD_MLINESTYLE
350
17
  3
ACAD_PLOTSETTINGS
350
19
  3
ACAD_PLOTSTYLENAME
350
E
  3
ACAD_SCALELIST
350
56
  3
ACAD_VISUALSTYLE
350
2A
  3
AcDbVariableDictionary
350
16B
  0
DICTIONARY
  5
D
102
{ACAD_REACTORS
330
C
102
}
330
C
100
AcDbDictionary
281
     1
  0
DICTIONARY
  5
1A
102
{ACAD_REACTORS
330
C
102
}
330
C
100
AcDbDictionary
281
     1
  3
Layout1
350
1E
  3
Layout2
350
26
  3
Model
350
22
  0
DICTIONARY
  5
3B
102
{ACAD_REACTORS
330
C
102
}
330
C
100
AcDbDictionary
281
     1
  3
ByBlock
350
3D
  3
ByLayer
350
3C
  3
Global
350
3E
  0
DICTIONARY
  5
16D
102
{ACAD_REACTORS
330
C
102
}
330
C
100
AcDbDictionary
281
     1
  0
DICTIONARY
  5
17
102
{ACAD_REACTORS
330
C
102
}
330
C
100
AcDbDictionary
281
     1
  3
Standard
350
18
  0
DICTIONARY
  5
19
102
{ACAD_REACTORS
330
C
102
}
330
C
100
AcDbDictionary
281
     1
  0
ACDBDICTIONARYWDFLT
  5
E
102
{ACAD_REACTORS
330
C
102
}
330
C
100
AcDbDictionary
281
     1
  3
Normal
350
F
100
AcDbDictionaryWithDefault
340
F
  0
DICTIONARY
  5
56
102
{ACAD_REACTORS
330
C
102
}
330
C
100
AcDbDictionary
281
     1
  3
A0
350
57
  3
A1
350
58
  3
A2
350
59
  3
A3
350
5A
  3
A4
350
5B
  3
A5
350
5C
  3
A6
350
5D
  3
A7
350
5E
  3
A8
350
5F
  3
A9
350
60
  3
B0
350
61
  3
B1
350
62
  3
B2
350
63
  3
B3
350
64
  3
B4
350
65
  3
B5
350
66
  3
B6
350
67
  3
B7
350
68
  3
B8
350
69
  3
B9
350
6A
  3
C0
350
6B
  3
C1
350
6C
  3
C2
350
6D
  3
C3
350
6E
  3
C4
350
6F
  3
C5
350
70
  3
C6
350
71
  3
C7
350
72
  3
C8
350
73
  3
C9
350
74
  3
D0
350
75
  3
D1
350
76
  3
D2
350
77
  0
DICTIONARY
  5
2A
102
{ACAD_REACTORS
330
C
102
}
330
C
100
AcDbDictionary
281
     1
  3
2dWireframe
350
2F
  3
3D Hidden
350
31
  3
3dWireframe
350
30
  3
Basic
350
32
  3
Brighten
350
36
  3
ColorChange
350
3A
  3
Conceptual
350
34
  3
Dim
350
35
  3
Facepattern
350
39
  3
Flat
350
2B
  3
FlatWithEdges
350
2C
  3
Gouraud
350
2D
  3
GouraudWithEdges
350
2E
  3
Linepattern
350
38
  3
Realistic
350
33
  3
Thicken
350
37
  0
DICTIONARY
  5
16B
102
{ACAD_REACTORS
330
C
102
}
330
C
100
AcDbDictionary
281
     1
  3
CANNOSCALE
350
16E
  3
DIMASSOC
350
16F
  3
HIDETEXT
350
170
  0
LAYOUT
  5
1E
102
{ACAD_REACTORS
330
1A
102
}
330
1A
100
AcDbPlotSettings
  1

  2
none_device
  4

  6

 40
0.0
 41
0.0
 42
0.0
 43
0.0
 44
0.0
 45
0.0
 46
0.0
 47
0.0
 48
0.0
 49
0.0
140
0.0
141
0.0
142
1.0
143
1.0
 70
   688
 72
     0
 73
     0
 74
     5
  7

 75
    16
147
1.0
148
0.0
149
0.0
100
AcDbLayout
  1
Layout1
 70
     1
 71
     1
 10
0.0
 20
0.0
 11
12.0
 21
9.0
 12
0.0
 22
0.0
 32
0.0
 14
1.0000000000E+20
 24
1.0000000000E+20
 34
1.0000000000E+20
 15
-1.0000000000E+20
 25
-1.0000000000E+20
 35
-1.0000000000E+20
146
0.0
 13
0.0
 23
0.0
 33
0.0
 16
1.0
 26
0.0
 36
0.0
 17
0.0
 27
1.0
 37
0.0
 76
     0
330
1B
  0
LAYOUT
  5
26
102
{ACAD_REACTORS
330
1A
102
}
330
1A
100
AcDbPlotSettings
  1

  2
none_device
  4

  6

 40
0.0
 41
0.0
 42
0.0
 43
0.0
 44
0.0
 45
0.0
 46
0.0
 47
0.0
 48
0.0
 49
0.0
140
0.0
141
0.0
142
1.0
143
1.0
 70
   688
 72
     0
 73
     0
 74
     5
  7

 75
    16
147
1.0
148
0.0
149
0.0
100
AcDbLayout
  1
Layout2
 70
     1
 71
     2
 10
0.0
 20
0.0
 11
0.0
 21
0.0
 12
0.0
 22
0.0
 32
0.0
 14
0.0
 24
0.0
 34
0.0
 15
0.0
 25
0.0
 35
0.0
146
0.0
 13
0.0
 23
0.0
 33
0.0
 16
1.0
 26
0.0
 36
0.0
 17
0.0
 27
1.0
 37
0.0
 76
     0
330
23
  0
LAYOUT
  5
22
102
{ACAD_REACTORS
330
1A
102
}
330
1A
100
AcDbPlotSettings
  1

  2
none_device
  4

  6

 40
0.0
 41
0.0
 42
0.0
 43
0.0
 44
0.0
 45
0.0
 46
0.0
 47
0.0
 48
0.0
 49
0.0
140
0.0
141
0.0
142
1.0
143
1.0
 70
  1712
 72
     0
 73
     0
 74
     0
  7

 75
     0
147
1.0
148
0.0
149
0.0
100
AcDbLayout
  1
Model
 70
     1
 71
     0
 10
0.0
 20
0.0
 11
9.625
 21
7.4375
 12
0.0
 22
0.0
 32
0.0
 14
0.0
 24
0.0
 34
0.0
 15
9.625
 25
7.4375
 35
0.0
146
0.0
 13
0.0
 23
0.0
 33
0.0
 16
1.0
 26
0.0
 36
0.0
 17
0.0
 27
1.0
 37
0.0
 76
     0
330
1F
331
29
  0
MATERIAL
  5
3D
102
{ACAD_REACTORS
330
3B
102
}
102
{ACAD_XDICTIONARY
360
193
102
}
330
3B
100
AcDbMaterial
  1
ByBlock
  0
MATERIAL
  5
3C
102
{ACAD_REACTORS
330
3B
102
}
102
{ACAD_XDICTIONARY
360
191
102
}
330
3B
100
AcDbMaterial
  1
ByLayer
  0
MATERIAL
  5
3E
102
{ACAD_REACTORS
330
3B
102
}
102
{ACAD_XDICTIONARY
360
195
102
}
330
3B
100
AcDbMaterial
  1
Global
  0
MLINESTYLE
  5
18
102
{ACAD_REACTORS
330
17
102
}
330
17
100
AcDbMlineStyle
  2
Standard
 70
     0
  3

 62
   256
 51
90.0
 52
90.0
 71
     2
 49
0.5
 62
   256
  6
BYLAYER
 49
-0.5
 62
   256
  6
BYLAYER
  0
ACDBPLACEHOLDER
  5
F
102
{ACAD_REACTORS
330
E
102
}
330
E
  0
SCALE
  5
57
102
{ACAD_REACTORS
330
56
102
}
330
56
100
AcDbScale
 70
     0
300
1:1
140
1.0
141
1.0
290
     1
  0
SCALE
  5
58
102
{ACAD_REACTORS
330
56
102
}
330
56
100
AcDbScale
 70
     0
300
1:2
140
1.0
141
2.0
290
     0
  0
SCALE
  5
59
102
{ACAD_REACTORS
330
56
102
}
330
56
100
AcDbScale
 70
     0
300
1:4
140
1.0
141
4.0
290
     0
  0
SCALE
  5
5A
102
{ACAD_REACTORS
330
56
102
}
330
56
100
AcDbScale
 70
     0
300
1:5
140
1.0
141
5.0
290
     0
  0
SCALE
  5
5B
102
{ACAD_REACTORS
330
56
102
}
330
56
100
AcDbScale
 70
     0
300
1:8
140
1.0
141
8.0
290
     0
  0
SCALE
  5
5C
102
{ACAD_REACTORS
330
56
102
}
330
56
100
AcDbScale
 70
     0
300
1:10
140
1.0
141
10.0
290
     0
  0
SCALE
  5
5D
102
{ACAD_REACTORS
330
56
102
}
330
56
100
AcDbScale
 70
     0
300
1:16
140
1.0
141
16.0
290
     0
  0
SCALE
  5
5E
102
{ACAD_REACTORS
330
56
102
}
330
56
100
AcDbScale
 70
     0
300
1:20
140
1.0
141
20.0
290
     0
  0
SCALE
  5
5F
102
{ACAD_REACTORS
330
56
102
}
330
56
100
AcDbScale
 70
     0
300
1:30
140
1.0
141
30.0
290
     0
  0
SCALE
  5
60
102
{ACAD_REACTORS
330
56
102
}
330
56
100
AcDbScale
 70
     0
300
1:40
140
1.0
141
40.0
290
     0
  0
SCALE
  5
61
102
{ACAD_REACTORS
330
56
102
}
330
56
100
AcDbScale
 70
     0
300
1:50
140
1.0
141
50.0
290
     0
  0
SCALE
  5
62
102
{ACAD_REACTORS
330
56
102
}
330
56
100
AcDbScale
 70
     0
300
1:100
140
1.0
141
100.0
290
     0
  0
SCALE
  5
63
102
{ACAD_REACTORS
330
56
102
}
330
56
100
AcDbScale
 70
     0
300
2:1
140
2.0
141
1.0
290
     0
  0
SCALE
  5
64
102
{ACAD_REACTORS
330
56
102
}
330
56
100
AcDbScale
 70
     0
300
4:1
140
4.0
141
1.0
290
     0
  0
SCALE
  5
65
102
{ACAD_REACTORS
330
56
102
}
330
56
100
AcDbScale
 70
     0
300
8:1
140
8.0
141
1.0
290
     0
  0
SCALE
  5
66
102
{ACAD_REACTORS
330
56
102
}
330
56
100
AcDbScale
 70
     0
300
10:1
140
10.0
141
1.0
290
     0
  0
SCALE
  5
67
102
{ACAD_REACTORS
330
56
102
}
330
56
100
AcDbScale
 70
     0
300
100:1
140
100.0
141
1.0
290
     0
  0
SCALE
  5
68
102
{ACAD_REACTORS
330
56
102
}
330
56
100
AcDbScale
 70
     0
300
1/128" = 1'-0"
140
0.0078125
141
12.0
290
     0
  0
SCALE
  5
69
102
{ACAD_REACTORS
330
56
102
}
330
56
100
AcDbScale
 70
     0
300
1/64" = 1'-0"
140
0.015625
141
12.0
290
     0
  0
SCALE
  5
6A
102
{ACAD_REACTORS
330
56
102
}
330
56
100
AcDbScale
 70
     0
300
1/32" = 1'-0"
140
0.03125
141
12.0
290
     0
  0
SCALE
  5
6B
102
{ACAD_REACTORS
330
56
102
}
330
56
100
AcDbScale
 70
     0
300
1/16" = 1'-0"
140
0.0625
141
12.0
290
     0
  0
SCALE
  5
6C
102
{ACAD_REACTORS
330
56
102
}
330
56
100
AcDbScale
 70
     0
300
3/32" = 1'-0"
140
0.09375
141
12.0
290
     0
  0
SCALE
  5
6D
102
{ACAD_REACTORS
330
56
102
}
330
56
100
AcDbScale
 70
     0
300
1/8" = 1'-0"
140
0.125
141
12.0
290
     0
  0
SCALE
  5
6E
102
{ACAD_REACTORS
330
56
102
}
330
56
100
AcDbScale
 70
     0
300
3/16" = 1'-0"
140
0.1875
141
12.0
290
     0
  0
SCALE
  5
6F
102
{ACAD_REACTORS
330
56
102
}
330
56
100
AcDbScale
 70
     0
300
1/4" = 1'-0"
140
0.25
141
12.0
290
     0
  0
SCALE
  5
70
102
{ACAD_REACTORS
330
56
102
}
330
56
100
AcDbScale
 70
     0
300
3/8" = 1'-0"
140
0.375
141
12.0
290
     0
  0
SCALE
  5
71
102
{ACAD_REACTORS
330
56
102
}
330
56
100
AcDbScale
 70
     0
300
1/2" = 1'-0"
140
0.5
141
12.0
290
     0
  0
SCALE
  5
72
102
{ACAD_REACTORS
330
56
102
}
330
56
100
AcDbScale
 70
     0
300
3/4" = 1'-0"
140
0.75
141
12.0
290
     0
  0
SCALE
  5
73
102
{ACAD_REACTORS
330
56
102
}
330
56
100
AcDbScale
 70
     0
300
1" = 1'-0"
140
1.0
141
12.0
290
     0
  0
SCALE
  5
74
102
{ACAD_REACTORS
330
56
102
}
330
56
100
AcDbScale
 70
     0
300
1-1/2" = 1'-0"
140
1.5
141
12.0
290
     0
  0
SCALE
  5
75
102
{ACAD_REACTORS
330
56
102
}
330
56
100
AcDbScale
 70
     0
300
3" = 1'-0"
140
3.0
141
12.0
290
     0
  0
SCALE
  5
76
102
{ACAD_REACTORS
330
56
102
}
330
56
100
AcDbScale
 70
     0
300
6" = 1'-0"
140
6.0
141
12.0
290
     0
  0
SCALE
  5
77
102
{ACAD_REACTORS
330
56
102
}
330
56
100
AcDbScale
 70
     0
300
1'-0" = 1'-0"
140
12.0
141
12.0
290
     0
  0
VISUALSTYLE
  5
2F
102
{ACAD_REACTORS
330
2A
102
}
102
{ACAD_XDICTIONARY
360
179
102
}
330
2A
100
AcDbVisualStyle
  2
2dWireframe
 70
     4
 71
     0
 72
     2
 73
     0
 90
        0
 40
-0.6
 41
-30.0
 62
     5
 63
     7
 74
     1
 91
        4
 64
     7
 65
   257
 75
     1
175
     1
 42
1.0
 92
        0
 66
   257
 43
1.0
 76
     1
 77
     6
 78
     2
 67
     7
 79
     5
170
     0
171
     0
290
     0
174
     0
 93
        1
 44
0.0
173
     0
291
     0
 45
0.0
1001
ACAD
1000
AcDbSavedByObjectVersion
1070
     0
  0
VISUALSTYLE
  5
31
102
{ACAD_REACTORS
330
2A
102
}
102
{ACAD_XDICTIONARY
360
17D
102
}
330
2A
100
AcDbVisualStyle
  2
3D Hidden
 70
     6
 71
     1
 72
     2
 73
     2
 90
        0
 40
-0.6
 41
-30.0
 62
     5
 63
     7
 74
     2
 91
        2
 64
     7
 65
   257
 75
     2
175
     1
 42
40.0
 92
        0
 66
   257
 43
1.0
 76
     1
 77
     6
 78
     2
 67
     7
 79
     3
170
     0
171
     0
290
     0
174
     0
 93
        1
 44
0.0
173
     0
291
     0
 45
0.0
1001
ACAD
1000
AcDbSavedByObjectVersion
1070
     0
  0
VISUALSTYLE
  5
30
102
{ACAD_REACTORS
330
2A
102
}
102
{ACAD_XDICTIONARY
360
17B
102
}
330
2A
100
AcDbVisualStyle
  2
3dWireframe
 70
     5
 71
     0
 72
     2
 73
     0
 90
        0
 40
-0.6
 41
-30.0
 62
     5
 63
     7
 74
     1
 91
        4
 64
     7
 65
   257
 75
     1
175
     1
 42
1.0
 92
        0
 66
   257
 43
1.0
 76
     1
 77
     6
 78
     2
 67
     7
 79
     5
170
     0
171
     0
290
     0
174
     0
 93
        1
 44
0.0
173
     0
291
     0
 45
0.0
1001
ACAD
1000
AcDbSavedByObjectVersion
1070
     0
  0
VISUALSTYLE
  5
32
102
{ACAD_REACTORS
330
2A
102
}
102
{ACAD_XDICTIONARY
360
17F
102
}
330
2A
100
AcDbVisualStyle
  2
Basic
 70
     7
 71
     1
 72
     0
 73
     1
 90
        0
 40
-0.6
 41
-30.0
 62
     5
 63
     7
 74
     0
 91
        4
 64
     7
 65
   257
 75
     1
175
     1
 42
1.0
 92
        8
 66
     7
 43
1.0
 76
     1
 77
     6
 78
     2
 67
     7
 79
     5
170
     0
171
     0
290
     0
174
     0
 93
        1
 44
0.0
173
     0
291
     1
 45
0.0
1001
ACAD
1000
AcDbSavedByObjectVersion
1070
     0
  0
VISUALSTYLE
  5
36
102
{ACAD_REACTORS
330
2A
102
}
102
{ACAD_XDICTIONARY
360
187
102
}
330
2A
100
AcDbVisualStyle
  2
Brighten
 70
    12
 71
     2
 72
     2
 73
     0
 90
        0
 40
-0.6
 41
-30.0
 62
     5
 63
     7
 74
     1
 91
        4
 64
     7
 65
   257
 75
     1
175
     1
 42
1.0
 92
        8
 66
     7
 43
1.0
 76
     1
 77
     6
 78
     2
 67
     7
 79
     5
170
     0
171
     0
290
     0
174
     0
 93
        1
 44
50.0
173
     0
291
     1
 45
0.0
1001
ACAD
1000
AcDbSavedByObjectVersion
1070
     0
  0
VISUALSTYLE
  5
3A
102
{ACAD_REACTORS
330
2A
102
}
102
{ACAD_XDICTIONARY
360
18F
102
}
330
2A
100
AcDbVisualStyle
  2
ColorChange
 70
    16
 71
     2
 72
     2
 73
     3
 90
        0
 40
-0.6
 41
-30.0
 62
     5
 63
     8
 74
     1
 91
        4
 64
     7
 65
   257
 75
     1
175
     1
 42
1.0
 92
        8
 66
     8
 43
1.0
 76
     1
 77
     6
 78
     2
 67
     7
 79
     5
170
     0
171
     0
290
     0
174
     0
 93
        1
 44
0.0
173
     0
291
     1
 45
0.0
1001
ACAD
1000
AcDbSavedByObjectVersion
1070
     0
  0
VISUALSTYLE
  5
34
102
{ACAD_REACTORS
330
2A
102
}
102
{ACAD_XDICTIONARY
360
183
102
}
330
2A
100
AcDbVisualStyle
  2
Conceptual
 70
     9
 71
     3
 72
     2
 73
     0
 90
        0
 40
-0.6
 41
-30.0
 62
     5
 63
     7
 74
     2
 91
        2
 64
     7
 65
   257
 75
     1
175
     1
 42
40.0
 92
        8
 66
     7
 43
1.0
 76
     1
 77
     6
 78
     2
 67
     7
 79
     3
170
     0
171
     0
290
     0
174
     0
 93
        1
 44
0.0
173
     0
291
     0
 45
0.0
1001
ACAD
1000
AcDbSavedByObjectVersion
1070
     0
  0
VISUALSTYLE
  5
35
102
{ACAD_REACTORS
330
2A
102
}
102
{ACAD_XDICTIONARY
360
185
102
}
330
2A
100
AcDbVisualStyle
  2
Dim
 70
    11
 71
     2
 72
     2
 73
     0
 90
        0
 40
-0.6
 41
-30.0
 62
     5
 63
     7
 74
     1
 91
        4
 64
     7
 65
   257
 75
     1
175
     1
 42
1.0
 92
        8
 66
     7
 43
1.0
 76
     1
 77
     6
 78
     2
 67
     7
 79
     5
170
     0
171
     0
290
     0
174
     0
 93
        1
 44
-50.0
173
     0
291
     1
 45
0.0
1001
ACAD
1000
AcDbSavedByObjectVersion
1070
     0
  0
VISUALSTYLE
  5
39
102
{ACAD_REACTORS
330
2A
102
}
102
{ACAD_XDICTIONARY
360
18D
102
}
330
2A
100
AcDbVisualStyle
  2
Facepattern
 70
    15
 71
     2
 72
     2
 73
     0
 90
        0
 40
-0.6
 41
-30.0
 62
     5
 63
     7
 74
     1
 91
        4
 64
     7
 65
   257
 75
     1
175
     1
 42
1.0
 92
        8
 66
     7
 43
1.0
 76
     1
 77
     6
 78
     2
 67
     7
 79
     5
170
     0
171
     0
290
     0
174
     0
 93
        1
 44
0.0
173
     0
291
     1
 45
0.0
1001
ACAD
1000
AcDbSavedByObjectVersion
1070
     0
  0
VISUALSTYLE
  5
2B
102
{ACAD_REACTORS
330
2A
102
}
102
{ACAD_XDICTIONARY
360
171
102
}
330
2A
100
AcDbVisualStyle
  2
Flat
 70
     0
 71
     2
 72
     1
 73
     1
 90
        2
 40
-0.6
 41
30.0
 62
     5
 63
     7
 74
     0
 91
        4
 64
     7
 65
   257
 75
     1
175
     1
 42
1.0
 92
        8
 66
     7
 43
1.0
 76
     1
 77
     6
 78
     2
 67
     7
 79
     5
170
     0
171
     0
290
     0
174
     0
 93
       13
 44
0.0
173
     0
291
     1
 45
0.0
1001
ACAD
1000
AcDbSavedByObjectVersion
1070
     0
  0
VISUALSTYLE
  5
2C
102
{ACAD_REACTORS
330
2A
102
}
102
{ACAD_XDICTIONARY
360
173
102
}
330
2A
100
AcDbVisualStyle
  2
FlatWithEdges
 70
     1
 71
     2
 72
     1
 73
     1
 90
        2
 40
-0.6
 41
30.0
 62
     5
 63
     7
 74
     1
 91
        4
 64
     7
 65
   257
 75
     1
175
     1
 42
1.0
 92
        0
 66
   257
 43
1.0
 76
     1
 77
     6
 78
     2
 67
     7
 79
     5
170
     0
171
     0
290
     0
174
     0
 93
       13
 44
0.0
173
     0
291
     1
 45
0.0
1001
ACAD
1000
AcDbSavedByObjectVersion
1070
     0
  0
VISUALSTYLE
  5
2D
102
{ACAD_REACTORS
330
2A
102
}
102
{ACAD_XDICTIONARY
360
175
102
}
330
2A
100
AcDbVisualStyle
  2
Gouraud
 70
     2
 71
     2
 72
     2
 73
     1
 90
        2
 40
-0.6
 41
30.0
 62
     5
 63
     7
 74
     0
 91
        4
 64
     7
 65
   257
 75
     1
175
     1
 42
1.0
 92
        0
 66
     7
 43
1.0
 76
     1
 77
     6
 78
     2
 67
     7
 79
     5
170
     0
171
     0
290
     0
174
     0
 93
       13
 44
0.0
173
     0
291
     1
 45
0.0
1001
ACAD
1000
AcDbSavedByObjectVersion
1070
     0
  0
VISUALSTYLE
  5
2E
102
{ACAD_REACTORS
330
2A
102
}
102
{ACAD_XDICTIONARY
360
177
102
}
330
2A
100
AcDbVisualStyle
  2
GouraudWithEdges
 70
     3
 71
     2
 72
     2
 73
     1
 90
        2
 40
-0.6
 41
30.0
 62
     5
 63
     7
 74
     1
 91
        4
 64
     7
 65
   257
 75
     1
175
     1
 42
1.0
 92
        0
 66
   257
 43
1.0
 76
     1
 77
     6
 78
     2
 67
     7
 79
     5
170
     0
171
     0
290
     0
174
     0
 93
       13
 44
0.0
173
     0
291
     1
 45
0.0
1001
ACAD
1000
AcDbSavedByObjectVersion
1070
     0
  0
VISUALSTYLE
  5
38
102
{ACAD_REACTORS
330
2A
102
}
102
{ACAD_XDICTIONARY
360
18B
102
}
330
2A
100
AcDbVisualStyle
  2
Linepattern
 70
    14
 71
     2
 72
     2
 73
     0
 90
        0
 40
-0.6
 41
-30.0
 62
     5
 63
     7
 74
     1
 91
        4
 64
     7
 65
   257
 75
     7
175
     7
 42
1.0
 92
        8
 66
     7
 43
1.0
 76
     1
 77
     6
 78
     2
 67
     7
 79
     5
170
     0
171
     0
290
     0
174
     0
 93
        1
 44
0.0
173
     0
291
     1
 45
0.0
1001
ACAD
1000
AcDbSavedByObjectVersion
1070
     0
  0
VISUALSTYLE
  5
33
102
{ACAD_REACTORS
330
2A
102
}
102
{ACAD_XDICTIONARY
360
181
102
}
330
2A
100
AcDbVisualStyle
  2
Realistic
 70
     8
 71
     2
 72
     2
 73
     0
 90
        0
 40
-0.6
 41
-30.0
 62
     5
 63
     7
 74
     1
 91
        0
 64
     7
 65
   257
 75
     1
175
     1
 42
1.0
 92
        8
 66
     8
 43
1.0
 76
     1
 77
     6
 78
     2
 67
     7
 79
     5
170
     0
171
     0
290
     0
174
     0
 93
       13
 44
0.0
173
     0
291
     0
 45
0.0
1001
ACAD
1000
AcDbSavedByObjectVersion
1070
     0
  0
VISUALSTYLE
  5
37
102
{ACAD_REACTORS
330
2A
102
}
102
{ACAD_XDICTIONARY
360
189
102
}
330
2A
100
AcDbVisualStyle
  2
Thicken
 70
    13
 71
     2
 72
     2
 73
     0
 90
        0
 40
-0.6
 41
-30.0
 62
     5
 63
     7
 74
     1
 91
        4
 64
     7
 65
   257
 75
     1
175
     1
 42
1.0
 92
       12
 66
     7
 43
1.0
 76
     1
 77
     6
 78
     2
 67
     7
 79
     5
170
     0
171
     0
290
     0
174
     0
 93
        1
 44
0.0
173
     0
291
     1
 45
0.0
1001
ACAD
1000
AcDbSavedByObjectVersion
1070
     0
  0
DICTIONARYVAR
  5
16E
102
{ACAD_REACTORS
330
16B
102
}
330
16B
100
DictionaryVariables
280
     0
  1
1:1
  0
DICTIONARYVAR
  5
16F
102
{ACAD_REACTORS
330
16B
102
}
330
16B
100
DictionaryVariables
280
     0
  1
2
  0
DICTIONARYVAR
  5
170
102
{ACAD_REACTORS
330
16B
102
}
330
16B
100
DictionaryVariables
280
     0
  1
1
  0
DICTIONARY
  5
193
330
3D
100
AcDbDictionary
280
     1
281
     1
  3
ACAD_XREC_ROUNDTRIP
360
194
  0
DICTIONARY
  5
191
330
3C
100
AcDbDictionary
280
     1
281
     1
  3
ACAD_XREC_ROUNDTRIP
360
192
  0
DICTIONARY
  5
195
330
3E
100
AcDbDictionary
280
     1
281
     1
  3
ACAD_XREC_ROUNDTRIP
360
196
  0
DICTIONARY
  5
179
330
2F
100
AcDbDictionary
280
     1
281
     1
  3
ACAD_XREC_ROUNDTRIP
360
17A
  0
DICTIONARY
  5
17D
330
31
100
AcDbDictionary
280
     1
281
     1
  3
ACAD_XREC_ROUNDTRIP
360
17E
  0
DICTIONARY
  5
17B
330
30
100
AcDbDictionary
280
     1
281
     1
  3
ACAD_XREC_ROUNDTRIP
360
17C
  0
DICTIONARY
  5
17F
330
32
100
AcDbDictionary
280
     1
281
     1
  3
ACAD_XREC_ROUNDTRIP
360
180
  0
DICTIONARY
  5
187
330
36
100
AcDbDictionary
280
     1
281
     1
  3
ACAD_XREC_ROUNDTRIP
360
188
  0
DICTIONARY
  5
18F
330
3A
100
AcDbDictionary
280
     1
281
     1
  3
ACAD_XREC_ROUNDTRIP
360
190
  0
DICTIONARY
  5
183
330
34
100
AcDbDictionary
280
     1
281
     1
  3
ACAD_XREC_ROUNDTRIP
360
184
  0
DICTIONARY
  5
185
330
35
100
AcDbDictionary
280
     1
281
     1
  3
ACAD_XREC_ROUNDTRIP
360
186
  0
DICTIONARY
  5
18D
330
39
100
AcDbDictionary
280
     1
281
     1
  3
ACAD_XREC_ROUNDTRIP
360
18E
  0
DICTIONARY
  5
171
330
2B
100
AcDbDictionary
280
     1
281
     1
  3
ACAD_XREC_ROUNDTRIP
360
172
  0
DICTIONARY
  5
173
330
2C
100
AcDbDictionary
280
     1
281
     1
  3
ACAD_XREC_ROUNDTRIP
360
174
  0
DICTIONARY
  5
175
330
2D
100
AcDbDictionary
280
     1
281
     1
  3
ACAD_XREC_ROUNDTRIP
360
176
  0
DICTIONARY
  5
177
330
2E
100
AcDbDictionary
280
     1
281
     1
  3
ACAD_XREC_ROUNDTRIP
360
178
  0
DICTIONARY
  5
18B
330
38
100
AcDbDictionary
280
     1
281
     1
  3
ACAD_XREC_ROUNDTRIP
360
18C
  0
DICTIONARY
  5
181
330
33
100
AcDbDictionary
280
     1
281
     1
  3
ACAD_XREC_ROUNDTRIP
360
182
  0
DICTIONARY
  5
189
330
37
100
AcDbDictionary
280
     1
281
     1
  3
ACAD_XREC_ROUNDTRIP
360
18A
  0
XRECORD
  5
194
102
{ACAD_REACTORS
330
193
102
}
330
193
100
AcDbXrecord
280
     1
102
MATERIAL
148
0.0
149
0.0
149
0.0
 93
        0
 94
      127
282
     0
 72
     1
 77
     1
171
     1
175
     1
179
     1
273
     0
  0
XRECORD
  5
192
102
{ACAD_REACTORS
330
191
102
}
330
191
100
AcDbXrecord
280
     1
102
MATERIAL
148
0.0
149
0.0
149
0.0
 93
        0
 94
      127
282
     0
 72
     1
 77
     1
171
     1
175
     1
179
     1
273
     0
  0
XRECORD
  5
196
102
{ACAD_REACTORS
330
195
102
}
330
195
100
AcDbXrecord
280
     1
102
MATERIAL
148
0.0
149
0.0
149
0.0
 93
        0
 94
      127
282
     0
 72
     1
 77
     1
171
     1
175
     1
179
     1
273
     0
  0
XRECORD
  5
17A
102
{ACAD_REACTORS
330
179
102
}
330
179
100
AcDbXrecord
280
     1
102
RTVSPropertyOp0
 70
     1
102
RTVSPropertyOp1
 70
     1
102
RTVSPropertyOp2
 70
     1
102
RTVSPropertyOp3
 70
     1
102
RTVSPropertyOp4
 70
     1
102
RTVSPropertyOp5
 70
     1
102
RTVSPropertyOp6
 70
     1
102
RTVSPropertyOp7
 70
     1
102
RTVSPropertyOp8
 70
     1
102
RTVSPropertyOp9
 70
     1
102
RTVSPropertyOp10
 70
     1
102
RTVSPropertyOp11
 70
     1
102
RTVSPropertyOp12
 70
     1
102
RTVSPropertyOp13
 70
     1
102
RTVSPropertyOp14
 70
     1
102
RTVSPropertyOp15
 70
     1
102
RTVSPropertyOp16
 70
     1
102
RTVSPropertyOp17
 70
     1
102
RTVSPropertyOp18
 70
     1
102
RTVSPropertyOp19
 70
     1
102
RTVSPropertyOp20
 70
     1
102
RTVSPropertyOp21
 70
     1
102
RTVSPropertyOp22
 70
     1
102
RTVSPropertyOp23
 70
     1
102
RTVSPropertyOp24
 70
     1
102
RTVSPropertyOp25
 70
     1
102
RTVSPropertyOp26
 70
     1
102
RTVSPropertyOp27
 70
     1
  0
XRECORD
  5
17E
102
{ACAD_REACTORS
330
17D
102
}
330
17D
100
AcDbXrecord
280
     1
102
RTVSPropertyOp0
 70
     1
102
RTVSPropertyOp1
 70
     1
102
RTVSPropertyOp2
 70
     1
102
RTVSPropertyOp3
 70
     1
102
RTVSPropertyOp4
 70
     1
102
RTVSPropertyOp5
 70
     1
102
RTVSPropertyOp6
 70
     1
102
RTVSPropertyOp7
 70
     1
102
RTVSPropertyOp8
 70
     1
102
RTVSPropertyOp9
 70
     1
102
RTVSPropertyOp10
 70
     1
102
RTVSPropertyOp11
 70
     1
102
RTVSPropertyOp12
 70
     1
102
RTVSPropertyOp13
 70
     1
102
RTVSPropertyOp14
 70
     1
102
RTVSPropertyOp15
 70
     1
102
RTVSPropertyOp16
 70
     1
102
RTVSPropertyOp17
 70
     1
102
RTVSPropertyOp18
 70
     1
102
RTVSPropertyOp19
 70
     1
102
RTVSPropertyOp20
 70
     1
102
RTVSPropertyOp21
 70
     1
102
RTVSPropertyOp22
 70
     1
102
RTVSPropertyOp23
 70
     1
102
RTVSPropertyOp24
 70
     1
102
RTVSPropertyOp25
 70
     1
102
RTVSPropertyOp26
 70
     1
102
RTVSPropertyOp27
 70
     1
  0
XRECORD
  5
17C
102
{ACAD_REACTORS
330
17B
102
}
330
17B
100
AcDbXrecord
280
     1
102
RTVSPropertyOp0
 70
     1
102
RTVSPropertyOp1
 70
     1
102
RTVSPropertyOp2
 70
     1
102
RTVSPropertyOp3
 70
     1
102
RTVSPropertyOp4
 70
     1
102
RTVSPropertyOp5
 70
     1
102
RTVSPropertyOp6
 70
     1
102
RTVSPropertyOp7
 70
     1
102
RTVSPropertyOp8
 70
     1
102
RTVSPropertyOp9
 70
     1
102
RTVSPropertyOp10
 70
     1
102
RTVSPropertyOp11
 70
     1
102
RTVSPropertyOp12
 70
     1
102
RTVSPropertyOp13
 70
     1
102
RTVSPropertyOp14
 70
     1
102
RTVSPropertyOp15
 70
     1
102
RTVSPropertyOp16
 70
     1
102
RTVSPropertyOp17
 70
     1
102
RTVSPropertyOp18
 70
     1
102
RTVSPropertyOp19
 70
     1
102
RTVSPropertyOp20
 70
     1
102
RTVSPropertyOp21
 70
     1
102
RTVSPropertyOp22
 70
     1
102
RTVSPropertyOp23
 70
     1
102
RTVSPropertyOp24
 70
     1
102
RTVSPropertyOp25
 70
     1
102
RTVSPropertyOp26
 70
     1
102
RTVSPropertyOp27
 70
     1
  0
XRECORD
  5
180
102
{ACAD_REACTORS
330
17F
102
}
330
17F
100
AcDbXrecord
280
     1
102
RTVSPropertyOp0
 70
     1
102
RTVSPropertyOp1
 70
     1
102
RTVSPropertyOp2
 70
     1
102
RTVSPropertyOp3
 70
     1
102
RTVSPropertyOp4
 70
     1
102
RTVSPropertyOp5
 70
     1
102
RTVSPropertyOp6
 70
     1
102
RTVSPropertyOp7
 70
     1
102
RTVSPropertyOp8
 70
     1
102
RTVSPropertyOp9
 70
     1
102
RTVSPropertyOp10
 70
     1
102
RTVSPropertyOp11
 70
     1
102
RTVSPropertyOp12
 70
     1
102
RTVSPropertyOp13
 70
     1
102
RTVSPropertyOp14
 70
     1
102
RTVSPropertyOp15
 70
     1
102
RTVSPropertyOp16
 70
     1
102
RTVSPropertyOp17
 70
     1
102
RTVSPropertyOp18
 70
     1
102
RTVSPropertyOp19
 70
     1
102
RTVSPropertyOp20
 70
     1
102
RTVSPropertyOp21
 70
     1
102
RTVSPropertyOp22
 70
     1
102
RTVSPropertyOp23
 70
     1
102
RTVSPropertyOp24
 70
     1
102
RTVSPropertyOp25
 70
     1
102
RTVSPropertyOp26
 70
     1
102
RTVSPropertyOp27
 70
     1
  0
XRECORD
  5
188
102
{ACAD_REACTORS
330
187
102
}
330
187
100
AcDbXrecord
280
     1
102
RTVSPropertyOp0
 70
     1
102
RTVSPropertyOp1
 70
     1
102
RTVSPropertyOp2
 70
     1
102
RTVSPropertyOp3
 70
     1
102
RTVSPropertyOp4
 70
     1
102
RTVSPropertyOp5
 70
     1
102
RTVSPropertyOp6
 70
     1
102
RTVSPropertyOp7
 70
     1
102
RTVSPropertyOp8
 70
     1
102
RTVSPropertyOp9
 70
     1
102
RTVSPropertyOp10
 70
     1
102
RTVSPropertyOp11
 70
     1
102
RTVSPropertyOp12
 70
     1
102
RTVSPropertyOp13
 70
     1
102
RTVSPropertyOp14
 70
     1
102
RTVSPropertyOp15
 70
     1
102
RTVSPropertyOp16
 70
     1
102
RTVSPropertyOp17
 70
     1
102
RTVSPropertyOp18
 70
     1
102
RTVSPropertyOp19
 70
     1
102
RTVSPropertyOp20
 70
     1
102
RTVSPropertyOp21
 70
     1
102
RTVSPropertyOp22
 70
     1
102
RTVSPropertyOp23
 70
     1
102
RTVSPropertyOp24
 70
     1
102
RTVSPropertyOp25
 70
     1
102
RTVSPropertyOp26
 70
     1
102
RTVSPropertyOp27
 70
     1
  0
XRECORD
  5
190
102
{ACAD_REACTORS
330
18F
102
}
330
18F
100
AcDbXrecord
280
     1
102
RTVSPropertyOp0
 70
     1
102
RTVSPropertyOp1
 70
     1
102
RTVSPropertyOp2
 70
     1
102
RTVSPropertyOp3
 70
     1
102
RTVSPropertyOp4
 70
     1
102
RTVSPropertyOp5
 70
     1
102
RTVSPropertyOp6
 70
     1
102
RTVSPropertyOp7
 70
     1
102
RTVSPropertyOp8
 70
     1
102
RTVSPropertyOp9
 70
     1
102
RTVSPropertyOp10
 70
     1
102
RTVSPropertyOp11
 70
     1
102
RTVSPropertyOp12
 70
     1
102
RTVSPropertyOp13
 70
     1
102
RTVSPropertyOp14
 70
     1
102
RTVSPropertyOp15
 70
     1
102
RTVSPropertyOp16
 70
     1
102
RTVSPropertyOp17
 70
     1
102
RTVSPropertyOp18
 70
     1
102
RTVSPropertyOp19
 70
     1
102
RTVSPropertyOp20
 70
     1
102
RTVSPropertyOp21
 70
     1
102
RTVSPropertyOp22
 70
     1
102
RTVSPropertyOp23
 70
     1
102
RTVSPropertyOp24
 70
     1
102
RTVSPropertyOp25
 70
     1
102
RTVSPropertyOp26
 70
     1
102
RTVSPropertyOp27
 70
     1
  0
XRECORD
  5
184
102
{ACAD_REACTORS
330
183
102
}
330
183
100
AcDbXrecord
280
     1
102
RTVSPropertyOp0
 70
     1
102
RTVSPropertyOp1
 70
     1
102
RTVSPropertyOp2
 70
     1
102
RTVSPropertyOp3
 70
     1
102
RTVSPropertyOp4
 70
     1
102
RTVSPropertyOp5
 70
     1
102
RTVSPropertyOp6
 70
     1
102
RTVSPropertyOp7
 70
     1
102
RTVSPropertyOp8
 70
     1
102
RTVSPropertyOp9
 70
     1
102
RTVSPropertyOp10
 70
     1
102
RTVSPropertyOp11
 70
     1
102
RTVSPropertyOp12
 70
     1
102
RTVSPropertyOp13
 70
     1
102
RTVSPropertyOp14
 70
     1
102
RTVSPropertyOp15
 70
     1
102
RTVSPropertyOp16
 70
     1
102
RTVSPropertyOp17
 70
     1
102
RTVSPropertyOp18
 70
     1
102
RTVSPropertyOp19
 70
     1
102
RTVSPropertyOp20
 70
     1
102
RTVSPropertyOp21
 70
     1
102
RTVSPropertyOp22
 70
     1
102
RTVSPropertyOp23
 70
     1
102
RTVSPropertyOp24
 70
     1
102
RTVSPropertyOp25
 70
     1
102
RTVSPropertyOp26
 70
     1
102
RTVSPropertyOp27
 70
     1
  0
XRECORD
  5
186
102
{ACAD_REACTORS
330
185
102
}
330
185
100
AcDbXrecord
280
     1
102
RTVSPropertyOp0
 70
     1
102
RTVSPropertyOp1
 70
     1
102
RTVSPropertyOp2
 70
     1
102
RTVSPropertyOp3
 70
     1
102
RTVSPropertyOp4
 70
     1
102
RTVSPropertyOp5
 70
     1
102
RTVSPropertyOp6
 70
     1
102
RTVSPropertyOp7
 70
     1
102
RTVSPropertyOp8
 70
     1
102
RTVSPropertyOp9
 70
     1
102
RTVSPropertyOp10
 70
     1
102
RTVSPropertyOp11
 70
     1
102
RTVSPropertyOp12
 70
     1
102
RTVSPropertyOp13
 70
     1
102
RTVSPropertyOp14
 70
     1
102
RTVSPropertyOp15
 70
     1
102
RTVSPropertyOp16
 70
     1
102
RTVSPropertyOp17
 70
     1
102
RTVSPropertyOp18
 70
     1
102
RTVSPropertyOp19
 70
     1
102
RTVSPropertyOp20
 70
     1
102
RTVSPropertyOp21
 70
     1
102
RTVSPropertyOp22
 70
     1
102
RTVSPropertyOp23
 70
     1
102
RTVSPropertyOp24
 70
     1
102
RTVSPropertyOp25
 70
     1
102
RTVSPropertyOp26
 70
     1
102
RTVSPropertyOp27
 70
     1
  0
XRECORD
  5
18E
102
{ACAD_REACTORS
330
18D
102
}
330
18D
100
AcDbXrecord
280
     1
102
RTVSPropertyOp0
 70
     1
102
RTVSPropertyOp1
 70
     1
102
RTVSPropertyOp2
 70
     1
102
RTVSPropertyOp3
 70
     1
102
RTVSPropertyOp4
 70
     1
102
RTVSPropertyOp5
 70
     1
102
RTVSPropertyOp6
 70
     1
102
RTVSPropertyOp7
 70
     1
102
RTVSPropertyOp8
 70
     1
102
RTVSPropertyOp9
 70
     1
102
RTVSPropertyOp10
 70
     1
102
RTVSPropertyOp11
 70
     1
102
RTVSPropertyOp12
 70
     1
102
RTVSPropertyOp13
 70
     1
102
RTVSPropertyOp14
 70
     1
102
RTVSPropertyOp15
 70
     1
102
RTVSPropertyOp16
 70
     1
102
RTVSPropertyOp17
 70
     1
102
RTVSPropertyOp18
 70
     1
102
RTVSPropertyOp19
 70
     1
102
RTVSPropertyOp20
 70
     1
102
RTVSPropertyOp21
 70
     1
102
RTVSPropertyOp22
 70
     1
102
RTVSPropertyOp23
 70
     1
102
RTVSPropertyOp24
 70
     1
102
RTVSPropertyOp25
 70
     1
102
RTVSPropertyOp26
 70
     1
102
RTVSPropertyOp27
 70
     1
  0
XRECORD
  5
172
102
{ACAD_REACTORS
330
171
102
}
330
171
100
AcDbXrecord
280
     1
102
RTVSPropertyOp0
 70
     1
102
RTVSPropertyOp1
 70
     1
102
RTVSPropertyOp2
 70
     1
102
RTVSPropertyOp3
 70
     1
102
RTVSPropertyOp4
 70
     1
102
RTVSPropertyOp5
 70
     1
102
RTVSPropertyOp6
 70
     1
102
RTVSPropertyOp7
 70
     1
102
RTVSPropertyOp8
 70
     1
102
RTVSPropertyOp9
 70
     1
102
RTVSPropertyOp10
 70
     1
102
RTVSPropertyOp11
 70
     1
102
RTVSPropertyOp12
 70
     1
102
RTVSPropertyOp13
 70
     1
102
RTVSPropertyOp14
 70
     1
102
RTVSPropertyOp15
 70
     1
102
RTVSPropertyOp16
 70
     1
102
RTVSPropertyOp17
 70
     1
102
RTVSPropertyOp18
 70
     1
102
RTVSPropertyOp19
 70
     1
102
RTVSPropertyOp20
 70
     1
102
RTVSPropertyOp21
 70
     1
102
RTVSPropertyOp22
 70
     1
102
RTVSPropertyOp23
 70
     1
102
RTVSPropertyOp24
 70
     1
102
RTVSPropertyOp25
 70
     1
102
RTVSPropertyOp26
 70
     1
102
RTVSPropertyOp27
 70
     1
  0
XRECORD
  5
174
102
{ACAD_REACTORS
330
173
102
}
330
173
100
AcDbXrecord
280
     1
102
RTVSPropertyOp0
 70
     1
102
RTVSPropertyOp1
 70
     1
102
RTVSPropertyOp2
 70
     1
102
RTVSPropertyOp3
 70
     1
102
RTVSPropertyOp4
 70
     1
102
RTVSPropertyOp5
 70
     1
102
RTVSPropertyOp6
 70
     1
102
RTVSPropertyOp7
 70
     1
102
RTVSPropertyOp8
 70
     1
102
RTVSPropertyOp9
 70
     1
102
RTVSPropertyOp10
 70
     1
102
RTVSPropertyOp11
 70
     1
102
RTVSPropertyOp12
 70
     1
102
RTVSPropertyOp13
 70
     1
102
RTVSPropertyOp14
 70
     1
102
RTVSPropertyOp15
 70
     1
102
RTVSPropertyOp16
 70
     1
102
RTVSPropertyOp17
 70
     1
102
RTVSPropertyOp18
 70
     1
102
RTVSPropertyOp19
 70
     1
102
RTVSPropertyOp20
 70
     1
102
RTVSPropertyOp21
 70
     1
102
RTVSPropertyOp22
 70
     1
102
RTVSPropertyOp23
 70
     1
102
RTVSPropertyOp24
 70
     1
102
RTVSPropertyOp25
 70
     1
102
RTVSPropertyOp26
 70
     1
102
RTVSPropertyOp27
 70
     1
  0
XRECORD
  5
176
102
{ACAD_REACTORS
330
175
102
}
330
175
100
AcDbXrecord
280
     1
102
RTVSPropertyOp0
 70
     1
102
RTVSPropertyOp1
 70
     1
102
RTVSPropertyOp2
 70
     1
102
RTVSPropertyOp3
 70
     1
102
RTVSPropertyOp4
 70
     1
102
RTVSPropertyOp5
 70
     1
102
RTVSPropertyOp6
 70
     1
102
RTVSPropertyOp7
 70
     1
102
RTVSPropertyOp8
 70
     1
102
RTVSPropertyOp9
 70
     1
102
RTVSPropertyOp10
 70
     1
102
RTVSPropertyOp11
 70
     1
102
RTVSPropertyOp12
 70
     1
102
RTVSPropertyOp13
 70
     1
102
RTVSPropertyOp14
 70
     1
102
RTVSPropertyOp15
 70
     1
102
RTVSPropertyOp16
 70
     1
102
RTVSPropertyOp17
 70
     1
102
RTVSPropertyOp18
 70
     1
102
RTVSPropertyOp19
 70
     1
102
RTVSPropertyOp20
 70
     1
102
RTVSPropertyOp21
 70
     1
102
RTVSPropertyOp22
 70
     1
102
RTVSPropertyOp23
 70
     1
102
RTVSPropertyOp24
 70
     1
102
RTVSPropertyOp25
 70
     1
102
RTVSPropertyOp26
 70
     1
102
RTVSPropertyOp27
 70
     1
  0
XRECORD
  5
178
102
{ACAD_REACTORS
330
177
102
}
330
177
100
AcDbXrecord
280
     1
102
RTVSPropertyOp0
 70
     1
102
RTVSPropertyOp1
 70
     1
102
RTVSPropertyOp2
 70
     1
102
RTVSPropertyOp3
 70
     1
102
RTVSPropertyOp4
 70
     1
102
RTVSPropertyOp5
 70
     1
102
RTVSPropertyOp6
 70
     1
102
RTVSPropertyOp7
 70
     1
102
RTVSPropertyOp8
 70
     1
102
RTVSPropertyOp9
 70
     1
102
RTVSPropertyOp10
 70
     1
102
RTVSPropertyOp11
 70
     1
102
RTVSPropertyOp12
 70
     1
102
RTVSPropertyOp13
 70
     1
102
RTVSPropertyOp14
 70
     1
102
RTVSPropertyOp15
 70
     1
102
RTVSPropertyOp16
 70
     1
102
RTVSPropertyOp17
 70
     1
102
RTVSPropertyOp18
 70
     1
102
RTVSPropertyOp19
 70
     1
102
RTVSPropertyOp20
 70
     1
102
RTVSPropertyOp21
 70
     1
102
RTVSPropertyOp22
 70
     1
102
RTVSPropertyOp23
 70
     1
102
RTVSPropertyOp24
 70
     1
102
RTVSPropertyOp25
 70
     1
102
RTVSPropertyOp26
 70
     1
102
RTVSPropertyOp27
 70
     1
  0
XRECORD
  5
18C
102
{ACAD_REACTORS
330
18B
102
}
330
18B
100
AcDbXrecord
280
     1
102
RTVSPropertyOp0
 70
     1
102
RTVSPropertyOp1
 70
     1
102
RTVSPropertyOp2
 70
     1
102
RTVSPropertyOp3
 70
     1
102
RTVSPropertyOp4
 70
     1
102
RTVSPropertyOp5
 70
     1
102
RTVSPropertyOp6
 70
     1
102
RTVSPropertyOp7
 70
     1
102
RTVSPropertyOp8
 70
     1
102
RTVSPropertyOp9
 70
     1
102
RTVSPropertyOp10
 70
     1
102
RTVSPropertyOp11
 70
     1
102
RTVSPropertyOp12
 70
     1
102
RTVSPropertyOp13
 70
     1
102
RTVSPropertyOp14
 70
     1
102
RTVSPropertyOp15
 70
     1
102
RTVSPropertyOp16
 70
     1
102
RTVSPropertyOp17
 70
     1
102
RTVSPropertyOp18
 70
     1
102
RTVSPropertyOp19
 70
     1
102
RTVSPropertyOp20
 70
     1
102
RTVSPropertyOp21
 70
     1
102
RTVSPropertyOp22
 70
     1
102
RTVSPropertyOp23
 70
     1
102
RTVSPropertyOp24
 70
     1
102
RTVSPropertyOp25
 70
     1
102
RTVSPropertyOp26
 70
     1
102
RTVSPropertyOp27
 70
     1
  0
XRECORD
  5
182
102
{ACAD_REACTORS
330
181
102
}
330
181
100
AcDbXrecord
280
     1
102
RTVSPropertyOp0
 70
     1
102
RTVSPropertyOp1
 70
     1
102
RTVSPropertyOp2
 70
     1
102
RTVSPropertyOp3
 70
     1
102
RTVSPropertyOp4
 70
     1
102
RTVSPropertyOp5
 70
     1
102
RTVSPropertyOp6
 70
     1
102
RTVSPropertyOp7
 70
     1
102
RTVSPropertyOp8
 70
     1
102
RTVSPropertyOp9
 70
     1
102
RTVSPropertyOp10
 70
     1
102
RTVSPropertyOp11
 70
     1
102
RTVSPropertyOp12
 70
     1
102
RTVSPropertyOp13
 70
     1
102
RTVSPropertyOp14
 70
     1
102
RTVSPropertyOp15
 70
     1
102
RTVSPropertyOp16
 70
     1
102
RTVSPropertyOp17
 70
     1
102
RTVSPropertyOp18
 70
     1
102
RTVSPropertyOp19
 70
     1
102
RTVSPropertyOp20
 70
     1
102
RTVSPropertyOp21
 70
     1
102
RTVSPropertyOp22
 70
     1
102
RTVSPropertyOp23
 70
     1
102
RTVSPropertyOp24
 70
     1
102
RTVSPropertyOp25
 70
     1
102
RTVSPropertyOp26
 70
     1
102
RTVSPropertyOp27
 70
     1
  0
XRECORD
  5
18A
102
{ACAD_REACTORS
330
189
102
}
330
189
100
AcDbXrecord
280
     1
102
RTVSPropertyOp0
 70
     1
102
RTVSPropertyOp1
 70
     1
102
RTVSPropertyOp2
 70
     1
102
RTVSPropertyOp3
 70
     1
102
RTVSPropertyOp4
 70
     1
102
RTVSPropertyOp5
 70
     1
102
RTVSPropertyOp6
 70
     1
102
RTVSPropertyOp7
 70
     1
102
RTVSPropertyOp8
 70
     1
102
RTVSPropertyOp9
 70
     1
102
RTVSPropertyOp10
 70
     1
102
RTVSPropertyOp11
 70
     1
102
RTVSPropertyOp12
 70
     1
102
RTVSPropertyOp13
 70
     1
102
RTVSPropertyOp14
 70
     1
102
RTVSPropertyOp15
 70
     1
102
RTVSPropertyOp16
 70
     1
102
RTVSPropertyOp17
 70
     1
102
RTVSPropertyOp18
 70
     1
102
RTVSPropertyOp19
 70
     1
102
RTVSPropertyOp20
 70
     1
102
RTVSPropertyOp21
 70
     1
102
RTVSPropertyOp22
 70
     1
102
RTVSPropertyOp23
 70
     1
102
RTVSPropertyOp24
 70
     1
102
RTVSPropertyOp25
 70
     1
102
RTVSPropertyOp26
 70
     1
102
RTVSPropertyOp27
 70
     1
  0
ENDSEC
  0
EOF
